SplineFontDB: 3.0
FontName: Share-Regular
FullName: Share
FamilyName: Share
Weight: Book
Copyright: Copyright (c) 2005-2011, Carrois Type Design (carrois.com), with Reserved Font Name "Share"
Version: 1.001
ItalicAngle: 0
UnderlinePosition: -61
UnderlineWidth: 75
Ascent: 800
Descent: 200
sfntRevision: 0x00010000
LayerCount: 2
Layer: 0 1 "Back"  1
Layer: 1 1 "Fore"  0
XUID: [1021 374 1024634678 13482229]
FSType: 0
OS2Version: 2
OS2_WeightWidthSlopeOnly: 0
OS2_UseTypoMetrics: 1
CreationTime: 1130492185
ModificationTime: 1327419339
PfmFamily: 17
TTFWeight: 400
TTFWidth: 5
LineGap: 0
VLineGap: 0
Panose: 2 0 5 6 4 0 0 2 0 4
OS2TypoAscent: 85
OS2TypoAOffset: 1
OS2TypoDescent: -42
OS2TypoDOffset: 1
OS2TypoLinegap: 0
OS2WinAscent: 30
OS2WinAOffset: 1
OS2WinDescent: 2
OS2WinDOffset: 1
HheadAscent: 30
HheadAOffset: 1
HheadDescent: -2
HheadDOffset: 1
OS2SubXSize: 700
OS2SubYSize: 650
OS2SubXOff: 0
OS2SubYOff: 140
OS2SupXSize: 700
OS2SupYSize: 650
OS2SupXOff: 0
OS2SupYOff: 477
OS2StrikeYSize: 50
OS2StrikeYPos: 250
OS2Vendor: 'pyrs'
OS2CodePages: 20000001.00000000
OS2UnicodeRanges: 800000af.4000204a.00000000.00000000
Lookup: 1 0 0 "'aalt' Access All Alternates in Latin lookup 0"  {"'aalt' Access All Alternates in Latin lookup 0 subtable"  } ['aalt' ('latn' <'dflt' > ) ]
Lookup: 4 0 0 "'frac' Diagonal Fractions in Latin lookup 1"  {"'frac' Diagonal Fractions in Latin lookup 1 subtable"  } ['frac' ('latn' <'dflt' > ) ]
Lookup: 1 0 0 "'numr' Numerators in Latin lookup 2"  {"'numr' Numerators in Latin lookup 2 subtable"  } ['numr' ('latn' <'dflt' > ) ]
Lookup: 4 0 1 "'liga' Standard Ligatures in Latin lookup 3"  {"'liga' Standard Ligatures in Latin lookup 3 subtable"  } ['liga' ('latn' <'dflt' > ) ]
Lookup: 1 0 0 "'ordn' Ordinals in Latin lookup 4"  {"'ordn' Ordinals in Latin lookup 4 subtable"  } ['ordn' ('latn' <'dflt' > ) ]
Lookup: 1 0 0 "'sups' Superscript in Latin lookup 5"  {"'sups' Superscript in Latin lookup 5 subtable" ("superior" ) } ['sups' ('latn' <'dflt' > ) ]

StartChar: .notdef
Encoding: 65536 -1 0
Width: 502
Flags: W
LayerCount: 2
Fore
SplineSet
65 700 m 1,0,-1
 437 700 l 1,1,-1
 437 0 l 1,2,-1
 65 0 l 1,3,-1
 65 700 l 1,0,-1
362 72 m 1,4,-1
 362 628 l 1,5,-1
 140 628 l 1,6,-1
 140 72 l 1,7,-1
 362 72 l 1,4,-1
EndSplineSet
EndChar

StartChar: numbersign
Encoding: 35 35 4
Width: 470
Flags: W
LayerCount: 2
Fore
SplineSet
284 455 m 1,0,-1
 204 455 l 1,1,-1
 186 255 l 1,2,-1
 266 255 l 1,3,-1
 284 455 l 1,0,-1
340 180 m 1,4,-1
 324 0 l 1,5,-1
 244 0 l 1,6,-1
 260 180 l 1,7,-1
 180 180 l 1,8,-1
 164 0 l 1,9,-1
 84 0 l 1,10,-1
 100 180 l 1,11,-1
 30 180 l 1,12,-1
 36 255 l 1,13,-1
 106 255 l 1,14,-1
 124 455 l 1,15,-1
 54 455 l 1,16,-1
 60 530 l 1,17,-1
 130 530 l 1,18,-1
 145 700 l 1,19,-1
 225 700 l 1,20,-1
 210 530 l 1,21,-1
 290 530 l 1,22,-1
 305 700 l 1,23,-1
 385 700 l 1,24,-1
 370 530 l 1,25,-1
 440 530 l 1,26,-1
 434 455 l 1,27,-1
 364 455 l 1,28,-1
 346 255 l 1,29,-1
 416 255 l 1,30,-1
 410 180 l 1,31,-1
 340 180 l 1,4,-1
EndSplineSet
EndChar

StartChar: dollar
Encoding: 36 36 5
Width: 470
Flags: W
LayerCount: 2
Fore
SplineSet
192 -110 m 1,0,-1
 192 -5 l 1,1,2
 140 -3 140 -3 94 10 c 1,3,-1
 94 83 l 1,4,5
 117 77 117 77 146 72.5 c 128,-1,6
 175 68 175 68 210 68 c 0,7,8
 262 68 262 68 280.5 97.5 c 128,-1,9
 299 127 299 127 299 184 c 0,10,11
 299 249 299 249 281 276 c 128,-1,12
 263 303 263 303 228 310 c 0,13,14
 151 326 151 326 116.5 373.5 c 128,-1,15
 82 421 82 421 82 494 c 0,16,17
 82 571 82 571 111 611.5 c 128,-1,18
 140 652 140 652 192 666 c 1,19,-1
 192 780 l 1,20,-1
 277 780 l 1,21,-1
 277 675 l 1,22,23
 303 674 303 674 324 669.5 c 128,-1,24
 345 665 345 665 365 660 c 1,25,-1
 365 587 l 1,26,27
 339 593 339 593 312 597.5 c 128,-1,28
 285 602 285 602 259 602 c 0,29,30
 240 602 240 602 224 597.5 c 128,-1,31
 208 593 208 593 196 581.5 c 128,-1,32
 184 570 184 570 177.5 551.5 c 128,-1,33
 171 533 171 533 171 505 c 0,34,35
 171 455 171 455 185.5 428 c 128,-1,36
 200 401 200 401 241 393 c 0,37,38
 277 386 277 386 304.5 372 c 128,-1,39
 332 358 332 358 350.5 334.5 c 128,-1,40
 369 311 369 311 378.5 276.5 c 128,-1,41
 388 242 388 242 388 194 c 0,42,43
 388 148 388 148 380.5 115 c 128,-1,44
 373 82 373 82 359 59.5 c 128,-1,45
 345 37 345 37 324.5 23.5 c 128,-1,46
 304 10 304 10 277 3 c 1,47,-1
 277 -110 l 1,48,-1
 192 -110 l 1,0,-1
EndSplineSet
EndChar

StartChar: percent
Encoding: 37 37 6
Width: 856
Flags: W
LayerCount: 2
Fore
SplineSet
290 496 m 256,0,1
 290 577 290 577 275 612.5 c 128,-1,2
 260 648 260 648 222 648 c 256,3,4
 184 648 184 648 169 612.5 c 128,-1,5
 154 577 154 577 154 496 c 256,6,7
 154 415 154 415 169 379.5 c 128,-1,8
 184 344 184 344 222 344 c 256,9,10
 260 344 260 344 275 379.5 c 128,-1,11
 290 415 290 415 290 496 c 256,0,1
359 500 m 256,12,13
 359 453 359 453 354 413.5 c 128,-1,14
 349 374 349 374 334 345.5 c 128,-1,15
 319 317 319 317 292.5 301 c 128,-1,16
 266 285 266 285 222 285 c 0,17,18
 179 285 179 285 152 301 c 128,-1,19
 125 317 125 317 110 345.5 c 128,-1,20
 95 374 95 374 90 413.5 c 128,-1,21
 85 453 85 453 85 500 c 256,22,23
 85 547 85 547 90 585 c 128,-1,24
 95 623 95 623 110 650 c 128,-1,25
 125 677 125 677 152 692 c 128,-1,26
 179 707 179 707 222 707 c 0,27,28
 266 707 266 707 293 692 c 128,-1,29
 320 677 320 677 334.5 650 c 128,-1,30
 349 623 349 623 354 585 c 128,-1,31
 359 547 359 547 359 500 c 256,12,13
345 0 m 1,32,-1
 267 0 l 1,33,-1
 512 700 l 1,34,-1
 590 700 l 1,35,-1
 345 0 l 1,32,-1
702 204 m 256,36,37
 702 285 702 285 687 320.5 c 128,-1,38
 672 356 672 356 634 356 c 256,39,40
 596 356 596 356 581 320.5 c 128,-1,41
 566 285 566 285 566 204 c 256,42,43
 566 123 566 123 581 87.5 c 128,-1,44
 596 52 596 52 634 52 c 256,45,46
 672 52 672 52 687 87.5 c 128,-1,47
 702 123 702 123 702 204 c 256,36,37
771 208 m 256,48,49
 771 161 771 161 766 121.5 c 128,-1,50
 761 82 761 82 746 53.5 c 128,-1,51
 731 25 731 25 704.5 9 c 128,-1,52
 678 -7 678 -7 634 -7 c 0,53,54
 591 -7 591 -7 564 9 c 128,-1,55
 537 25 537 25 522 53.5 c 128,-1,56
 507 82 507 82 502 121.5 c 128,-1,57
 497 161 497 161 497 208 c 256,58,59
 497 255 497 255 502 293 c 128,-1,60
 507 331 507 331 522 358 c 128,-1,61
 537 385 537 385 564 400 c 128,-1,62
 591 415 591 415 634 415 c 0,63,64
 678 415 678 415 705 400 c 128,-1,65
 732 385 732 385 746.5 358 c 128,-1,66
 761 331 761 331 766 293 c 128,-1,67
 771 255 771 255 771 208 c 256,48,49
EndSplineSet
Ligature2: "'frac' Diagonal Fractions in Latin lookup 1 subtable" zero fraction zero
Ligature2: "'frac' Diagonal Fractions in Latin lookup 1 subtable" zero slash zero
EndChar

StartChar: ampersand
Encoding: 38 38 7
Width: 507
Flags: W
LayerCount: 2
Fore
SplineSet
65 198 m 0,0,1
 65 235 65 235 68.5 269 c 128,-1,2
 72 303 72 303 81 331 c 128,-1,3
 90 359 90 359 105.5 379 c 128,-1,4
 121 399 121 399 145 408 c 1,5,6
 110 429 110 429 94 458 c 128,-1,7
 78 487 78 487 78 535 c 0,8,9
 78 591 78 591 92 625 c 128,-1,10
 106 659 106 659 130.5 677 c 128,-1,11
 155 695 155 695 188 701 c 128,-1,12
 221 707 221 707 260 707 c 0,13,14
 298 707 298 707 324.5 701 c 128,-1,15
 351 695 351 695 360 692 c 1,16,-1
 360 619 l 1,17,18
 356 620 356 620 343.5 622.5 c 128,-1,19
 331 625 331 625 316 627.5 c 128,-1,20
 301 630 301 630 285 632 c 128,-1,21
 269 634 269 634 258 634 c 0,22,23
 239 634 239 634 222 631 c 128,-1,24
 205 628 205 628 192 618.5 c 128,-1,25
 179 609 179 609 171 591.5 c 128,-1,26
 163 574 163 574 163 544 c 0,27,28
 163 500 163 500 181 470 c 128,-1,29
 199 440 199 440 247 440 c 2,30,-1
 482 440 l 1,31,-1
 482 367 l 1,32,-1
 399 367 l 1,33,-1
 399 5 l 1,34,35
 361 -1 361 -1 322 -4 c 128,-1,36
 283 -7 283 -7 236 -7 c 0,37,38
 153 -7 153 -7 109 39.5 c 128,-1,39
 65 86 65 86 65 198 c 0,0,1
237 66 m 0,40,41
 268 66 268 66 288.5 69 c 128,-1,42
 309 72 309 72 320 74 c 1,43,-1
 320 367 l 1,44,-1
 232 367 l 2,45,46
 205 367 205 367 189 352 c 128,-1,47
 173 337 173 337 164.5 312 c 128,-1,48
 156 287 156 287 153.5 254.5 c 128,-1,49
 151 222 151 222 151 188 c 0,50,51
 151 130 151 130 175 98 c 128,-1,52
 199 66 199 66 237 66 c 0,40,41
EndSplineSet
EndChar

StartChar: quoteright
Encoding: 8217 8217 8
Width: 225
Flags: W
LayerCount: 2
Fore
SplineSet
110 453 m 1,0,-1
 45 453 l 1,1,-1
 75 610 l 1,2,-1
 75 700 l 1,3,-1
 170 700 l 1,4,-1
 170 610 l 1,5,-1
 110 453 l 1,0,-1
EndSplineSet
EndChar

StartChar: parenleft
Encoding: 40 40 9
Width: 320
Flags: W
LayerCount: 2
Fore
SplineSet
55 350 m 256,0,1
 55 490 55 490 82 604 c 128,-1,2
 109 718 109 718 177 820 c 1,3,-1
 260 820 l 1,4,5
 229 767 229 767 206.5 714 c 128,-1,6
 184 661 184 661 169 604 c 128,-1,7
 154 547 154 547 147 484.5 c 128,-1,8
 140 422 140 422 140 350 c 256,9,10
 140 278 140 278 147 215.5 c 128,-1,11
 154 153 154 153 169 96 c 128,-1,12
 184 39 184 39 206.5 -14 c 128,-1,13
 229 -67 229 -67 260 -120 c 1,14,-1
 177 -120 l 1,15,16
 109 -18 109 -18 82 96 c 128,-1,17
 55 210 55 210 55 350 c 256,0,1
EndSplineSet
EndChar

StartChar: parenright
Encoding: 41 41 10
Width: 320
Flags: W
LayerCount: 2
Fore
SplineSet
265 350 m 256,0,1
 265 210 265 210 238 96 c 128,-1,2
 211 -18 211 -18 143 -120 c 1,3,-1
 60 -120 l 1,4,5
 91 -67 91 -67 113.5 -14 c 128,-1,6
 136 39 136 39 151 96 c 128,-1,7
 166 153 166 153 173 215.5 c 128,-1,8
 180 278 180 278 180 350 c 256,9,10
 180 422 180 422 173 484.5 c 128,-1,11
 166 547 166 547 151 604 c 128,-1,12
 136 661 136 661 113.5 714 c 128,-1,13
 91 767 91 767 60 820 c 1,14,-1
 143 820 l 1,15,16
 211 718 211 718 238 604 c 128,-1,17
 265 490 265 490 265 350 c 256,0,1
EndSplineSet
EndChar

StartChar: asterisk
Encoding: 42 42 11
Width: 480
Flags: W
LayerCount: 2
Fore
SplineSet
293 515 m 1,0,-1
 399 392 l 1,1,-1
 327 340 l 1,2,-1
 239 482 l 1,3,-1
 148 340 l 1,4,-1
 78 393 l 1,5,-1
 185 515 l 1,6,-1
 40 547 l 1,7,-1
 67 627 l 1,8,-1
 208 570 l 1,9,-1
 195 722 l 1,10,-1
 285 722 l 1,11,-1
 272 570 l 1,12,-1
 415 625 l 1,13,-1
 440 546 l 1,14,-1
 293 515 l 1,0,-1
EndSplineSet
EndChar

StartChar: plus
Encoding: 43 43 12
Width: 550
Flags: W
LayerCount: 2
Fore
SplineSet
315 275 m 1,0,-1
 315 118 l 1,1,-1
 235 118 l 1,2,-1
 235 275 l 1,3,-1
 84 275 l 1,4,-1
 84 350 l 1,5,-1
 235 350 l 1,6,-1
 235 508 l 1,7,-1
 315 508 l 1,8,-1
 315 350 l 1,9,-1
 465 350 l 1,10,-1
 465 275 l 1,11,-1
 315 275 l 1,0,-1
EndSplineSet
EndChar

StartChar: comma
Encoding: 44 44 13
Width: 230
Flags: W
LayerCount: 2
Fore
SplineSet
93 -140 m 1,0,-1
 25 -140 l 1,1,-1
 65 0 l 1,2,-1
 65 100 l 1,3,-1
 165 100 l 1,4,-1
 165 0 l 1,5,-1
 93 -140 l 1,0,-1
EndSplineSet
EndChar

StartChar: hyphen
Encoding: 45 45 14
Width: 495
Flags: W
LayerCount: 2
Fore
SplineSet
85 275 m 1,0,-1
 85 350 l 1,1,-1
 410 350 l 1,2,-1
 410 275 l 1,3,-1
 85 275 l 1,0,-1
EndSplineSet
EndChar

StartChar: period
Encoding: 46 46 15
Width: 230
Flags: W
LayerCount: 2
Fore
SplineSet
65 0 m 1,0,-1
 65 100 l 1,1,-1
 165 100 l 1,2,-1
 165 0 l 1,3,-1
 65 0 l 1,0,-1
EndSplineSet
EndChar

StartChar: slash
Encoding: 47 47 16
Width: 325
Flags: W
LayerCount: 2
Fore
SplineSet
84 -110 m 1,0,-1
 5 -110 l 1,1,-1
 241 810 l 1,2,-1
 320 810 l 1,3,-1
 84 -110 l 1,0,-1
EndSplineSet
Substitution2: "'numr' Numerators in Latin lookup 2 subtable" fraction
Substitution2: "'aalt' Access All Alternates in Latin lookup 0 subtable" fraction
EndChar

StartChar: zero
Encoding: 48 48 17
Width: 470
Flags: W
LayerCount: 2
Fore
SplineSet
328 353 m 0,0,1
 328 436 328 436 324.5 490 c 128,-1,2
 321 544 321 544 311 576 c 128,-1,3
 301 608 301 608 283 621 c 128,-1,4
 265 634 265 634 235 634 c 256,5,6
 205 634 205 634 187 621 c 128,-1,7
 169 608 169 608 159 576 c 128,-1,8
 149 544 149 544 145.5 490 c 128,-1,9
 142 436 142 436 142 353 c 0,10,11
 142 272 142 272 145.5 217.5 c 128,-1,12
 149 163 149 163 158.5 129 c 128,-1,13
 168 95 168 95 186.5 80.5 c 128,-1,14
 205 66 205 66 235 66 c 256,15,16
 265 66 265 66 283.5 80.5 c 128,-1,17
 302 95 302 95 311.5 129 c 128,-1,18
 321 163 321 163 324.5 217.5 c 128,-1,19
 328 272 328 272 328 353 c 0,0,1
413 358 m 0,20,21
 413 266 413 266 407 197.5 c 128,-1,22
 401 129 401 129 382 83.5 c 128,-1,23
 363 38 363 38 328 15.5 c 128,-1,24
 293 -7 293 -7 235 -7 c 256,25,26
 177 -7 177 -7 142 15.5 c 128,-1,27
 107 38 107 38 88 83.5 c 128,-1,28
 69 129 69 129 63 197.5 c 128,-1,29
 57 266 57 266 57 358 c 0,30,31
 57 446 57 446 63 511.5 c 128,-1,32
 69 577 69 577 88 620.5 c 128,-1,33
 107 664 107 664 142 685.5 c 128,-1,34
 177 707 177 707 235 707 c 0,35,36
 294 707 294 707 329 685.5 c 128,-1,37
 364 664 364 664 382.5 620.5 c 128,-1,38
 401 577 401 577 407 511.5 c 128,-1,39
 413 446 413 446 413 358 c 0,20,21
EndSplineSet
EndChar

StartChar: one
Encoding: 49 49 18
Width: 470
Flags: W
LayerCount: 2
Fore
SplineSet
90 0 m 1,0,-1
 90 75 l 1,1,-1
 211 75 l 1,2,-1
 211 621 l 1,3,-1
 80 569 l 1,4,-1
 80 650 l 1,5,-1
 201 700 l 1,6,-1
 296 700 l 1,7,-1
 296 75 l 1,8,-1
 395 75 l 1,9,-1
 395 0 l 1,10,-1
 90 0 l 1,0,-1
EndSplineSet
Substitution2: "'sups' Superscript in Latin lookup 5 subtable" onesuperior
Substitution2: "'numr' Numerators in Latin lookup 2 subtable" onesuperior
Substitution2: "'aalt' Access All Alternates in Latin lookup 0 subtable" onesuperior
EndChar

StartChar: two
Encoding: 50 50 19
Width: 470
Flags: W
LayerCount: 2
Fore
SplineSet
65 0 m 1,0,-1
 65 88 l 1,1,-1
 215 316 l 2,2,3
 237 350 237 350 251.5 370.5 c 128,-1,4
 266 391 266 391 274.5 411.5 c 128,-1,5
 283 432 283 432 286.5 458 c 128,-1,6
 290 484 290 484 290 529 c 0,7,8
 290 575 290 575 271 604.5 c 128,-1,9
 252 634 252 634 205 634 c 0,10,11
 173 634 173 634 139.5 628 c 128,-1,12
 106 622 106 622 83 617 c 1,13,-1
 83 690 l 1,14,15
 87 691 87 691 99 693.5 c 128,-1,16
 111 696 111 696 128 699 c 128,-1,17
 145 702 145 702 165 704.5 c 128,-1,18
 185 707 185 707 205 707 c 0,19,20
 294 707 294 707 334.5 660.5 c 128,-1,21
 375 614 375 614 375 520 c 0,22,23
 375 481 375 481 371 452.5 c 128,-1,24
 367 424 367 424 357.5 398.5 c 128,-1,25
 348 373 348 373 332.5 346.5 c 128,-1,26
 317 320 317 320 294 285 c 2,27,-1
 155 74 l 1,28,-1
 385 74 l 1,29,-1
 385 0 l 1,30,-1
 65 0 l 1,0,-1
EndSplineSet
Substitution2: "'sups' Superscript in Latin lookup 5 subtable" twosuperior
Substitution2: "'numr' Numerators in Latin lookup 2 subtable" twosuperior
Substitution2: "'aalt' Access All Alternates in Latin lookup 0 subtable" twosuperior
EndChar

StartChar: three
Encoding: 51 51 20
Width: 470
Flags: W
LayerCount: 2
Fore
SplineSet
373 198 m 0,0,1
 373 86 373 86 330.5 39.5 c 128,-1,2
 288 -7 288 -7 204 -7 c 0,3,4
 186 -7 186 -7 164.5 -4.5 c 128,-1,5
 143 -2 143 -2 123.5 1 c 128,-1,6
 104 4 104 4 90 6.5 c 128,-1,7
 76 9 76 9 73 10 c 1,8,-1
 73 85 l 1,9,10
 82 83 82 83 97.5 80.5 c 128,-1,11
 113 78 113 78 131 75.5 c 128,-1,12
 149 73 149 73 168 71 c 128,-1,13
 187 69 187 69 203 69 c 0,14,15
 241 69 241 69 264 99.5 c 128,-1,16
 287 130 287 130 287 188 c 0,17,18
 287 258 287 258 270.5 292.5 c 128,-1,19
 254 327 254 327 201 327 c 2,20,-1
 119 327 l 1,21,-1
 119 400 l 1,22,-1
 191 400 l 2,23,24
 221 400 221 400 238.5 413.5 c 128,-1,25
 256 427 256 427 264 446.5 c 128,-1,26
 272 466 272 466 274 487 c 128,-1,27
 276 508 276 508 276 523 c 0,28,29
 276 583 276 583 257.5 608.5 c 128,-1,30
 239 634 239 634 201 634 c 0,31,32
 168 634 168 634 134 628 c 128,-1,33
 100 622 100 622 78 617 c 1,34,-1
 78 690 l 1,35,36
 82 691 82 691 94.5 693.5 c 128,-1,37
 107 696 107 696 123.5 699 c 128,-1,38
 140 702 140 702 160 704.5 c 128,-1,39
 180 707 180 707 199 707 c 0,40,41
 238 707 238 707 268 698 c 128,-1,42
 298 689 298 689 318.5 666.5 c 128,-1,43
 339 644 339 644 350 607 c 128,-1,44
 361 570 361 570 361 514 c 0,45,46
 361 463 361 463 344 422.5 c 128,-1,47
 327 382 327 382 285 369 c 1,48,49
 334 362 334 362 353.5 317 c 128,-1,50
 373 272 373 272 373 198 c 0,0,1
EndSplineSet
Substitution2: "'sups' Superscript in Latin lookup 5 subtable" threesuperior
Substitution2: "'numr' Numerators in Latin lookup 2 subtable" threesuperior
Substitution2: "'aalt' Access All Alternates in Latin lookup 0 subtable" threesuperior
EndChar

StartChar: four
Encoding: 52 52 21
Width: 470
Flags: W
LayerCount: 2
Fore
SplineSet
352 156 m 1,0,-1
 352 0 l 1,1,-1
 267 0 l 1,2,-1
 267 156 l 1,3,-1
 69 156 l 1,4,-1
 69 242 l 1,5,-1
 168 700 l 1,6,-1
 249 700 l 1,7,-1
 154 229 l 1,8,-1
 267 229 l 1,9,-1
 274 457 l 1,10,-1
 352 457 l 1,11,-1
 352 229 l 1,12,-1
 422 229 l 1,13,-1
 422 156 l 1,14,-1
 352 156 l 1,0,-1
EndSplineSet
EndChar

StartChar: five
Encoding: 53 53 22
Width: 470
Flags: W
LayerCount: 2
Fore
SplineSet
180 627 m 1,0,-1
 180 421 l 1,1,-1
 200 421 l 2,2,3
 254 421 254 421 289 408.5 c 128,-1,4
 324 396 324 396 344 370.5 c 128,-1,5
 364 345 364 345 372 305.5 c 128,-1,6
 380 266 380 266 380 212 c 0,7,8
 380 149 380 149 369 107 c 128,-1,9
 358 65 358 65 336.5 39.5 c 128,-1,10
 315 14 315 14 283 3.5 c 128,-1,11
 251 -7 251 -7 210 -7 c 0,12,13
 172 -7 172 -7 140 -1 c 128,-1,14
 108 5 108 5 85 10 c 1,15,-1
 85 83 l 1,16,17
 99 80 99 80 135.5 73 c 128,-1,18
 172 66 172 66 214 66 c 0,19,20
 259 66 259 66 276.5 102 c 128,-1,21
 294 138 294 138 294 202 c 0,22,23
 294 245 294 245 289.5 273.5 c 128,-1,24
 285 302 285 302 274.5 318.5 c 128,-1,25
 264 335 264 335 247 341.5 c 128,-1,26
 230 348 230 348 205 348 c 2,27,-1
 95 348 l 1,28,-1
 95 700 l 1,29,-1
 360 700 l 1,30,-1
 360 627 l 1,31,-1
 180 627 l 1,0,-1
EndSplineSet
EndChar

StartChar: six
Encoding: 54 54 23
Width: 470
Flags: W
LayerCount: 2
Fore
SplineSet
411 220 m 0,0,1
 411 156 411 156 398 112.5 c 128,-1,2
 385 69 385 69 361.5 42.5 c 128,-1,3
 338 16 338 16 305.5 4.5 c 128,-1,4
 273 -7 273 -7 234 -7 c 0,5,6
 188 -7 188 -7 155.5 6.5 c 128,-1,7
 123 20 123 20 102.5 61.5 c 128,-1,8
 82 103 82 103 72.5 179 c 128,-1,9
 63 255 63 255 63 380 c 0,10,11
 63 483 63 483 78 547 c 128,-1,12
 93 611 93 611 120 646.5 c 128,-1,13
 147 682 147 682 185.5 694.5 c 128,-1,14
 224 707 224 707 271 707 c 0,15,16
 283 707 283 707 297 705.5 c 128,-1,17
 311 704 311 704 324.5 701.5 c 128,-1,18
 338 699 338 699 349.5 696.5 c 128,-1,19
 361 694 361 694 367 692 c 1,20,-1
 367 621 l 1,21,22
 347 626 347 626 320 631.5 c 128,-1,23
 293 637 293 637 261 637 c 0,24,25
 234 637 234 637 213.5 629.5 c 128,-1,26
 193 622 193 622 179 598 c 128,-1,27
 165 574 165 574 157.5 530 c 128,-1,28
 150 486 150 486 148 413 c 1,29,30
 165 424 165 424 190.5 434 c 128,-1,31
 216 444 216 444 254 444 c 0,32,33
 307 444 307 444 338 428.5 c 128,-1,34
 369 413 369 413 385 384 c 128,-1,35
 401 355 401 355 406 313.5 c 128,-1,36
 411 272 411 272 411 220 c 0,0,1
247 372 m 0,37,38
 209 372 209 372 183 361 c 128,-1,39
 157 350 157 350 148 345 c 1,40,41
 148 252 148 252 153.5 196.5 c 128,-1,42
 159 141 159 141 169.5 111.5 c 128,-1,43
 180 82 180 82 196 73.5 c 128,-1,44
 212 65 212 65 234 65 c 0,45,46
 282 65 282 65 304 102.5 c 128,-1,47
 326 140 326 140 326 211 c 0,48,49
 326 253 326 253 324 283.5 c 128,-1,50
 322 314 322 314 313.5 333.5 c 128,-1,51
 305 353 305 353 289.5 362.5 c 128,-1,52
 274 372 274 372 247 372 c 0,37,38
EndSplineSet
EndChar

StartChar: seven
Encoding: 55 55 24
Width: 470
Flags: W
LayerCount: 2
Fore
SplineSet
204 0 m 1,0,-1
 115 0 l 1,1,-1
 282 625 l 1,2,-1
 60 625 l 1,3,-1
 60 700 l 1,4,-1
 365 700 l 1,5,-1
 365 603 l 1,6,-1
 204 0 l 1,0,-1
EndSplineSet
EndChar

StartChar: eight
Encoding: 56 56 25
Width: 470
Flags: W
LayerCount: 2
Fore
SplineSet
338 188 m 0,0,1
 338 228 338 228 333.5 256 c 128,-1,2
 329 284 329 284 314.5 301.5 c 128,-1,3
 300 319 300 319 273 327 c 128,-1,4
 246 335 246 335 201 335 c 1,5,6
 181 324 181 324 167.5 312.5 c 128,-1,7
 154 301 154 301 146 284.5 c 128,-1,8
 138 268 138 268 135 245 c 128,-1,9
 132 222 132 222 132 188 c 0,10,11
 132 117 132 117 157.5 91 c 128,-1,12
 183 65 183 65 235 65 c 256,13,14
 287 65 287 65 312.5 91 c 128,-1,15
 338 117 338 117 338 188 c 0,0,1
326 523 m 0,16,17
 326 579 326 579 306 607 c 128,-1,18
 286 635 286 635 235 635 c 256,19,20
 184 635 184 635 164 607 c 128,-1,21
 144 579 144 579 144 523 c 0,22,23
 144 489 144 489 149 464.5 c 128,-1,24
 154 440 154 440 167.5 425 c 128,-1,25
 181 410 181 410 204.5 403 c 128,-1,26
 228 396 228 396 264 396 c 1,27,28
 300 411 300 411 313 445.5 c 128,-1,29
 326 480 326 480 326 523 c 0,16,17
423 198 m 0,30,31
 423 93 423 93 379.5 43 c 128,-1,32
 336 -7 336 -7 235 -7 c 256,33,34
 134 -7 134 -7 90.5 43 c 128,-1,35
 47 93 47 93 47 198 c 0,36,37
 47 239 47 239 54.5 265.5 c 128,-1,38
 62 292 62 292 74.5 309.5 c 128,-1,39
 87 327 87 327 102.5 338.5 c 128,-1,40
 118 350 118 350 134 360 c 1,41,42
 98 377 98 377 79.5 420 c 128,-1,43
 61 463 61 463 61 514 c 0,44,45
 61 570 61 570 73.5 607 c 128,-1,46
 86 644 86 644 109 666.5 c 128,-1,47
 132 689 132 689 164 698 c 128,-1,48
 196 707 196 707 235 707 c 256,49,50
 274 707 274 707 306 698 c 128,-1,51
 338 689 338 689 361 666.5 c 128,-1,52
 384 644 384 644 396.5 607 c 128,-1,53
 409 570 409 570 409 514 c 0,54,55
 409 489 409 489 405.5 468.5 c 128,-1,56
 402 448 402 448 393 431 c 128,-1,57
 384 414 384 414 369 399.5 c 128,-1,58
 354 385 354 385 331 372 c 1,59,60
 380 361 380 361 401.5 316.5 c 128,-1,61
 423 272 423 272 423 198 c 0,30,31
EndSplineSet
EndChar

StartChar: nine
Encoding: 57 57 26
Width: 470
Flags: W
LayerCount: 2
Fore
SplineSet
56 497 m 256,0,1
 56 555 56 555 69.5 595 c 128,-1,2
 83 635 83 635 107 660 c 128,-1,3
 131 685 131 685 163 696 c 128,-1,4
 195 707 195 707 232 707 c 0,5,6
 281 707 281 707 314 692 c 128,-1,7
 347 677 347 677 367 637.5 c 128,-1,8
 387 598 387 598 395.5 528.5 c 128,-1,9
 404 459 404 459 404 350 c 0,10,11
 404 229 404 229 391.5 158.5 c 128,-1,12
 379 88 379 88 354 51 c 128,-1,13
 329 14 329 14 292 3.5 c 128,-1,14
 255 -7 255 -7 206 -7 c 0,15,16
 194 -7 194 -7 180 -5.5 c 128,-1,17
 166 -4 166 -4 152.5 -1.5 c 128,-1,18
 139 1 139 1 127.5 3.5 c 128,-1,19
 116 6 116 6 110 8 c 1,20,-1
 110 81 l 1,21,22
 130 76 130 76 157 70.5 c 128,-1,23
 184 65 184 65 216 65 c 0,24,25
 242 65 242 65 261 72.5 c 128,-1,26
 280 80 280 80 292 103 c 128,-1,27
 304 126 304 126 310.5 170 c 128,-1,28
 317 214 317 214 318 286 c 1,29,30
 302 276 302 276 276 266 c 128,-1,31
 250 256 250 256 213 256 c 0,32,33
 162 256 162 256 131 271.5 c 128,-1,34
 100 287 100 287 83.5 318 c 128,-1,35
 67 349 67 349 61.5 394 c 128,-1,36
 56 439 56 439 56 497 c 256,0,1
220 328 m 0,37,38
 258 328 258 328 283.5 339 c 128,-1,39
 309 350 309 350 319 355 c 1,40,41
 319 448 319 448 313.5 503.5 c 128,-1,42
 308 559 308 559 297.5 588.5 c 128,-1,43
 287 618 287 618 270 626.5 c 128,-1,44
 253 635 253 635 229 635 c 0,45,46
 183 635 183 635 162 597.5 c 128,-1,47
 141 560 141 560 141 489 c 0,48,49
 141 447 141 447 143 416.5 c 128,-1,50
 145 386 145 386 153.5 366.5 c 128,-1,51
 162 347 162 347 177.5 337.5 c 128,-1,52
 193 328 193 328 220 328 c 0,37,38
EndSplineSet
EndChar

StartChar: colon
Encoding: 58 58 27
Width: 230
Flags: W
LayerCount: 2
Fore
SplineSet
65 0 m 1,0,-1
 65 100 l 1,1,-1
 165 100 l 1,2,-1
 165 0 l 1,3,-1
 65 0 l 1,0,-1
65 400 m 1,4,-1
 65 500 l 1,5,-1
 165 500 l 1,6,-1
 165 400 l 1,7,-1
 65 400 l 1,4,-1
EndSplineSet
EndChar

StartChar: semicolon
Encoding: 59 59 28
Width: 230
Flags: W
LayerCount: 2
Fore
SplineSet
93 -140 m 1,0,-1
 25 -140 l 1,1,-1
 65 0 l 1,2,-1
 65 100 l 1,3,-1
 165 100 l 1,4,-1
 165 0 l 1,5,-1
 93 -140 l 1,0,-1
65 400 m 1,6,-1
 65 500 l 1,7,-1
 165 500 l 1,8,-1
 165 400 l 1,9,-1
 65 400 l 1,6,-1
EndSplineSet
EndChar

StartChar: less
Encoding: 60 60 29
Width: 550
Flags: W
LayerCount: 2
Fore
SplineSet
85 280 m 1,0,-1
 85 385 l 1,1,-1
 465 564 l 1,2,-1
 465 472 l 1,3,-1
 155 336 l 1,4,-1
 465 199 l 1,5,-1
 465 105 l 1,6,-1
 85 280 l 1,0,-1
EndSplineSet
EndChar

StartChar: equal
Encoding: 61 61 30
Width: 550
Flags: W
LayerCount: 2
Fore
SplineSet
85 175 m 1,0,-1
 85 250 l 1,1,-1
 465 250 l 1,2,-1
 465 175 l 1,3,-1
 85 175 l 1,0,-1
85 375 m 1,4,-1
 85 450 l 1,5,-1
 465 450 l 1,6,-1
 465 375 l 1,7,-1
 85 375 l 1,4,-1
EndSplineSet
EndChar

StartChar: greater
Encoding: 62 62 31
Width: 550
Flags: W
LayerCount: 2
Fore
SplineSet
85 105 m 1,0,-1
 85 199 l 1,1,-1
 401 336 l 1,2,-1
 85 472 l 1,3,-1
 85 564 l 1,4,-1
 465 385 l 1,5,-1
 465 280 l 1,6,-1
 85 105 l 1,0,-1
EndSplineSet
EndChar

StartChar: question
Encoding: 63 63 32
Width: 360
Flags: W
LayerCount: 2
Fore
SplineSet
104 0 m 1,0,-1
 104 100 l 1,1,-1
 204 100 l 1,2,-1
 204 0 l 1,3,-1
 104 0 l 1,0,-1
325 540 m 0,4,5
 325 511 325 511 322.5 491.5 c 128,-1,6
 320 472 320 472 312.5 454.5 c 128,-1,7
 305 437 305 437 290 417.5 c 128,-1,8
 275 398 275 398 250 368 c 2,9,-1
 196 304 l 1,10,-1
 196 208 l 1,11,-1
 111 208 l 1,12,-1
 111 329 l 1,13,-1
 171 400 l 2,14,15
 195 429 195 429 209 446.5 c 128,-1,16
 223 464 223 464 230 479 c 128,-1,17
 237 494 237 494 238.5 509.5 c 128,-1,18
 240 525 240 525 240 549 c 0,19,20
 240 598 240 598 217.5 616 c 128,-1,21
 195 634 195 634 157 634 c 0,22,23
 126 634 126 634 92 628.5 c 128,-1,24
 58 623 58 623 35 618 c 1,25,-1
 35 691 l 1,26,27
 45 693 45 693 58.5 696 c 128,-1,28
 72 699 72 699 87 701.5 c 128,-1,29
 102 704 102 704 118 705.5 c 128,-1,30
 134 707 134 707 147 707 c 0,31,32
 188 707 188 707 221 700.5 c 128,-1,33
 254 694 254 694 277 676 c 128,-1,34
 300 658 300 658 312.5 625.5 c 128,-1,35
 325 593 325 593 325 540 c 0,4,5
EndSplineSet
EndChar

StartChar: at
Encoding: 64 64 33
Width: 815
Flags: W
LayerCount: 2
Fore
SplineSet
472 472 m 1,0,1
 466 474 466 474 456 475.5 c 128,-1,2
 446 477 446 477 435 477 c 0,3,4
 412 477 412 477 391 472 c 128,-1,5
 370 467 370 467 354 452 c 128,-1,6
 338 437 338 437 328.5 410 c 128,-1,7
 319 383 319 383 319 339 c 0,8,9
 319 299 319 299 324.5 274 c 128,-1,10
 330 249 330 249 339.5 236 c 128,-1,11
 349 223 349 223 363 218.5 c 128,-1,12
 377 214 377 214 394 214 c 0,13,14
 416 214 416 214 431 220.5 c 128,-1,15
 446 227 446 227 455 236.5 c 128,-1,16
 464 246 464 246 468 258 c 128,-1,17
 472 270 472 270 472 281 c 2,18,-1
 472 472 l 1,0,1
730 401 m 0,19,20
 730 344 730 344 725 292.5 c 128,-1,21
 720 241 720 241 705 201.5 c 128,-1,22
 690 162 690 162 661.5 139 c 128,-1,23
 633 116 633 116 585 116 c 0,24,25
 573 116 573 116 558 120 c 128,-1,26
 543 124 543 124 529.5 132.5 c 128,-1,27
 516 141 516 141 505.5 155.5 c 128,-1,28
 495 170 495 170 491 191 c 1,29,30
 477 171 477 171 446 157.5 c 128,-1,31
 415 144 415 144 373 144 c 0,32,33
 349 144 349 144 325.5 151 c 128,-1,34
 302 158 302 158 282.5 178.5 c 128,-1,35
 263 199 263 199 251 236.5 c 128,-1,36
 239 274 239 274 239 335 c 0,37,38
 239 400 239 400 255.5 440.5 c 128,-1,39
 272 481 272 481 300 504 c 128,-1,40
 328 527 328 527 366.5 535.5 c 128,-1,41
 405 544 405 544 448 544 c 0,42,43
 471 544 471 544 499 539.5 c 128,-1,44
 527 535 527 535 550 530 c 1,45,-1
 550 221 l 2,46,47
 550 206 550 206 559.5 193.5 c 128,-1,48
 569 181 569 181 587 181 c 0,49,50
 607 181 607 181 618.5 196.5 c 128,-1,51
 630 212 630 212 636.5 240.5 c 128,-1,52
 643 269 643 269 645 309.5 c 128,-1,53
 647 350 647 350 647 401 c 0,54,55
 647 475 647 475 638.5 521 c 128,-1,56
 630 567 630 567 604.5 592.5 c 128,-1,57
 579 618 579 618 532 627 c 128,-1,58
 485 636 485 636 408 636 c 0,59,60
 333 636 333 636 286 622.5 c 128,-1,61
 239 609 239 609 213 576 c 128,-1,62
 187 543 187 543 177.5 487 c 128,-1,63
 168 431 168 431 168 345 c 0,64,65
 168 268 168 268 176 214.5 c 128,-1,66
 184 161 184 161 209 127.5 c 128,-1,67
 234 94 234 94 280.5 79 c 128,-1,68
 327 64 327 64 404 64 c 0,69,70
 422 64 422 64 445 65.5 c 128,-1,71
 468 67 468 67 490.5 69 c 128,-1,72
 513 71 513 71 532 73 c 128,-1,73
 551 75 551 75 561 76 c 1,74,-1
 561 5 l 1,75,76
 548 3 548 3 528.5 1 c 128,-1,77
 509 -1 509 -1 487.5 -3 c 128,-1,78
 466 -5 466 -5 444 -6 c 128,-1,79
 422 -7 422 -7 404 -7 c 0,80,81
 308 -7 308 -7 246 12 c 128,-1,82
 184 31 184 31 148 73 c 128,-1,83
 112 115 112 115 98.5 182 c 128,-1,84
 85 249 85 249 85 345 c 0,85,86
 85 451 85 451 102 520.5 c 128,-1,87
 119 590 119 590 157.5 631.5 c 128,-1,88
 196 673 196 673 257.5 690 c 128,-1,89
 319 707 319 707 408 707 c 0,90,91
 496 707 496 707 557.5 695 c 128,-1,92
 619 683 619 683 657 649.5 c 128,-1,93
 695 616 695 616 712.5 556.5 c 128,-1,94
 730 497 730 497 730 401 c 0,19,20
EndSplineSet
EndChar

StartChar: A
Encoding: 65 65 34
Width: 500
Flags: W
LayerCount: 2
Fore
SplineSet
250 634 m 1,0,-1
 169 252 l 1,1,-1
 332 252 l 1,2,-1
 250 634 l 1,0,-1
386 0 m 1,3,-1
 348 177 l 1,4,-1
 153 177 l 1,5,-1
 114 0 l 1,6,-1
 25 0 l 1,7,-1
 194 700 l 1,8,-1
 309 700 l 1,9,-1
 475 0 l 1,10,-1
 386 0 l 1,3,-1
EndSplineSet
Substitution2: "'ordn' Ordinals in Latin lookup 4 subtable" ordfeminine
Substitution2: "'aalt' Access All Alternates in Latin lookup 0 subtable" ordfeminine
Position2: "'cpsp' Capital Spacing in Latin lookup 0 subtable" dx=5 dy=0 dh=10 dv=0
EndChar

StartChar: B
Encoding: 66 66 35
Width: 512
Flags: W
LayerCount: 2
Fore
SplineSet
363 204 m 0,0,1
 363 270 363 270 341.5 301 c 128,-1,2
 320 332 320 332 265 332 c 2,3,-1
 172 332 l 1,4,-1
 172 71 l 1,5,6
 186 70 186 70 202 69 c 0,7,8
 216 68 216 68 232 67 c 128,-1,9
 248 66 248 66 264 66 c 0,10,11
 284 66 284 66 302 71 c 128,-1,12
 320 76 320 76 333.5 91 c 128,-1,13
 347 106 347 106 355 133 c 128,-1,14
 363 160 363 160 363 204 c 0,0,1
348 517 m 0,15,16
 348 579 348 579 329.5 607 c 128,-1,17
 311 635 311 635 255 635 c 0,18,19
 219 635 219 635 196 632 c 0,20,21
 183 630 183 630 172 629 c 1,22,-1
 172 404 l 1,23,-1
 255 404 l 2,24,25
 270 404 270 404 286.5 407 c 128,-1,26
 303 410 303 410 316.5 421 c 128,-1,27
 330 432 330 432 339 454.5 c 128,-1,28
 348 477 348 477 348 517 c 0,15,16
452 211 m 0,29,30
 452 148 452 148 438 106.5 c 128,-1,31
 424 65 424 65 398.5 39.5 c 128,-1,32
 373 14 373 14 336.5 3.5 c 128,-1,33
 300 -7 300 -7 255 -7 c 0,34,35
 223 -7 223 -7 193 -6.5 c 128,-1,36
 163 -6 163 -6 139 -4 c 0,37,38
 111 -2 111 -2 85 0 c 1,39,-1
 85 700 l 1,40,41
 113 702 113 702 140 704 c 0,42,43
 163 706 163 706 191 706.5 c 128,-1,44
 219 707 219 707 243 707 c 0,45,46
 288 707 288 707 323.5 697.5 c 128,-1,47
 359 688 359 688 384 666 c 128,-1,48
 409 644 409 644 422 609 c 128,-1,49
 435 574 435 574 435 524 c 0,50,51
 435 461 435 461 410 423.5 c 128,-1,52
 385 386 385 386 355 373 c 1,53,54
 370 368 370 368 387 357.5 c 128,-1,55
 404 347 404 347 418.5 328.5 c 128,-1,56
 433 310 433 310 442.5 281.5 c 128,-1,57
 452 253 452 253 452 211 c 0,29,30
EndSplineSet
Position2: "'cpsp' Capital Spacing in Latin lookup 0 subtable" dx=5 dy=0 dh=10 dv=0
EndChar

StartChar: C
Encoding: 67 67 36
Width: 423
Flags: W
LayerCount: 2
Fore
SplineSet
378 10 m 1,0,1
 370 8 370 8 356 5 c 128,-1,2
 342 2 342 2 326.5 -0.5 c 128,-1,3
 311 -3 311 -3 295 -5 c 128,-1,4
 279 -7 279 -7 267 -7 c 0,5,6
 213 -7 213 -7 175 8.5 c 128,-1,7
 137 24 137 24 112.5 65 c 128,-1,8
 88 106 88 106 76.5 177.5 c 128,-1,9
 65 249 65 249 65 361 c 0,10,11
 65 472 65 472 78 539.5 c 128,-1,12
 91 607 91 607 117.5 644.5 c 128,-1,13
 144 682 144 682 184 694.5 c 128,-1,14
 224 707 224 707 279 707 c 0,15,16
 303 707 303 707 330.5 702.5 c 128,-1,17
 358 698 358 698 378 693 c 1,18,-1
 378 619 l 1,19,20
 353 625 353 625 321.5 628.5 c 128,-1,21
 290 632 290 632 261 632 c 0,22,23
 234 632 234 632 213.5 622.5 c 128,-1,24
 193 613 193 613 180 583.5 c 128,-1,25
 167 554 167 554 160.5 499.5 c 128,-1,26
 154 445 154 445 154 354 c 0,27,28
 154 260 154 260 161 203.5 c 128,-1,29
 168 147 168 147 181.5 117 c 128,-1,30
 195 87 195 87 215 77.5 c 128,-1,31
 235 68 235 68 262 68 c 0,32,33
 293 68 293 68 326 73 c 128,-1,34
 359 78 359 78 378 83 c 1,35,-1
 378 10 l 1,0,1
EndSplineSet
Position2: "'cpsp' Capital Spacing in Latin lookup 0 subtable" dx=5 dy=0 dh=10 dv=0
EndChar

StartChar: D
Encoding: 68 68 37
Width: 526
Flags: W
LayerCount: 2
Fore
SplineSet
372 354 m 0,0,1
 372 444 372 444 364.5 499 c 128,-1,2
 357 554 357 554 343 584 c 128,-1,3
 329 614 329 614 310.5 624 c 128,-1,4
 292 634 292 634 269 634 c 0,5,6
 255 634 255 634 238.5 633.5 c 128,-1,7
 222 633 222 633 207 632 c 0,8,9
 189 631 189 631 172 630 c 1,10,-1
 172 70 l 1,11,12
 187 69 187 69 204 68 c 0,13,14
 218 67 218 67 235 66.5 c 128,-1,15
 252 66 252 66 268 66 c 0,16,17
 291 66 291 66 310.5 80 c 128,-1,18
 330 94 330 94 343.5 127.5 c 128,-1,19
 357 161 357 161 364.5 216.5 c 128,-1,20
 372 272 372 272 372 354 c 0,0,1
461 361 m 0,21,22
 461 249 461 249 448.5 177.5 c 128,-1,23
 436 106 436 106 410.5 65 c 128,-1,24
 385 24 385 24 347 8.5 c 128,-1,25
 309 -7 309 -7 259 -7 c 0,26,27
 230 -7 230 -7 199.5 -6.5 c 128,-1,28
 169 -6 169 -6 143 -4 c 0,29,30
 113 -2 113 -2 85 0 c 1,31,-1
 85 700 l 1,32,33
 112 702 112 702 140 704 c 0,34,35
 164 706 164 706 192.5 706.5 c 128,-1,36
 221 707 221 707 247 707 c 0,37,38
 300 707 300 707 340 694.5 c 128,-1,39
 380 682 380 682 407 644.5 c 128,-1,40
 434 607 434 607 447.5 539.5 c 128,-1,41
 461 472 461 472 461 361 c 0,21,22
EndSplineSet
Position2: "'cpsp' Capital Spacing in Latin lookup 0 subtable" dx=5 dy=0 dh=10 dv=0
EndChar

StartChar: E
Encoding: 69 69 38
Width: 473
Flags: W
LayerCount: 2
Fore
SplineSet
85 0 m 1,0,-1
 85 700 l 1,1,-1
 413 700 l 1,2,-1
 413 627 l 1,3,-1
 172 627 l 1,4,-1
 172 398 l 1,5,-1
 388 398 l 1,6,-1
 388 325 l 1,7,-1
 172 325 l 1,8,-1
 172 73 l 1,9,-1
 413 73 l 1,10,-1
 413 0 l 1,11,-1
 85 0 l 1,0,-1
EndSplineSet
Position2: "'cpsp' Capital Spacing in Latin lookup 0 subtable" dx=5 dy=0 dh=10 dv=0
EndChar

StartChar: F
Encoding: 70 70 39
Width: 458
Flags: W
LayerCount: 2
Fore
SplineSet
172 627 m 1,0,-1
 172 388 l 1,1,-1
 388 388 l 1,2,-1
 388 315 l 1,3,-1
 172 315 l 1,4,-1
 172 0 l 1,5,-1
 85 0 l 1,6,-1
 85 700 l 1,7,-1
 413 700 l 1,8,-1
 413 627 l 1,9,-1
 172 627 l 1,0,-1
EndSplineSet
Position2: "'cpsp' Capital Spacing in Latin lookup 0 subtable" dx=5 dy=0 dh=10 dv=0
EndChar

StartChar: G
Encoding: 71 71 40
Width: 500
Flags: W
LayerCount: 2
Fore
SplineSet
430 10 m 1,0,1
 390 2 390 2 352 -2.5 c 128,-1,2
 314 -7 314 -7 273 -7 c 0,3,4
 216 -7 216 -7 176 8.5 c 128,-1,5
 136 24 136 24 111.5 65 c 128,-1,6
 87 106 87 106 76 177.5 c 128,-1,7
 65 249 65 249 65 361 c 0,8,9
 65 472 65 472 79 539.5 c 128,-1,10
 93 607 93 607 121.5 644.5 c 128,-1,11
 150 682 150 682 194 694.5 c 128,-1,12
 238 707 238 707 297 707 c 0,13,14
 323 707 323 707 356.5 702.5 c 128,-1,15
 390 698 390 698 409 693 c 1,16,-1
 409 621 l 1,17,18
 377 627 377 627 344 630.5 c 128,-1,19
 311 634 311 634 279 634 c 256,20,21
 247 634 247 634 223.5 624.5 c 128,-1,22
 200 615 200 615 184.5 585 c 128,-1,23
 169 555 169 555 161.5 500 c 128,-1,24
 154 445 154 445 154 354 c 0,25,26
 154 260 154 260 160.5 203 c 128,-1,27
 167 146 167 146 181 115.5 c 128,-1,28
 195 85 195 85 216.5 75.5 c 128,-1,29
 238 66 238 66 268 66 c 0,30,31
 285 66 285 66 306 68 c 128,-1,32
 327 70 327 70 347 73 c 1,33,-1
 347 295 l 1,34,-1
 258 295 l 1,35,-1
 258 368 l 1,36,-1
 430 368 l 1,37,-1
 430 10 l 1,0,1
EndSplineSet
Position2: "'cpsp' Capital Spacing in Latin lookup 0 subtable" dx=5 dy=0 dh=10 dv=0
EndChar

StartChar: H
Encoding: 72 72 41
Width: 550
Flags: W
LayerCount: 2
Fore
SplineSet
378 0 m 1,0,-1
 378 322 l 1,1,-1
 172 322 l 1,2,-1
 172 0 l 1,3,-1
 85 0 l 1,4,-1
 85 700 l 1,5,-1
 172 700 l 1,6,-1
 172 396 l 1,7,-1
 378 396 l 1,8,-1
 378 700 l 1,9,-1
 465 700 l 1,10,-1
 465 0 l 1,11,-1
 378 0 l 1,0,-1
EndSplineSet
Position2: "'cpsp' Capital Spacing in Latin lookup 0 subtable" dx=5 dy=0 dh=10 dv=0
EndChar

StartChar: I
Encoding: 73 73 42
Width: 317
Flags: W
LayerCount: 2
Fore
SplineSet
45 0 m 1,0,-1
 45 73 l 1,1,-1
 115 73 l 1,2,-1
 115 627 l 1,3,-1
 45 627 l 1,4,-1
 45 700 l 1,5,-1
 272 700 l 1,6,-1
 272 627 l 1,7,-1
 202 627 l 1,8,-1
 202 73 l 1,9,-1
 272 73 l 1,10,-1
 272 0 l 1,11,-1
 45 0 l 1,0,-1
EndSplineSet
Position2: "'cpsp' Capital Spacing in Latin lookup 0 subtable" dx=5 dy=0 dh=10 dv=0
EndChar

StartChar: J
Encoding: 74 74 43
Width: 400
Flags: W
LayerCount: 2
Fore
SplineSet
320 251 m 1,0,1
 320 170 320 170 310 119.5 c 128,-1,2
 300 69 300 69 278.5 41 c 128,-1,3
 257 13 257 13 223.5 3 c 128,-1,4
 190 -7 190 -7 142 -7 c 0,5,6
 133 -7 133 -7 120 -6 c 128,-1,7
 107 -5 107 -5 92 -3.5 c 128,-1,8
 77 -2 77 -2 62 -0.5 c 128,-1,9
 47 1 47 1 35 3 c 1,10,-1
 35 77 l 1,11,12
 46 75 46 75 61 73.5 c 128,-1,13
 76 72 76 72 90.5 70.5 c 128,-1,14
 105 69 105 69 117.5 68.5 c 128,-1,15
 130 68 130 68 136 68 c 0,16,17
 163 68 163 68 181.5 74 c 128,-1,18
 200 80 200 80 211.5 98.5 c 128,-1,19
 223 117 223 117 228 152 c 128,-1,20
 233 187 233 187 233 244 c 2,21,-1
 233 627 l 1,22,-1
 72 627 l 1,23,-1
 72 700 l 1,24,-1
 320 700 l 1,25,-1
 320 251 l 1,26,-1
 320 251 l 1,0,1
EndSplineSet
Position2: "'cpsp' Capital Spacing in Latin lookup 0 subtable" dx=5 dy=0 dh=10 dv=0
EndChar

StartChar: K
Encoding: 75 75 44
Width: 492
Flags: W
LayerCount: 2
Fore
SplineSet
364 0 m 1,0,-1
 208 321 l 1,1,-1
 172 261 l 1,2,-1
 172 0 l 1,3,-1
 85 0 l 1,4,-1
 85 700 l 1,5,-1
 172 700 l 1,6,-1
 172 393 l 1,7,-1
 359 700 l 1,8,-1
 452 700 l 1,9,-1
 262 394 l 1,10,-1
 462 0 l 1,11,-1
 364 0 l 1,0,-1
EndSplineSet
Position2: "'cpsp' Capital Spacing in Latin lookup 0 subtable" dx=5 dy=0 dh=10 dv=0
EndChar

StartChar: L
Encoding: 76 76 45
Width: 410
Flags: W
LayerCount: 2
Fore
SplineSet
85 0 m 1,0,-1
 85 700 l 1,1,-1
 172 700 l 1,2,-1
 172 76 l 1,3,-1
 395 76 l 1,4,-1
 395 0 l 1,5,-1
 85 0 l 1,0,-1
EndSplineSet
Position2: "'cpsp' Capital Spacing in Latin lookup 0 subtable" dx=5 dy=0 dh=10 dv=0
EndChar

StartChar: M
Encoding: 77 77 46
Width: 630
Flags: W
LayerCount: 2
Fore
SplineSet
462 0 m 1,0,-1
 462 628 l 1,1,-1
 355 235 l 1,2,-1
 272 235 l 1,3,-1
 165 628 l 1,4,-1
 165 0 l 1,5,-1
 85 0 l 1,6,-1
 85 700 l 1,7,-1
 226 700 l 1,8,-1
 317 342 l 1,9,-1
 407 700 l 1,10,-1
 545 700 l 1,11,-1
 545 0 l 1,12,-1
 462 0 l 1,0,-1
EndSplineSet
Position2: "'cpsp' Capital Spacing in Latin lookup 0 subtable" dx=5 dy=0 dh=10 dv=0
EndChar

StartChar: N
Encoding: 78 78 47
Width: 547
Flags: W
LayerCount: 2
Fore
SplineSet
319 0 m 1,0,-1
 166 626 l 1,1,-1
 166 0 l 1,2,-1
 85 0 l 1,3,-1
 85 700 l 1,4,-1
 227 700 l 1,5,-1
 381 74 l 1,6,-1
 381 700 l 1,7,-1
 462 700 l 1,8,-1
 462 0 l 1,9,-1
 319 0 l 1,0,-1
EndSplineSet
Position2: "'cpsp' Capital Spacing in Latin lookup 0 subtable" dx=5 dy=0 dh=10 dv=0
EndChar

StartChar: O
Encoding: 79 79 48
Width: 548
Flags: W
LayerCount: 2
Fore
SplineSet
394 353 m 0,0,1
 394 436 394 436 388 490 c 128,-1,2
 382 544 382 544 368 576 c 128,-1,3
 354 608 354 608 331 621 c 128,-1,4
 308 634 308 634 274 634 c 256,5,6
 240 634 240 634 217 621 c 128,-1,7
 194 608 194 608 180 576 c 128,-1,8
 166 544 166 544 160 490 c 128,-1,9
 154 436 154 436 154 353 c 0,10,11
 154 272 154 272 160 217.5 c 128,-1,12
 166 163 166 163 180 129 c 128,-1,13
 194 95 194 95 217 80.5 c 128,-1,14
 240 66 240 66 274 66 c 256,15,16
 308 66 308 66 331 80.5 c 128,-1,17
 354 95 354 95 368 129 c 128,-1,18
 382 163 382 163 388 217.5 c 128,-1,19
 394 272 394 272 394 353 c 0,0,1
483 358 m 0,20,21
 483 266 483 266 473.5 197.5 c 128,-1,22
 464 129 464 129 440.5 83.5 c 128,-1,23
 417 38 417 38 376.5 15.5 c 128,-1,24
 336 -7 336 -7 274 -7 c 256,25,26
 212 -7 212 -7 171.5 15.5 c 128,-1,27
 131 38 131 38 107.5 83.5 c 128,-1,28
 84 129 84 129 74.5 197.5 c 128,-1,29
 65 266 65 266 65 358 c 0,30,31
 65 446 65 446 74.5 511.5 c 128,-1,32
 84 577 84 577 107.5 620.5 c 128,-1,33
 131 664 131 664 171.5 685.5 c 128,-1,34
 212 707 212 707 274 707 c 256,35,36
 336 707 336 707 376.5 685.5 c 128,-1,37
 417 664 417 664 440.5 620.5 c 128,-1,38
 464 577 464 577 473.5 511.5 c 128,-1,39
 483 446 483 446 483 358 c 0,20,21
EndSplineSet
Substitution2: "'ordn' Ordinals in Latin lookup 4 subtable" ordmasculine
Substitution2: "'aalt' Access All Alternates in Latin lookup 0 subtable" ordmasculine
Position2: "'cpsp' Capital Spacing in Latin lookup 0 subtable" dx=5 dy=0 dh=10 dv=0
EndChar

StartChar: P
Encoding: 80 80 49
Width: 500
Flags: W
LayerCount: 2
Fore
SplineSet
361 483 m 0,0,1
 361 558 361 558 340.5 596.5 c 128,-1,2
 320 635 320 635 266 635 c 0,3,4
 224 635 224 635 198 632 c 0,5,6
 183 630 183 630 172 629 c 1,7,-1
 172 337 l 1,8,-1
 266 337 l 2,9,10
 287 337 287 337 304.5 344.5 c 128,-1,11
 322 352 322 352 334.5 369 c 128,-1,12
 347 386 347 386 354 414 c 128,-1,13
 361 442 361 442 361 483 c 0,0,1
450 490 m 0,14,15
 450 433 450 433 439.5 390.5 c 128,-1,16
 429 348 429 348 406 320 c 128,-1,17
 383 292 383 292 346 278 c 128,-1,18
 309 264 309 264 256 264 c 2,19,-1
 172 264 l 1,20,-1
 172 0 l 1,21,-1
 85 0 l 1,22,-1
 85 700 l 1,23,24
 110 702 110 702 138 704 c 0,25,26
 162 706 162 706 192.5 706.5 c 128,-1,27
 223 707 223 707 254 707 c 0,28,29
 311 707 311 707 349 690.5 c 128,-1,30
 387 674 387 674 409.5 644.5 c 128,-1,31
 432 615 432 615 441 575.5 c 128,-1,32
 450 536 450 536 450 490 c 0,14,15
EndSplineSet
Position2: "'cpsp' Capital Spacing in Latin lookup 0 subtable" dx=5 dy=0 dh=10 dv=0
EndChar

StartChar: Q
Encoding: 81 81 50
Width: 548
Flags: W
LayerCount: 2
Fore
SplineSet
274 -7 m 1,0,1
 212 -7 212 -7 171.5 15.5 c 128,-1,2
 131 38 131 38 107.5 83.5 c 128,-1,3
 84 129 84 129 74.5 197.5 c 128,-1,4
 65 266 65 266 65 358 c 0,5,6
 65 446 65 446 74.5 511.5 c 128,-1,7
 84 577 84 577 107.5 620.5 c 128,-1,8
 131 664 131 664 171.5 685.5 c 128,-1,9
 212 707 212 707 274 707 c 256,10,11
 336 707 336 707 376.5 685.5 c 128,-1,12
 417 664 417 664 440.5 620.5 c 128,-1,13
 464 577 464 577 473.5 511.5 c 128,-1,14
 483 446 483 446 483 358 c 0,15,16
 483 232 483 232 462 146.5 c 128,-1,17
 441 61 441 61 384 23 c 1,18,-1
 503 0 l 1,19,-1
 503 -84 l 1,20,-1
 274 -7 l 1,0,1
394 353 m 0,21,22
 394 436 394 436 388 490 c 128,-1,23
 382 544 382 544 368 576 c 128,-1,24
 354 608 354 608 331 621 c 128,-1,25
 308 634 308 634 274 634 c 256,26,27
 240 634 240 634 217 621 c 128,-1,28
 194 608 194 608 180 576 c 128,-1,29
 166 544 166 544 160 490 c 128,-1,30
 154 436 154 436 154 353 c 0,31,32
 154 272 154 272 160 217.5 c 128,-1,33
 166 163 166 163 180 129 c 128,-1,34
 194 95 194 95 217 80.5 c 128,-1,35
 240 66 240 66 274 66 c 256,36,37
 308 66 308 66 331 80.5 c 128,-1,38
 354 95 354 95 368 129 c 128,-1,39
 382 163 382 163 388 217.5 c 128,-1,40
 394 272 394 272 394 353 c 0,21,22
EndSplineSet
Position2: "'cpsp' Capital Spacing in Latin lookup 0 subtable" dx=5 dy=0 dh=10 dv=0
EndChar

StartChar: R
Encoding: 82 82 51
Width: 515
Flags: W
LayerCount: 2
Fore
SplineSet
448 503 m 0,0,1
 448 425 448 425 425 375 c 128,-1,2
 402 325 402 325 348 304 c 1,3,-1
 485 0 l 1,4,-1
 389 0 l 1,5,-1
 261 290 l 1,6,-1
 172 290 l 1,7,-1
 172 0 l 1,8,-1
 85 0 l 1,9,-1
 85 700 l 1,10,11
 110 702 110 702 138 704 c 0,12,13
 162 706 162 706 192.5 706.5 c 128,-1,14
 223 707 223 707 254 707 c 0,15,16
 311 707 311 707 348.5 692.5 c 128,-1,17
 386 678 386 678 408 651 c 128,-1,18
 430 624 430 624 439 586.5 c 128,-1,19
 448 549 448 549 448 503 c 0,0,1
359 496 m 0,20,21
 359 569 359 569 339 602 c 128,-1,22
 319 635 319 635 266 635 c 0,23,24
 224 635 224 635 198 632 c 0,25,26
 183 630 183 630 172 629 c 1,27,-1
 172 363 l 1,28,-1
 266 363 l 2,29,30
 287 363 287 363 304 368.5 c 128,-1,31
 321 374 321 374 333.5 388.5 c 128,-1,32
 346 403 346 403 352.5 429 c 128,-1,33
 359 455 359 455 359 496 c 0,20,21
EndSplineSet
Position2: "'cpsp' Capital Spacing in Latin lookup 0 subtable" dx=5 dy=0 dh=10 dv=0
EndChar

StartChar: S
Encoding: 83 83 52
Width: 434
Flags: W
LayerCount: 2
Fore
SplineSet
381 199 m 0,0,1
 381 137 381 137 367 97 c 128,-1,2
 353 57 353 57 327 34 c 128,-1,3
 301 11 301 11 264.5 2 c 128,-1,4
 228 -7 228 -7 183 -7 c 0,5,6
 159 -7 159 -7 126 -3 c 128,-1,7
 93 1 93 1 67 8 c 1,8,-1
 67 81 l 1,9,10
 90 75 90 75 121 70.5 c 128,-1,11
 152 66 152 66 193 66 c 0,12,13
 245 66 245 66 268.5 96 c 128,-1,14
 292 126 292 126 292 189 c 0,15,16
 292 225 292 225 287 249.5 c 128,-1,17
 282 274 282 274 272 289.5 c 128,-1,18
 262 305 262 305 246.5 313 c 128,-1,19
 231 321 231 321 211 325 c 0,20,21
 169 334 169 334 140 348 c 128,-1,22
 111 362 111 362 93 384 c 128,-1,23
 75 406 75 406 66.5 438 c 128,-1,24
 58 470 58 470 58 514 c 0,25,26
 58 568 58 568 72.5 604.5 c 128,-1,27
 87 641 87 641 113.5 664 c 128,-1,28
 140 687 140 687 176 697 c 128,-1,29
 212 707 212 707 255 707 c 0,30,31
 280 707 280 707 309.5 702.5 c 128,-1,32
 339 698 339 698 361 692 c 1,33,-1
 361 619 l 1,34,35
 335 625 335 625 303 629.5 c 128,-1,36
 271 634 271 634 245 634 c 0,37,38
 226 634 226 634 208.5 628 c 128,-1,39
 191 622 191 622 177.5 609 c 128,-1,40
 164 596 164 596 155.5 575.5 c 128,-1,41
 147 555 147 555 147 525 c 256,42,43
 147 495 147 495 150 474.5 c 128,-1,44
 153 454 153 454 161.5 441 c 128,-1,45
 170 428 170 428 185 420.5 c 128,-1,46
 200 413 200 413 224 408 c 0,47,48
 260 401 260 401 289 388 c 128,-1,49
 318 375 318 375 338.5 351.5 c 128,-1,50
 359 328 359 328 370 291 c 128,-1,51
 381 254 381 254 381 199 c 0,0,1
EndSplineSet
Position2: "'cpsp' Capital Spacing in Latin lookup 0 subtable" dx=5 dy=0 dh=10 dv=0
EndChar

StartChar: T
Encoding: 84 84 53
Width: 425
Flags: W
LayerCount: 2
Fore
SplineSet
256 624 m 1,0,-1
 256 0 l 1,1,-1
 169 0 l 1,2,-1
 169 624 l 1,3,-1
 15 624 l 1,4,-1
 15 700 l 1,5,-1
 410 700 l 1,6,-1
 410 624 l 1,7,-1
 256 624 l 1,0,-1
EndSplineSet
Position2: "'cpsp' Capital Spacing in Latin lookup 0 subtable" dx=5 dy=0 dh=10 dv=0
EndChar

StartChar: U
Encoding: 85 85 54
Width: 535
Flags: W
LayerCount: 2
Fore
SplineSet
455 185 m 2,0,1
 455 84 455 84 404.5 38.5 c 128,-1,2
 354 -7 354 -7 268 -7 c 256,3,4
 182 -7 182 -7 131 38.5 c 128,-1,5
 80 84 80 84 80 185 c 2,6,-1
 80 700 l 1,7,-1
 167 700 l 1,8,-1
 167 166 l 2,9,10
 167 113 167 113 195 89.5 c 128,-1,11
 223 66 223 66 268 66 c 256,12,13
 313 66 313 66 340.5 89.5 c 128,-1,14
 368 113 368 113 368 166 c 2,15,-1
 368 700 l 1,16,-1
 455 700 l 1,17,-1
 455 185 l 2,0,1
EndSplineSet
Position2: "'cpsp' Capital Spacing in Latin lookup 0 subtable" dx=5 dy=0 dh=10 dv=0
EndChar

StartChar: V
Encoding: 86 86 55
Width: 473
Flags: W
LayerCount: 2
Fore
SplineSet
291 0 m 1,0,-1
 172 0 l 1,1,-1
 35 700 l 1,2,-1
 123 700 l 1,3,-1
 233 88 l 1,4,-1
 352 700 l 1,5,-1
 438 700 l 1,6,-1
 291 0 l 1,0,-1
EndSplineSet
Position2: "'cpsp' Capital Spacing in Latin lookup 0 subtable" dx=5 dy=0 dh=10 dv=0
EndChar

StartChar: W
Encoding: 87 87 56
Width: 589
Flags: W
LayerCount: 2
Fore
SplineSet
505 0 m 1,0,-1
 369 0 l 1,1,-1
 302 304 l 1,2,-1
 229 0 l 1,3,-1
 99 0 l 1,4,-1
 65 700 l 1,5,-1
 142 700 l 1,6,-1
 172 55 l 1,7,-1
 262 405 l 1,8,-1
 344 405 l 1,9,-1
 435 55 l 1,10,-1
 466 700 l 1,11,-1
 539 700 l 1,12,-1
 505 0 l 1,0,-1
EndSplineSet
Position2: "'cpsp' Capital Spacing in Latin lookup 0 subtable" dx=5 dy=0 dh=10 dv=0
EndChar

StartChar: X
Encoding: 88 88 57
Width: 496
Flags: W
LayerCount: 2
Fore
SplineSet
363 0 m 1,0,-1
 249 268 l 1,1,-1
 129 0 l 1,2,-1
 35 0 l 1,3,-1
 205 362 l 1,4,-1
 50 700 l 1,5,-1
 145 700 l 1,6,-1
 250 459 l 1,7,-1
 358 700 l 1,8,-1
 451 700 l 1,9,-1
 293 363 l 1,10,-1
 461 0 l 1,11,-1
 363 0 l 1,0,-1
EndSplineSet
Position2: "'cpsp' Capital Spacing in Latin lookup 0 subtable" dx=5 dy=0 dh=10 dv=0
EndChar

StartChar: Y
Encoding: 89 89 58
Width: 491
Flags: W
LayerCount: 2
Fore
SplineSet
289 325 m 1,0,-1
 289 0 l 1,1,-1
 199 0 l 1,2,-1
 199 325 l 1,3,-1
 20 700 l 1,4,-1
 116 700 l 1,5,-1
 248 409 l 1,6,-1
 380 700 l 1,7,-1
 471 700 l 1,8,-1
 289 325 l 1,0,-1
EndSplineSet
Position2: "'cpsp' Capital Spacing in Latin lookup 0 subtable" dx=5 dy=0 dh=10 dv=0
EndChar

StartChar: Z
Encoding: 90 90 59
Width: 436
Flags: W
LayerCount: 2
Fore
SplineSet
134 74 m 1,0,-1
 381 74 l 1,1,-1
 381 0 l 1,2,-1
 45 0 l 1,3,-1
 45 88 l 1,4,-1
 303 626 l 1,5,-1
 68 626 l 1,6,-1
 68 700 l 1,7,-1
 391 700 l 1,8,-1
 391 612 l 1,9,-1
 134 74 l 1,0,-1
EndSplineSet
Position2: "'cpsp' Capital Spacing in Latin lookup 0 subtable" dx=5 dy=0 dh=10 dv=0
EndChar

StartChar: bracketleft
Encoding: 91 91 60
Width: 325
Flags: W
LayerCount: 2
Fore
SplineSet
85 -120 m 1,0,-1
 85 820 l 1,1,-1
 275 820 l 1,2,-1
 275 745 l 1,3,-1
 165 745 l 1,4,-1
 165 -45 l 1,5,-1
 275 -45 l 1,6,-1
 275 -120 l 1,7,-1
 85 -120 l 1,0,-1
EndSplineSet
EndChar

StartChar: backslash
Encoding: 92 92 61
Width: 325
Flags: W
LayerCount: 2
Fore
SplineSet
5 810 m 1,0,-1
 84 810 l 1,1,-1
 320 -110 l 1,2,-1
 241 -110 l 1,3,-1
 5 810 l 1,0,-1
EndSplineSet
EndChar

StartChar: bracketright
Encoding: 93 93 62
Width: 325
Flags: W
LayerCount: 2
Fore
SplineSet
50 -120 m 1,0,-1
 50 -45 l 1,1,-1
 160 -45 l 1,2,-1
 160 745 l 1,3,-1
 50 745 l 1,4,-1
 50 820 l 1,5,-1
 240 820 l 1,6,-1
 240 -120 l 1,7,-1
 50 -120 l 1,0,-1
EndSplineSet
EndChar

StartChar: asciicircum
Encoding: 94 94 63
Width: 487
Flags: W
LayerCount: 2
Fore
SplineSet
351 420 m 1,0,-1
 247 700 l 1,1,-1
 133 420 l 1,2,-1
 45 420 l 1,3,-1
 189 760 l 1,4,-1
 303 760 l 1,5,-1
 442 420 l 1,6,-1
 351 420 l 1,0,-1
EndSplineSet
EndChar

StartChar: underscore
Encoding: 95 95 64
Width: 510
Flags: W
LayerCount: 2
Fore
SplineSet
3 -170 m 1,0,-1
 3 -95 l 1,1,-1
 507 -95 l 1,2,-1
 507 -170 l 1,3,-1
 3 -170 l 1,0,-1
EndSplineSet
EndChar

StartChar: quoteleft
Encoding: 8216 8216 65
Width: 225
Flags: W
LayerCount: 2
Fore
SplineSet
115 699 m 1,0,-1
 180 699 l 1,1,-1
 150 542 l 1,2,-1
 150 452 l 1,3,-1
 55 452 l 1,4,-1
 55 542 l 1,5,-1
 115 699 l 1,0,-1
EndSplineSet
EndChar

StartChar: a
Encoding: 97 97 66
Width: 481
Flags: W
LayerCount: 2
Fore
SplineSet
406 0 m 2,0,1
 399 0 399 0 388.5 2 c 128,-1,2
 378 4 378 4 367 9 c 128,-1,3
 356 14 356 14 346.5 24 c 128,-1,4
 337 34 337 34 331 49 c 1,5,6
 312 22 312 22 281 7.5 c 128,-1,7
 250 -7 250 -7 199 -7 c 0,8,9
 172 -7 172 -7 145 -1.5 c 128,-1,10
 118 4 118 4 97 20.5 c 128,-1,11
 76 37 76 37 63 66 c 128,-1,12
 50 95 50 95 50 141 c 0,13,14
 50 222 50 222 97 265 c 128,-1,15
 144 308 144 308 228 308 c 2,16,-1
 307 308 l 1,17,-1
 307 362 l 2,18,19
 307 394 307 394 288.5 414.5 c 128,-1,20
 270 435 270 435 232 435 c 0,21,22
 189 435 189 435 157 430 c 128,-1,23
 125 425 125 425 87 414 c 1,24,-1
 87 487 l 1,25,26
 115 495 115 495 150 501 c 128,-1,27
 185 507 185 507 222 507 c 0,28,29
 271 507 271 507 303.5 497.5 c 128,-1,30
 336 488 336 488 355.5 467.5 c 128,-1,31
 375 447 375 447 383.5 416 c 128,-1,32
 392 385 392 385 392 342 c 2,33,-1
 392 102 l 2,34,35
 392 87 392 87 402 78.5 c 128,-1,36
 412 70 412 70 436 70 c 1,37,-1
 436 0 l 1,38,-1
 406 0 l 2,0,1
219 65 m 0,39,40
 245 65 245 65 262 73 c 128,-1,41
 279 81 279 81 289 92.5 c 128,-1,42
 299 104 299 104 303 116 c 128,-1,43
 307 128 307 128 307 135 c 2,44,-1
 307 240 l 1,45,-1
 223 240 l 2,46,47
 207 240 207 240 191.5 235 c 128,-1,48
 176 230 176 230 164 218.5 c 128,-1,49
 152 207 152 207 144.5 189.5 c 128,-1,50
 137 172 137 172 137 147 c 0,51,52
 137 100 137 100 158 82.5 c 128,-1,53
 179 65 179 65 219 65 c 0,39,40
EndSplineSet
Substitution2: "'ordn' Ordinals in Latin lookup 4 subtable" ordfeminine
Substitution2: "'aalt' Access All Alternates in Latin lookup 0 subtable" ordfeminine
EndChar

StartChar: b
Encoding: 98 98 67
Width: 499
Flags: W
LayerCount: 2
Fore
SplineSet
434 282 m 0,0,1
 434 200 434 200 423 144.5 c 128,-1,2
 412 89 412 89 387 55.5 c 128,-1,3
 362 22 362 22 321.5 7.5 c 128,-1,4
 281 -7 281 -7 221 -7 c 0,5,6
 194 -7 194 -7 174 -6 c 128,-1,7
 154 -5 154 -5 137.5 -3 c 128,-1,8
 121 -1 121 -1 107.5 1 c 128,-1,9
 94 3 94 3 80 5 c 1,10,-1
 80 700 l 1,11,-1
 165 700 l 1,12,-1
 165 463 l 1,13,14
 212 507 212 507 276 507 c 0,15,16
 364 507 364 507 399 450.5 c 128,-1,17
 434 394 434 394 434 282 c 0,0,1
260 435 m 0,18,19
 239 435 239 435 221.5 427 c 128,-1,20
 204 419 204 419 191.5 406 c 128,-1,21
 179 393 179 393 172 378.5 c 128,-1,22
 165 364 165 364 165 350 c 2,23,-1
 165 69 l 1,24,25
 176 67 176 67 192 66 c 128,-1,26
 208 65 208 65 231 65 c 0,27,28
 267 65 267 65 289.5 78 c 128,-1,29
 312 91 312 91 324.5 117 c 128,-1,30
 337 143 337 143 342 181.5 c 128,-1,31
 347 220 347 220 347 272 c 0,32,33
 347 320 347 320 342.5 351 c 128,-1,34
 338 382 338 382 327.5 401 c 128,-1,35
 317 420 317 420 300.5 427.5 c 128,-1,36
 284 435 284 435 260 435 c 0,18,19
EndSplineSet
EndChar

StartChar: c
Encoding: 99 99 68
Width: 404
Flags: W
LayerCount: 2
Fore
SplineSet
349 9 m 1,0,1
 325 2 325 2 296 -2.5 c 128,-1,2
 267 -7 267 -7 240 -7 c 0,3,4
 197 -7 197 -7 164 2.5 c 128,-1,5
 131 12 131 12 109 40.5 c 128,-1,6
 87 69 87 69 76 121.5 c 128,-1,7
 65 174 65 174 65 260 c 0,8,9
 65 327 65 327 75.5 374 c 128,-1,10
 86 421 86 421 107 450.5 c 128,-1,11
 128 480 128 480 161 493.5 c 128,-1,12
 194 507 194 507 239 507 c 0,13,14
 264 507 264 507 295.5 502 c 128,-1,15
 327 497 327 497 349 492 c 1,16,-1
 349 418 l 1,17,18
 321 424 321 424 296 428 c 128,-1,19
 271 432 271 432 233 432 c 0,20,21
 211 432 211 432 196 423 c 128,-1,22
 181 414 181 414 171 391.5 c 128,-1,23
 161 369 161 369 156.5 332.5 c 128,-1,24
 152 296 152 296 152 240 c 256,25,26
 152 184 152 184 157.5 150 c 128,-1,27
 163 116 163 116 173.5 98 c 128,-1,28
 184 80 184 80 199 74 c 128,-1,29
 214 68 214 68 233 68 c 0,30,31
 274 68 274 68 300.5 73 c 128,-1,32
 327 78 327 78 349 83 c 1,33,-1
 349 9 l 1,0,1
EndSplineSet
EndChar

StartChar: d
Encoding: 100 100 69
Width: 504
Flags: W
LayerCount: 2
Fore
SplineSet
354 0 m 1,0,-1
 347 42 l 1,1,2
 324 19 324 19 295 6 c 128,-1,3
 266 -7 266 -7 228 -7 c 0,4,5
 180 -7 180 -7 149 8 c 128,-1,6
 118 23 118 23 99 52 c 128,-1,7
 80 81 80 81 72.5 125.5 c 128,-1,8
 65 170 65 170 65 228 c 0,9,10
 65 376 65 376 116.5 441.5 c 128,-1,11
 168 507 168 507 283 507 c 0,12,13
 300 507 300 507 314 506 c 128,-1,14
 328 505 328 505 339 503 c 1,15,-1
 339 700 l 1,16,-1
 424 700 l 1,17,-1
 424 0 l 1,18,-1
 354 0 l 1,0,-1
244 65 m 0,19,20
 267 65 267 65 285 73 c 128,-1,21
 303 81 303 81 315 94 c 128,-1,22
 327 107 327 107 333 122 c 128,-1,23
 339 137 339 137 339 150 c 2,24,-1
 339 431 l 1,25,26
 328 433 328 433 312 434 c 128,-1,27
 296 435 296 435 273 435 c 0,28,29
 237 435 237 435 214 420.5 c 128,-1,30
 191 406 191 406 177 378.5 c 128,-1,31
 163 351 163 351 157.5 310.5 c 128,-1,32
 152 270 152 270 152 218 c 0,33,34
 152 173 152 173 157.5 143.5 c 128,-1,35
 163 114 163 114 174 96.5 c 128,-1,36
 185 79 185 79 202.5 72 c 128,-1,37
 220 65 220 65 244 65 c 0,19,20
EndSplineSet
EndChar

StartChar: e
Encoding: 101 101 70
Width: 468
Flags: W
LayerCount: 2
Fore
SplineSet
150 220 m 1,0,1
 151 171 151 171 157.5 140.5 c 128,-1,2
 164 110 164 110 175 93 c 128,-1,3
 186 76 186 76 201 70.5 c 128,-1,4
 216 65 216 65 235 65 c 0,5,6
 277 65 277 65 311.5 70.5 c 128,-1,7
 346 76 346 76 369 81 c 1,8,-1
 369 9 l 1,9,10
 345 2 345 2 308.5 -2.5 c 128,-1,11
 272 -7 272 -7 245 -7 c 0,12,13
 202 -7 202 -7 168.5 2 c 128,-1,14
 135 11 135 11 112 38 c 128,-1,15
 89 65 89 65 77 115.5 c 128,-1,16
 65 166 65 166 65 250 c 0,17,18
 65 319 65 319 76.5 368 c 128,-1,19
 88 417 88 417 111 448 c 128,-1,20
 134 479 134 479 168 493 c 128,-1,21
 202 507 202 507 247 507 c 0,22,23
 333 507 333 507 370.5 450.5 c 128,-1,24
 408 394 408 394 408 295 c 2,25,-1
 408 220 l 1,26,-1
 150 220 l 1,0,1
245 436 m 0,27,28
 221 436 221 436 204 429 c 128,-1,29
 187 422 187 422 176 405 c 128,-1,30
 165 388 165 388 159 359.5 c 128,-1,31
 153 331 153 331 151 288 c 1,32,-1
 325 288 l 1,33,-1
 325 315 l 2,34,35
 325 372 325 372 307.5 404 c 128,-1,36
 290 436 290 436 245 436 c 0,27,28
EndSplineSet
EndChar

StartChar: f
Encoding: 102 102 71
Width: 311
Flags: W
LayerCount: 2
Fore
SplineSet
180 427 m 1,0,-1
 180 0 l 1,1,-1
 95 0 l 1,2,-1
 95 427 l 1,3,-1
 30 427 l 1,4,-1
 30 500 l 1,5,-1
 95 500 l 1,6,-1
 95 578 l 2,7,8
 95 643 95 643 130 675 c 128,-1,9
 165 707 165 707 222 707 c 0,10,11
 254 707 254 707 277.5 702.5 c 128,-1,12
 301 698 301 698 316 695 c 1,13,-1
 316 624 l 1,14,15
 300 628 300 628 281 631.5 c 128,-1,16
 262 635 262 635 235 635 c 256,17,18
 208 635 208 635 194 621 c 128,-1,19
 180 607 180 607 180 585 c 2,20,-1
 180 500 l 1,21,-1
 301 500 l 1,22,-1
 301 427 l 1,23,-1
 180 427 l 1,0,-1
EndSplineSet
EndChar

StartChar: g
Encoding: 103 103 72
Width: 521
Flags: W
LayerCount: 2
Fore
SplineSet
445 325 m 0,0,1
 445 240 445 240 395.5 198.5 c 128,-1,2
 346 157 346 157 243 157 c 0,3,4
 206 157 206 157 177 163 c 1,5,6
 167 141 167 141 167 120 c 0,7,8
 167 107 167 107 172 92 c 1,9,10
 206 95 206 95 239 97.5 c 128,-1,11
 272 100 272 100 297 100 c 0,12,13
 333 100 333 100 363.5 94 c 128,-1,14
 394 88 394 88 416 71.5 c 128,-1,15
 438 55 438 55 450.5 26 c 128,-1,16
 463 -3 463 -3 463 -49 c 0,17,18
 463 -87 463 -87 448.5 -113.5 c 128,-1,19
 434 -140 434 -140 408.5 -157 c 128,-1,20
 383 -174 383 -174 348.5 -182 c 128,-1,21
 314 -190 314 -190 274 -190 c 0,22,23
 255 -190 255 -190 228 -188 c 128,-1,24
 201 -186 201 -186 173.5 -183.5 c 128,-1,25
 146 -181 146 -181 121.5 -178 c 128,-1,26
 97 -175 97 -175 83 -172 c 1,27,-1
 83 -100 l 1,28,29
 102 -103 102 -103 126.5 -106.5 c 128,-1,30
 151 -110 151 -110 177.5 -112 c 128,-1,31
 204 -114 204 -114 231 -115.5 c 128,-1,32
 258 -117 258 -117 282 -117 c 0,33,34
 333 -117 333 -117 354.5 -97.5 c 128,-1,35
 376 -78 376 -78 376 -49 c 0,36,37
 376 -11 376 -11 358.5 7 c 128,-1,38
 341 25 341 25 292 25 c 0,39,40
 278 25 278 25 256 24 c 128,-1,41
 234 23 234 23 210.5 21.5 c 128,-1,42
 187 20 187 20 164.5 18 c 128,-1,43
 142 16 142 16 127 14 c 1,44,45
 110 30 110 30 97.5 57.5 c 128,-1,46
 85 85 85 85 85 108 c 0,47,48
 85 138 85 138 92 158 c 128,-1,49
 99 178 99 178 112 192 c 1,50,51
 83 214 83 214 71.5 249 c 128,-1,52
 60 284 60 284 60 333 c 0,53,54
 60 387 60 387 77 421 c 128,-1,55
 94 455 94 455 122.5 474 c 128,-1,56
 151 493 151 493 188.5 500 c 128,-1,57
 226 507 226 507 268 507 c 0,58,59
 312 507 312 507 346 493 c 1,60,-1
 491 500 l 1,61,-1
 491 425 l 1,62,-1
 422 428 l 1,63,64
 445 385 445 385 445 325 c 0,0,1
360 333 m 0,65,66
 360 354 360 354 355.5 372.5 c 128,-1,67
 351 391 351 391 339 405 c 128,-1,68
 327 419 327 419 307.5 427.5 c 128,-1,69
 288 436 288 436 258 436 c 0,70,71
 193 436 193 436 169 409.5 c 128,-1,72
 145 383 145 383 145 325 c 0,73,74
 145 304 145 304 149.5 285.5 c 128,-1,75
 154 267 154 267 165 254 c 128,-1,76
 176 241 176 241 195 233.5 c 128,-1,77
 214 226 214 226 243 226 c 0,78,79
 268 226 268 226 289.5 230 c 128,-1,80
 311 234 311 234 326.5 245.5 c 128,-1,81
 342 257 342 257 351 278 c 128,-1,82
 360 299 360 299 360 333 c 0,65,66
EndSplineSet
EndChar

StartChar: h
Encoding: 104 104 73
Width: 506
Flags: W
LayerCount: 2
Fore
SplineSet
80 0 m 1,0,-1
 80 700 l 1,1,-1
 165 700 l 1,2,-1
 165 463 l 1,3,4
 188 484 188 484 216.5 495.5 c 128,-1,5
 245 507 245 507 280 507 c 0,6,7
 323 507 323 507 352 496.5 c 128,-1,8
 381 486 381 486 398.5 464.5 c 128,-1,9
 416 443 416 443 423.5 409.5 c 128,-1,10
 431 376 431 376 431 330 c 2,11,-1
 431 0 l 1,12,-1
 346 0 l 1,13,-1
 346 340 l 2,14,15
 346 387 346 387 330.5 411 c 128,-1,16
 315 435 315 435 265 435 c 0,17,18
 244 435 244 435 225.5 427 c 128,-1,19
 207 419 207 419 193.5 406 c 128,-1,20
 180 393 180 393 172.5 378.5 c 128,-1,21
 165 364 165 364 165 350 c 2,22,-1
 165 0 l 1,23,-1
 80 0 l 1,0,-1
EndSplineSet
EndChar

StartChar: i
Encoding: 105 105 74
Width: 245
Flags: W
LayerCount: 2
Fore
SplineSet
75 610 m 1,0,-1
 75 700 l 1,1,-1
 170 700 l 1,2,-1
 170 610 l 1,3,-1
 75 610 l 1,0,-1
80 0 m 1,4,-1
 80 500 l 1,5,-1
 165 500 l 1,6,-1
 165 0 l 1,7,-1
 80 0 l 1,4,-1
EndSplineSet
EndChar

StartChar: j
Encoding: 106 106 75
Width: 245
Flags: W
LayerCount: 2
Fore
SplineSet
165 -43 m 2,0,1
 165 -99 165 -99 134 -137 c 128,-1,2
 103 -175 103 -175 41 -175 c 0,3,4
 17 -175 17 -175 -4.5 -173.5 c 128,-1,5
 -26 -172 -26 -172 -46 -170 c 1,6,-1
 -46 -99 l 1,7,8
 -30 -101 -30 -101 -7 -102 c 128,-1,9
 16 -103 16 -103 28 -103 c 0,10,11
 80 -103 80 -103 80 -48 c 2,12,-1
 80 500 l 1,13,-1
 165 500 l 1,14,-1
 165 -43 l 2,0,1
75 610 m 1,15,-1
 75 700 l 1,16,-1
 170 700 l 1,17,-1
 170 610 l 1,18,-1
 75 610 l 1,15,-1
EndSplineSet
EndChar

StartChar: k
Encoding: 107 107 76
Width: 464
Flags: W
LayerCount: 2
Fore
SplineSet
330 0 m 1,0,-1
 195 249 l 1,1,-1
 165 214 l 1,2,-1
 165 0 l 1,3,-1
 80 0 l 1,4,-1
 80 700 l 1,5,-1
 165 700 l 1,6,-1
 165 320 l 1,7,-1
 318 500 l 1,8,-1
 422 500 l 1,9,-1
 253 307 l 1,10,-1
 429 0 l 1,11,-1
 330 0 l 1,0,-1
EndSplineSet
EndChar

StartChar: l
Encoding: 108 108 77
Width: 265
Flags: W
LayerCount: 2
Fore
SplineSet
225 5 m 1,0,1
 214 3 214 3 199.5 0 c 128,-1,2
 185 -3 185 -3 165 -3 c 0,3,4
 150 -3 150 -3 135 2 c 128,-1,5
 120 7 120 7 108 20 c 128,-1,6
 96 33 96 33 88 55.5 c 128,-1,7
 80 78 80 78 80 112 c 2,8,-1
 80 700 l 1,9,-1
 165 700 l 1,10,-1
 165 117 l 2,11,12
 165 91 165 91 171.5 80.5 c 128,-1,13
 178 70 178 70 198 70 c 0,14,15
 206 70 206 70 213.5 72 c 128,-1,16
 221 74 221 74 225 75 c 1,17,-1
 225 5 l 1,0,1
EndSplineSet
EndChar

StartChar: m
Encoding: 109 109 78
Width: 730
Flags: W
LayerCount: 2
Fore
SplineSet
80 0 m 1,0,-1
 80 500 l 1,1,-1
 150 500 l 1,2,-1
 157 456 l 1,3,4
 203 507 203 507 270 507 c 0,5,6
 317 507 317 507 345 489.5 c 128,-1,7
 373 472 373 472 389 444 c 1,8,9
 437 507 437 507 515 507 c 0,10,11
 592 507 592 507 623.5 464.5 c 128,-1,12
 655 422 655 422 655 330 c 2,13,-1
 655 0 l 1,14,-1
 570 0 l 1,15,-1
 570 340 l 2,16,17
 570 388 570 388 556.5 411.5 c 128,-1,18
 543 435 543 435 500 435 c 0,19,20
 480 435 480 435 463.5 427 c 128,-1,21
 447 419 447 419 435 406 c 128,-1,22
 423 393 423 393 416.5 378.5 c 128,-1,23
 410 364 410 364 410 350 c 2,24,-1
 410 0 l 1,25,-1
 325 0 l 1,26,-1
 325 340 l 2,27,28
 325 388 325 388 311.5 411.5 c 128,-1,29
 298 435 298 435 255 435 c 0,30,31
 235 435 235 435 218.5 427 c 128,-1,32
 202 419 202 419 190 406 c 128,-1,33
 178 393 178 393 171.5 378.5 c 128,-1,34
 165 364 165 364 165 350 c 2,35,-1
 165 0 l 1,36,-1
 80 0 l 1,0,-1
EndSplineSet
EndChar

StartChar: n
Encoding: 110 110 79
Width: 506
Flags: W
LayerCount: 2
Fore
SplineSet
80 0 m 1,0,-1
 80 500 l 1,1,-1
 150 500 l 1,2,-1
 157 455 l 1,3,4
 206 507 206 507 280 507 c 0,5,6
 323 507 323 507 352 496.5 c 128,-1,7
 381 486 381 486 398.5 464.5 c 128,-1,8
 416 443 416 443 423.5 409.5 c 128,-1,9
 431 376 431 376 431 330 c 2,10,-1
 431 0 l 1,11,-1
 346 0 l 1,12,-1
 346 340 l 2,13,14
 346 387 346 387 330.5 411 c 128,-1,15
 315 435 315 435 265 435 c 0,16,17
 244 435 244 435 225.5 427 c 128,-1,18
 207 419 207 419 193.5 406 c 128,-1,19
 180 393 180 393 172.5 378.5 c 128,-1,20
 165 364 165 364 165 350 c 2,21,-1
 165 0 l 1,22,-1
 80 0 l 1,0,-1
EndSplineSet
EndChar

StartChar: o
Encoding: 111 111 80
Width: 510
Flags: W
LayerCount: 2
Fore
SplineSet
445 260 m 0,0,1
 445 181 445 181 433 129.5 c 128,-1,2
 421 78 421 78 397 47.5 c 128,-1,3
 373 17 373 17 337.5 5 c 128,-1,4
 302 -7 302 -7 255 -7 c 0,5,6
 209 -7 209 -7 173.5 5 c 128,-1,7
 138 17 138 17 114 47.5 c 128,-1,8
 90 78 90 78 77.5 129.5 c 128,-1,9
 65 181 65 181 65 260 c 0,10,11
 65 388 65 388 111 447.5 c 128,-1,12
 157 507 157 507 255 507 c 256,13,14
 353 507 353 507 399 447.5 c 128,-1,15
 445 388 445 388 445 260 c 0,0,1
358 245 m 0,16,17
 358 298 358 298 353 335 c 128,-1,18
 348 372 348 372 336.5 394.5 c 128,-1,19
 325 417 325 417 305 427 c 128,-1,20
 285 437 285 437 255 437 c 256,21,22
 225 437 225 437 205 427 c 128,-1,23
 185 417 185 417 173.5 394.5 c 128,-1,24
 162 372 162 372 157 335 c 128,-1,25
 152 298 152 298 152 245 c 0,26,27
 152 147 152 147 175 105 c 128,-1,28
 198 63 198 63 255 63 c 256,29,30
 312 63 312 63 335 105 c 128,-1,31
 358 147 358 147 358 245 c 0,16,17
EndSplineSet
Substitution2: "'ordn' Ordinals in Latin lookup 4 subtable" ordmasculine
Substitution2: "'aalt' Access All Alternates in Latin lookup 0 subtable" ordmasculine
EndChar

StartChar: p
Encoding: 112 112 81
Width: 499
Flags: W
LayerCount: 2
Fore
SplineSet
80 -170 m 1,0,-1
 80 500 l 1,1,-1
 150 500 l 1,2,-1
 158 457 l 1,3,4
 206 507 206 507 276 507 c 0,5,6
 364 507 364 507 399 450.5 c 128,-1,7
 434 394 434 394 434 282 c 0,8,9
 434 200 434 200 423 144.5 c 128,-1,10
 412 89 412 89 387 55.5 c 128,-1,11
 362 22 362 22 321.5 7.5 c 128,-1,12
 281 -7 281 -7 221 -7 c 0,13,14
 204 -7 204 -7 190 -6 c 128,-1,15
 176 -5 176 -5 165 -3 c 1,16,-1
 165 -170 l 1,17,-1
 80 -170 l 1,0,-1
260 435 m 0,18,19
 239 435 239 435 221.5 427 c 128,-1,20
 204 419 204 419 191.5 406 c 128,-1,21
 179 393 179 393 172 378.5 c 128,-1,22
 165 364 165 364 165 350 c 2,23,-1
 165 69 l 1,24,25
 176 67 176 67 192 66 c 128,-1,26
 208 65 208 65 231 65 c 0,27,28
 267 65 267 65 289.5 78 c 128,-1,29
 312 91 312 91 324.5 117 c 128,-1,30
 337 143 337 143 342 181.5 c 128,-1,31
 347 220 347 220 347 272 c 0,32,33
 347 320 347 320 342.5 351 c 128,-1,34
 338 382 338 382 327.5 401 c 128,-1,35
 317 420 317 420 300.5 427.5 c 128,-1,36
 284 435 284 435 260 435 c 0,18,19
EndSplineSet
EndChar

StartChar: q
Encoding: 113 113 82
Width: 504
Flags: W
LayerCount: 2
Fore
SplineSet
339 -170 m 1,0,-1
 339 34 l 1,1,2
 317 14 317 14 290 3.5 c 128,-1,3
 263 -7 263 -7 228 -7 c 0,4,5
 180 -7 180 -7 149 8 c 128,-1,6
 118 23 118 23 99 52 c 128,-1,7
 80 81 80 81 72.5 125.5 c 128,-1,8
 65 170 65 170 65 228 c 0,9,10
 65 376 65 376 116.5 441.5 c 128,-1,11
 168 507 168 507 283 507 c 0,12,13
 310 507 310 507 330 506 c 128,-1,14
 350 505 350 505 366.5 503 c 128,-1,15
 383 501 383 501 396.5 499 c 128,-1,16
 410 497 410 497 424 495 c 1,17,-1
 424 -170 l 1,18,-1
 339 -170 l 1,0,-1
244 65 m 0,19,20
 267 65 267 65 285 73 c 128,-1,21
 303 81 303 81 315 94 c 128,-1,22
 327 107 327 107 333 122 c 128,-1,23
 339 137 339 137 339 150 c 2,24,-1
 339 431 l 1,25,26
 328 433 328 433 312 434 c 128,-1,27
 296 435 296 435 273 435 c 0,28,29
 237 435 237 435 214 420.5 c 128,-1,30
 191 406 191 406 177 378.5 c 128,-1,31
 163 351 163 351 157.5 310.5 c 128,-1,32
 152 270 152 270 152 218 c 0,33,34
 152 173 152 173 157.5 143.5 c 128,-1,35
 163 114 163 114 174 96.5 c 128,-1,36
 185 79 185 79 202.5 72 c 128,-1,37
 220 65 220 65 244 65 c 0,19,20
EndSplineSet
EndChar

StartChar: r
Encoding: 114 114 83
Width: 338
Flags: W
LayerCount: 2
Fore
SplineSet
80 0 m 1,0,-1
 80 500 l 1,1,-1
 150 500 l 1,2,-1
 156 449 l 1,3,4
 173 475 173 475 198 491 c 128,-1,5
 223 507 223 507 260 507 c 0,6,7
 278 507 278 507 291 505.5 c 128,-1,8
 304 504 304 504 313 502 c 1,9,-1
 313 413 l 1,10,11
 300 416 300 416 283.5 419 c 128,-1,12
 267 422 267 422 253 422 c 0,13,14
 228 422 228 422 211.5 412 c 128,-1,15
 195 402 195 402 184.5 385.5 c 128,-1,16
 174 369 174 369 169.5 348.5 c 128,-1,17
 165 328 165 328 165 308 c 2,18,-1
 165 0 l 1,19,-1
 80 0 l 1,0,-1
EndSplineSet
EndChar

StartChar: s
Encoding: 115 115 84
Width: 402
Flags: W
LayerCount: 2
Fore
SplineSet
352 145 m 0,0,1
 352 62 352 62 306.5 27.5 c 128,-1,2
 261 -7 261 -7 184 -7 c 0,3,4
 141 -7 141 -7 111 -1.5 c 128,-1,5
 81 4 81 4 64 9 c 1,6,-1
 64 82 l 1,7,8
 73 80 73 80 87.5 77.5 c 128,-1,9
 102 75 102 75 119 72.5 c 128,-1,10
 136 70 136 70 154.5 68 c 128,-1,11
 173 66 173 66 191 66 c 0,12,13
 211 66 211 66 224.5 72.5 c 128,-1,14
 238 79 238 79 246.5 89.5 c 128,-1,15
 255 100 255 100 259 113.5 c 128,-1,16
 263 127 263 127 263 140 c 0,17,18
 263 176 263 176 250.5 193 c 128,-1,19
 238 210 238 210 200 217 c 0,20,21
 123 231 123 231 91.5 265.5 c 128,-1,22
 60 300 60 300 60 356 c 0,23,24
 60 397 60 397 73 425.5 c 128,-1,25
 86 454 86 454 108.5 472 c 128,-1,26
 131 490 131 490 161.5 498.5 c 128,-1,27
 192 507 192 507 228 507 c 0,28,29
 267 507 267 507 293.5 500.5 c 128,-1,30
 320 494 320 494 335 490 c 1,31,-1
 335 417 l 1,32,33
 309 423 309 423 285 429 c 128,-1,34
 261 435 261 435 220 435 c 0,35,36
 197 435 197 435 182.5 428.5 c 128,-1,37
 168 422 168 422 160 411.5 c 128,-1,38
 152 401 152 401 149.5 388 c 128,-1,39
 147 375 147 375 147 361 c 0,40,41
 147 306 147 306 211 296 c 0,42,43
 289 283 289 283 320.5 247 c 128,-1,44
 352 211 352 211 352 145 c 0,0,1
EndSplineSet
EndChar

StartChar: t
Encoding: 116 116 85
Width: 321
Flags: W
LayerCount: 2
Fore
SplineSet
175 425 m 1,0,-1
 175 120 l 2,1,2
 175 113 175 113 177 103.5 c 128,-1,3
 179 94 179 94 184.5 85.5 c 128,-1,4
 190 77 190 77 199.5 71 c 128,-1,5
 209 65 209 65 225 65 c 0,6,7
 248 65 248 65 264 68.5 c 128,-1,8
 280 72 280 72 291 75 c 1,9,-1
 291 5 l 1,10,11
 281 2 281 2 256.5 -2.5 c 128,-1,12
 232 -7 232 -7 205 -7 c 0,13,14
 175 -7 175 -7 153 3 c 128,-1,15
 131 13 131 13 117 31 c 128,-1,16
 103 49 103 49 96.5 73 c 128,-1,17
 90 97 90 97 90 125 c 2,18,-1
 90 425 l 1,19,-1
 25 425 l 1,20,-1
 25 500 l 1,21,-1
 90 500 l 1,22,-1
 90 620 l 1,23,-1
 175 620 l 1,24,-1
 175 500 l 1,25,-1
 291 500 l 1,26,-1
 291 425 l 1,27,-1
 175 425 l 1,0,-1
EndSplineSet
EndChar

StartChar: u
Encoding: 117 117 86
Width: 491
Flags: W
LayerCount: 2
Fore
SplineSet
341 0 m 1,0,-1
 334 41 l 1,1,2
 313 18 313 18 285 5.5 c 128,-1,3
 257 -7 257 -7 219 -7 c 0,4,5
 177 -7 177 -7 149.5 4 c 128,-1,6
 122 15 122 15 105.5 37.5 c 128,-1,7
 89 60 89 60 82 94 c 128,-1,8
 75 128 75 128 75 174 c 2,9,-1
 75 500 l 1,10,-1
 160 500 l 1,11,-1
 160 164 l 2,12,13
 160 140 160 140 162.5 122 c 128,-1,14
 165 104 165 104 173 91 c 128,-1,15
 181 78 181 78 195 71.5 c 128,-1,16
 209 65 209 65 232 65 c 0,17,18
 253 65 253 65 270 73 c 128,-1,19
 287 81 287 81 299 93 c 128,-1,20
 311 105 311 105 318 119.5 c 128,-1,21
 325 134 325 134 326 147 c 1,22,-1
 326 500 l 1,23,-1
 411 500 l 1,24,-1
 411 0 l 1,25,-1
 341 0 l 1,0,-1
EndSplineSet
EndChar

StartChar: v
Encoding: 118 118 87
Width: 462
Flags: W
LayerCount: 2
Fore
SplineSet
293 0 m 1,0,-1
 170 0 l 1,1,-1
 35 500 l 1,2,-1
 126 500 l 1,3,-1
 234 71 l 1,4,-1
 339 500 l 1,5,-1
 427 500 l 1,6,-1
 293 0 l 1,0,-1
EndSplineSet
EndChar

StartChar: w
Encoding: 119 119 88
Width: 670
Flags: W
LayerCount: 2
Fore
SplineSet
531 0 m 1,0,-1
 400 0 l 1,1,-1
 337 271 l 1,2,-1
 268 0 l 1,3,-1
 140 0 l 1,4,-1
 40 500 l 1,5,-1
 128 500 l 1,6,-1
 209 64 l 1,7,-1
 298 410 l 1,8,-1
 383 410 l 1,9,-1
 466 64 l 1,10,-1
 547 500 l 1,11,-1
 630 500 l 1,12,-1
 531 0 l 1,0,-1
EndSplineSet
EndChar

StartChar: x
Encoding: 120 120 89
Width: 464
Flags: W
LayerCount: 2
Fore
SplineSet
329 0 m 1,0,-1
 234 185 l 1,1,-1
 134 0 l 1,2,-1
 40 0 l 1,3,-1
 185 258 l 1,4,-1
 52 500 l 1,5,-1
 150 500 l 1,6,-1
 236 335 l 1,7,-1
 323 500 l 1,8,-1
 416 500 l 1,9,-1
 281 262 l 1,10,-1
 429 0 l 1,11,-1
 329 0 l 1,0,-1
EndSplineSet
EndChar

StartChar: y
Encoding: 121 121 90
Width: 463
Flags: W
LayerCount: 2
Fore
SplineSet
283 -44 m 2,0,1
 275 -73 275 -73 266 -97.5 c 128,-1,2
 257 -122 257 -122 243.5 -139 c 128,-1,3
 230 -156 230 -156 209.5 -165.5 c 128,-1,4
 189 -175 189 -175 159 -175 c 0,5,6
 143 -175 143 -175 127 -173 c 128,-1,7
 111 -171 111 -171 102 -169 c 1,8,-1
 102 -96 l 1,9,10
 113 -98 113 -98 126 -99 c 128,-1,11
 139 -100 139 -100 154 -100 c 0,12,13
 182 -100 182 -100 194 -55 c 1,14,-1
 210 0 l 1,15,-1
 190 0 l 1,16,-1
 35 500 l 1,17,-1
 127 500 l 1,18,-1
 243 87 l 1,19,-1
 341 500 l 1,20,-1
 428 500 l 1,21,-1
 283 -44 l 2,0,1
EndSplineSet
EndChar

StartChar: z
Encoding: 122 122 91
Width: 403
Flags: W
LayerCount: 2
Fore
SplineSet
137 74 m 1,0,-1
 343 74 l 1,1,-1
 343 0 l 1,2,-1
 45 0 l 1,3,-1
 45 80 l 1,4,-1
 262 426 l 1,5,-1
 65 426 l 1,6,-1
 65 500 l 1,7,-1
 353 500 l 1,8,-1
 353 411 l 1,9,-1
 137 74 l 1,0,-1
EndSplineSet
EndChar

StartChar: braceleft
Encoding: 123 123 92
Width: 325
Flags: W
LayerCount: 2
Fore
SplineSet
35 405 m 1,0,1
 49 405 49 405 63.5 408 c 128,-1,2
 78 411 78 411 89.5 421 c 128,-1,3
 101 431 101 431 108.5 449.5 c 128,-1,4
 116 468 116 468 116 499 c 2,5,-1
 116 698 l 2,6,7
 116 765 116 765 140.5 795 c 128,-1,8
 165 825 165 825 225 825 c 0,9,10
 235 825 235 825 248.5 823.5 c 128,-1,11
 262 822 262 822 270 820 c 1,12,-1
 270 752 l 1,13,14
 265 753 265 753 257 754 c 128,-1,15
 249 755 249 755 239 755 c 0,16,17
 216 755 216 755 205 745.5 c 128,-1,18
 194 736 194 736 194 713 c 2,19,-1
 194 469 l 2,20,21
 194 440 194 440 184 418.5 c 128,-1,22
 174 397 174 397 158.5 382.5 c 128,-1,23
 143 368 143 368 124.5 360 c 128,-1,24
 106 352 106 352 89 349 c 1,25,26
 106 347 106 347 124.5 339.5 c 128,-1,27
 143 332 143 332 158.5 317.5 c 128,-1,28
 174 303 174 303 184 281.5 c 128,-1,29
 194 260 194 260 194 231 c 2,30,-1
 194 -13 l 2,31,32
 194 -36 194 -36 205 -45.5 c 128,-1,33
 216 -55 216 -55 239 -55 c 0,34,35
 249 -55 249 -55 257 -54 c 128,-1,36
 265 -53 265 -53 270 -52 c 1,37,-1
 270 -120 l 1,38,39
 262 -122 262 -122 248.5 -123.5 c 128,-1,40
 235 -125 235 -125 225 -125 c 0,41,42
 165 -125 165 -125 140.5 -95 c 128,-1,43
 116 -65 116 -65 116 2 c 2,44,-1
 116 201 l 2,45,46
 116 232 116 232 108.5 250.5 c 128,-1,47
 101 269 101 269 89.5 279 c 128,-1,48
 78 289 78 289 63.5 292 c 128,-1,49
 49 295 49 295 35 295 c 1,50,-1
 35 405 l 1,0,1
EndSplineSet
EndChar

StartChar: bar
Encoding: 124 124 93
Width: 290
Flags: W
LayerCount: 2
Fore
SplineSet
105 -110 m 1,0,-1
 105 810 l 1,1,-1
 185 810 l 1,2,-1
 185 -110 l 1,3,-1
 105 -110 l 1,0,-1
EndSplineSet
EndChar

StartChar: braceright
Encoding: 125 125 94
Width: 325
Flags: W
LayerCount: 2
Fore
SplineSet
290 295 m 1,0,1
 276 295 276 295 261.5 292 c 128,-1,2
 247 289 247 289 235.5 279 c 128,-1,3
 224 269 224 269 216.5 250.5 c 128,-1,4
 209 232 209 232 209 201 c 2,5,-1
 209 2 l 2,6,7
 209 -65 209 -65 184.5 -95 c 128,-1,8
 160 -125 160 -125 100 -125 c 0,9,10
 90 -125 90 -125 76.5 -123.5 c 128,-1,11
 63 -122 63 -122 55 -120 c 1,12,-1
 55 -52 l 1,13,14
 60 -53 60 -53 68 -54 c 128,-1,15
 76 -55 76 -55 86 -55 c 0,16,17
 109 -55 109 -55 120 -45.5 c 128,-1,18
 131 -36 131 -36 131 -13 c 2,19,-1
 131 231 l 2,20,21
 131 260 131 260 141 281.5 c 128,-1,22
 151 303 151 303 166.5 317.5 c 128,-1,23
 182 332 182 332 200.5 339.5 c 128,-1,24
 219 347 219 347 236 349 c 1,25,26
 219 352 219 352 200.5 360 c 128,-1,27
 182 368 182 368 166.5 382.5 c 128,-1,28
 151 397 151 397 141 418.5 c 128,-1,29
 131 440 131 440 131 469 c 2,30,-1
 131 713 l 2,31,32
 131 736 131 736 120 745.5 c 128,-1,33
 109 755 109 755 86 755 c 0,34,35
 76 755 76 755 68 754 c 128,-1,36
 60 753 60 753 55 752 c 1,37,-1
 55 820 l 1,38,39
 63 822 63 822 76.5 823.5 c 128,-1,40
 90 825 90 825 100 825 c 0,41,42
 160 825 160 825 184.5 795 c 128,-1,43
 209 765 209 765 209 698 c 2,44,-1
 209 499 l 2,45,46
 209 468 209 468 216.5 449.5 c 128,-1,47
 224 431 224 431 235.5 421 c 128,-1,48
 247 411 247 411 261.5 408 c 128,-1,49
 276 405 276 405 290 405 c 1,50,-1
 290 295 l 1,0,1
EndSplineSet
EndChar

StartChar: asciitilde
Encoding: 126 126 95
Width: 510
Flags: W
LayerCount: 2
Fore
SplineSet
85 344 m 1,0,1
 120 365 120 365 142.5 371 c 128,-1,2
 165 377 165 377 187 377 c 0,3,4
 207 377 207 377 225 371 c 128,-1,5
 243 365 243 365 260.5 357.5 c 128,-1,6
 278 350 278 350 295.5 344 c 128,-1,7
 313 338 313 338 332 338 c 0,8,9
 358 338 358 338 381 349 c 128,-1,10
 404 360 404 360 425 374 c 1,11,-1
 425 296 l 1,12,13
 402 281 402 281 376.5 272 c 128,-1,14
 351 263 351 263 323 263 c 0,15,16
 302 263 302 263 284.5 269 c 128,-1,17
 267 275 267 275 250.5 282.5 c 128,-1,18
 234 290 234 290 216.5 296 c 128,-1,19
 199 302 199 302 178 302 c 0,20,21
 152 302 152 302 129 291 c 128,-1,22
 106 280 106 280 85 266 c 1,23,-1
 85 344 l 1,0,1
EndSplineSet
EndChar

StartChar: exclamdown
Encoding: 161 161 96
Width: 250
Flags: W
LayerCount: 2
Fore
SplineSet
175 500 m 1,0,-1
 175 400 l 1,1,-1
 75 400 l 1,2,-1
 75 500 l 1,3,-1
 175 500 l 1,0,-1
168 292 m 1,4,-1
 168 -200 l 1,5,-1
 83 -200 l 1,6,-1
 83 292 l 1,7,-1
 168 292 l 1,4,-1
EndSplineSet
EndChar

StartChar: cent
Encoding: 162 162 97
Width: 470
Flags: W
LayerCount: 2
Fore
SplineSet
237 -110 m 1,0,-1
 237 -6 l 1,1,2
 203 -3 203 -3 177 10.5 c 128,-1,3
 151 24 151 24 134 54 c 128,-1,4
 117 84 117 84 108 133.5 c 128,-1,5
 99 183 99 183 99 259 c 0,6,7
 99 379 99 379 132.5 436 c 128,-1,8
 166 493 166 493 237 503 c 1,9,-1
 237 600 l 1,10,-1
 317 600 l 1,11,-1
 317 503 l 1,12,13
 335 501 335 501 352 497.5 c 128,-1,14
 369 494 369 494 383 491 c 1,15,-1
 383 417 l 1,16,17
 355 423 355 423 330 427 c 128,-1,18
 305 431 305 431 267 431 c 0,19,20
 245 431 245 431 230 422 c 128,-1,21
 215 413 215 413 205 390.5 c 128,-1,22
 195 368 195 368 190.5 331.5 c 128,-1,23
 186 295 186 295 186 239 c 256,24,25
 186 183 186 183 191.5 149 c 128,-1,26
 197 115 197 115 207.5 97 c 128,-1,27
 218 79 218 79 233 73 c 128,-1,28
 248 67 248 67 267 67 c 0,29,30
 308 67 308 67 334.5 72 c 128,-1,31
 361 77 361 77 383 82 c 1,32,-1
 383 8 l 1,33,34
 368 3 368 3 351 0 c 128,-1,35
 334 -3 334 -3 317 -5 c 1,36,-1
 317 -110 l 1,37,-1
 237 -110 l 1,0,-1
EndSplineSet
EndChar

StartChar: sterling
Encoding: 163 163 98
Width: 470
Flags: W
LayerCount: 2
Fore
SplineSet
223 413 m 1,0,-1
 351 413 l 1,1,-1
 351 340 l 1,2,-1
 223 340 l 1,3,-1
 223 73 l 1,4,-1
 421 73 l 1,5,-1
 421 0 l 1,6,-1
 66 0 l 1,7,-1
 66 73 l 1,8,-1
 136 73 l 1,9,-1
 136 340 l 1,10,-1
 66 340 l 1,11,-1
 66 413 l 1,12,-1
 136 413 l 1,13,-1
 136 469 l 2,14,15
 136 543 136 543 146 589.5 c 128,-1,16
 156 636 156 636 178 662 c 128,-1,17
 200 688 200 688 233.5 697.5 c 128,-1,18
 267 707 267 707 315 707 c 0,19,20
 332 707 332 707 359.5 704.5 c 128,-1,21
 387 702 387 702 411 698 c 1,22,-1
 411 623 l 1,23,24
 401 625 401 625 387.5 626.5 c 128,-1,25
 374 628 374 628 361.5 629.5 c 128,-1,26
 349 631 349 631 338 631.5 c 128,-1,27
 327 632 327 632 321 632 c 0,28,29
 291 632 291 632 272 627 c 128,-1,30
 253 622 253 622 242 605.5 c 128,-1,31
 231 589 231 589 227 558 c 128,-1,32
 223 527 223 527 223 476 c 2,33,-1
 223 413 l 1,0,-1
EndSplineSet
EndChar

StartChar: fraction
Encoding: 8260 8260 99
Width: 230
Flags: W
LayerCount: 2
Fore
SplineSet
-5 -100 m 1,0,-1
 -85 -100 l 1,1,-1
 235 810 l 1,2,-1
 315 810 l 1,3,-1
 -5 -100 l 1,0,-1
EndSplineSet
EndChar

StartChar: yen
Encoding: 165 165 100
Width: 470
Flags: W
LayerCount: 2
Fore
SplineSet
279 115 m 1,0,-1
 279 0 l 1,1,-1
 189 0 l 1,2,-1
 189 115 l 1,3,-1
 59 115 l 1,4,-1
 59 190 l 1,5,-1
 189 190 l 1,6,-1
 189 265 l 1,7,-1
 59 265 l 1,8,-1
 59 340 l 1,9,-1
 186 340 l 1,10,-1
 20 700 l 1,11,-1
 116 700 l 1,12,-1
 238 427 l 1,13,-1
 359 700 l 1,14,-1
 450 700 l 1,15,-1
 281 340 l 1,16,-1
 409 340 l 1,17,-1
 409 265 l 1,18,-1
 279 265 l 1,19,-1
 279 190 l 1,20,-1
 409 190 l 1,21,-1
 409 115 l 1,22,-1
 279 115 l 1,0,-1
EndSplineSet
EndChar

StartChar: florin
Encoding: 402 402 101
Width: 310
Flags: W
LayerCount: 2
Fore
SplineSet
180 427 m 1,0,-1
 180 -43 l 2,1,2
 180 -71 180 -71 172 -95 c 128,-1,3
 164 -119 164 -119 148.5 -137 c 128,-1,4
 133 -155 133 -155 110 -165 c 128,-1,5
 87 -175 87 -175 56 -175 c 0,6,7
 32 -175 32 -175 10.5 -173.5 c 128,-1,8
 -11 -172 -11 -172 -31 -170 c 1,9,-1
 -31 -99 l 1,10,11
 -15 -101 -15 -101 8 -102 c 128,-1,12
 31 -103 31 -103 43 -103 c 0,13,14
 95 -103 95 -103 95 -48 c 2,15,-1
 95 427 l 1,16,-1
 30 427 l 1,17,-1
 30 500 l 1,18,-1
 95 500 l 1,19,-1
 95 578 l 2,20,21
 95 643 95 643 130 675 c 128,-1,22
 165 707 165 707 222 707 c 0,23,24
 254 707 254 707 277.5 702.5 c 128,-1,25
 301 698 301 698 316 695 c 1,26,-1
 316 624 l 1,27,28
 300 628 300 628 281 631.5 c 128,-1,29
 262 635 262 635 235 635 c 256,30,31
 208 635 208 635 194 621 c 128,-1,32
 180 607 180 607 180 585 c 2,33,-1
 180 500 l 1,34,-1
 301 500 l 1,35,-1
 301 427 l 1,36,-1
 180 427 l 1,0,-1
EndSplineSet
EndChar

StartChar: section
Encoding: 167 167 102
Width: 470
Flags: W
LayerCount: 2
Fore
SplineSet
83 347 m 0,0,1
 83 388 83 388 100.5 415 c 128,-1,2
 118 442 118 442 145 459 c 1,3,4
 123 474 123 474 112 501 c 128,-1,5
 101 528 101 528 101 560 c 0,6,7
 101 601 101 601 114 629 c 128,-1,8
 127 657 127 657 149.5 674 c 128,-1,9
 172 691 172 691 202.5 699 c 128,-1,10
 233 707 233 707 269 707 c 0,11,12
 308 707 308 707 334.5 702 c 128,-1,13
 361 697 361 697 376 693 c 1,14,-1
 376 619 l 1,15,16
 350 626 350 626 326 631 c 128,-1,17
 302 636 302 636 261 636 c 0,18,19
 239 636 239 636 224.5 629 c 128,-1,20
 210 622 210 622 201 611.5 c 128,-1,21
 192 601 192 601 188 588.5 c 128,-1,22
 184 576 184 576 184 565 c 0,23,24
 184 504 184 504 248 494 c 0,25,26
 326 481 326 481 356.5 443.5 c 128,-1,27
 387 406 387 406 387 353 c 0,28,29
 387 310 387 310 368.5 283.5 c 128,-1,30
 350 257 350 257 322 240 c 1,31,32
 347 224 347 224 358 196 c 128,-1,33
 369 168 369 168 369 139 c 0,34,35
 369 99 369 99 356 71.5 c 128,-1,36
 343 44 343 44 320.5 26.5 c 128,-1,37
 298 9 298 9 267.5 1 c 128,-1,38
 237 -7 237 -7 201 -7 c 0,39,40
 162 -7 162 -7 135.5 -1.5 c 128,-1,41
 109 4 109 4 94 8 c 1,42,-1
 94 80 l 1,43,44
 120 74 120 74 144 69.5 c 128,-1,45
 168 65 168 65 209 65 c 0,46,47
 231 65 231 65 245.5 72 c 128,-1,48
 260 79 260 79 269 89.5 c 128,-1,49
 278 100 278 100 282 112 c 128,-1,50
 286 124 286 124 286 134 c 0,51,52
 286 163 286 163 270.5 182 c 128,-1,53
 255 201 255 201 222 206 c 0,54,55
 144 219 144 219 113.5 257 c 128,-1,56
 83 295 83 295 83 347 c 0,0,1
301 348 m 0,57,58
 301 365 301 365 298 378.5 c 128,-1,59
 295 392 295 392 286 402.5 c 128,-1,60
 277 413 277 413 260 420.5 c 128,-1,61
 243 428 243 428 215 433 c 1,62,63
 196 426 196 426 182.5 402.5 c 128,-1,64
 169 379 169 379 169 352 c 0,65,66
 169 335 169 335 171.5 321.5 c 128,-1,67
 174 308 174 308 182.5 297.5 c 128,-1,68
 191 287 191 287 207.5 280 c 128,-1,69
 224 273 224 273 251 268 c 1,70,71
 259 272 259 272 267.5 280 c 128,-1,72
 276 288 276 288 283.5 298.5 c 128,-1,73
 291 309 291 309 296 322 c 128,-1,74
 301 335 301 335 301 348 c 0,57,58
EndSplineSet
EndChar

StartChar: currency
Encoding: 164 164 103
Width: 570
Flags: W
LayerCount: 2
Fore
SplineSet
421 106 m 1,0,1
 393 85 393 85 358.5 75 c 128,-1,2
 324 65 324 65 285 65 c 0,3,4
 203 65 203 65 147 106 c 1,5,-1
 88 47 l 1,6,-1
 32 103 l 1,7,-1
 95 166 l 1,8,9
 81 192 81 192 73 225.5 c 128,-1,10
 65 259 65 259 65 300 c 256,11,12
 65 341 65 341 73 374 c 128,-1,13
 81 407 81 407 95 433 c 1,14,-1
 32 497 l 1,15,-1
 88 553 l 1,16,-1
 147 494 l 1,17,18
 205 535 205 535 285 535 c 256,19,20
 365 535 365 535 421 494 c 1,21,-1
 481 553 l 1,22,-1
 537 497 l 1,23,-1
 474 433 l 1,24,25
 488 407 488 407 496 374 c 128,-1,26
 504 341 504 341 504 300 c 256,27,28
 504 259 504 259 496 225.5 c 128,-1,29
 488 192 488 192 474 166 c 1,30,-1
 537 103 l 1,31,-1
 481 47 l 1,32,-1
 421 106 l 1,0,1
417 300 m 0,33,34
 417 341 417 341 407 371.5 c 128,-1,35
 397 402 397 402 379 423 c 128,-1,36
 361 444 361 444 337 454.5 c 128,-1,37
 313 465 313 465 285 465 c 256,38,39
 257 465 257 465 232.5 454.5 c 128,-1,40
 208 444 208 444 190 423 c 128,-1,41
 172 402 172 402 162 371.5 c 128,-1,42
 152 341 152 341 152 300 c 0,43,44
 152 260 152 260 162 229 c 128,-1,45
 172 198 172 198 190 177 c 128,-1,46
 208 156 208 156 232.5 145.5 c 128,-1,47
 257 135 257 135 285 135 c 256,48,49
 313 135 313 135 337 145.5 c 128,-1,50
 361 156 361 156 379 177 c 128,-1,51
 397 198 397 198 407 229 c 128,-1,52
 417 260 417 260 417 300 c 0,33,34
EndSplineSet
EndChar

StartChar: quotesingle
Encoding: 39 39 104
Width: 205
Flags: W
LayerCount: 2
Fore
SplineSet
130 453 m 1,0,-1
 75 453 l 1,1,-1
 55 610 l 1,2,-1
 55 700 l 1,3,-1
 150 700 l 1,4,-1
 150 610 l 1,5,-1
 130 453 l 1,0,-1
EndSplineSet
EndChar

StartChar: quotedblleft
Encoding: 8220 8220 105
Width: 380
Flags: W
LayerCount: 2
Fore
SplineSet
115 699 m 1,0,-1
 180 699 l 1,1,-1
 150 542 l 1,2,-1
 150 452 l 1,3,-1
 55 452 l 1,4,-1
 55 542 l 1,5,-1
 115 699 l 1,0,-1
270 699 m 1,6,-1
 335 699 l 1,7,-1
 305 542 l 1,8,-1
 305 452 l 1,9,-1
 210 452 l 1,10,-1
 210 542 l 1,11,-1
 270 699 l 1,6,-1
EndSplineSet
EndChar

StartChar: guillemotleft
Encoding: 171 171 106
Width: 465
Flags: W
LayerCount: 2
Fore
SplineSet
164 92 m 1,0,-1
 75 299 l 1,1,-1
 164 506 l 1,2,-1
 230 506 l 1,3,-1
 167 299 l 1,4,-1
 230 92 l 1,5,-1
 164 92 l 1,0,-1
324 92 m 1,6,-1
 235 299 l 1,7,-1
 324 506 l 1,8,-1
 390 506 l 1,9,-1
 327 299 l 1,10,-1
 390 92 l 1,11,-1
 324 92 l 1,6,-1
EndSplineSet
EndChar

StartChar: guilsinglleft
Encoding: 8249 8249 107
Width: 305
Flags: W
LayerCount: 2
Fore
SplineSet
164 92 m 1,0,-1
 75 299 l 1,1,-1
 164 506 l 1,2,-1
 230 506 l 1,3,-1
 167 299 l 1,4,-1
 230 92 l 1,5,-1
 164 92 l 1,0,-1
EndSplineSet
EndChar

StartChar: guilsinglright
Encoding: 8250 8250 108
Width: 305
Flags: W
LayerCount: 2
Fore
SplineSet
75 92 m 1,0,-1
 138 299 l 1,1,-1
 75 506 l 1,2,-1
 141 506 l 1,3,-1
 230 299 l 1,4,-1
 141 92 l 1,5,-1
 75 92 l 1,0,-1
EndSplineSet
EndChar

StartChar: fi
Encoding: 64257 64257 109
Width: 515
Flags: W
LayerCount: 2
Fore
SplineSet
414 617 m 1,0,1
 377 628 377 628 339.5 632.5 c 128,-1,2
 302 637 302 637 275 637 c 0,3,4
 244 637 244 637 225.5 632 c 128,-1,5
 207 627 207 627 197 618 c 128,-1,6
 187 609 187 609 183.5 595.5 c 128,-1,7
 180 582 180 582 180 565 c 2,8,-1
 180 500 l 1,9,-1
 435 500 l 1,10,-1
 435 0 l 1,11,-1
 350 0 l 1,12,-1
 350 427 l 1,13,-1
 180 427 l 1,14,-1
 180 0 l 1,15,-1
 95 0 l 1,16,-1
 95 427 l 1,17,-1
 30 427 l 1,18,-1
 30 500 l 1,19,-1
 95 500 l 1,20,-1
 95 558 l 2,21,22
 95 593 95 593 103.5 621 c 128,-1,23
 112 649 112 649 131.5 668 c 128,-1,24
 151 687 151 687 183 697 c 128,-1,25
 215 707 215 707 262 707 c 0,26,27
 294 707 294 707 334 701.5 c 128,-1,28
 374 696 374 696 414 687 c 1,29,-1
 414 617 l 1,0,1
EndSplineSet
Ligature2: "'liga' Standard Ligatures in Latin lookup 3 subtable" f i
EndChar

StartChar: fl
Encoding: 64258 64258 110
Width: 530
Flags: W
LayerCount: 2
Fore
SplineSet
180 427 m 1,0,-1
 180 0 l 1,1,-1
 95 0 l 1,2,-1
 95 427 l 1,3,-1
 30 427 l 1,4,-1
 30 500 l 1,5,-1
 95 500 l 1,6,-1
 95 558 l 2,7,8
 95 593 95 593 103.5 621 c 128,-1,9
 112 649 112 649 131.5 668 c 128,-1,10
 151 687 151 687 183 697 c 128,-1,11
 215 707 215 707 262 707 c 0,12,13
 294 707 294 707 317.5 704.5 c 128,-1,14
 341 702 341 702 350 700 c 1,15,-1
 435 700 l 1,16,-1
 435 117 l 2,17,18
 435 91 435 91 441.5 80.5 c 128,-1,19
 448 70 448 70 468 70 c 0,20,21
 476 70 476 70 483.5 72 c 128,-1,22
 491 74 491 74 495 75 c 1,23,-1
 495 5 l 1,24,25
 484 3 484 3 469.5 0.5 c 128,-1,26
 455 -2 455 -2 435 -2 c 0,27,28
 420 -2 420 -2 405 3 c 128,-1,29
 390 8 390 8 378 21 c 128,-1,30
 366 34 366 34 358 56 c 128,-1,31
 350 78 350 78 350 112 c 2,32,-1
 350 632 l 1,33,34
 329 634 329 634 309.5 635.5 c 128,-1,35
 290 637 290 637 275 637 c 0,36,37
 244 637 244 637 225.5 632 c 128,-1,38
 207 627 207 627 197 618 c 128,-1,39
 187 609 187 609 183.5 595.5 c 128,-1,40
 180 582 180 582 180 565 c 2,41,-1
 180 500 l 1,42,-1
 276 500 l 1,43,-1
 276 427 l 1,44,-1
 180 427 l 1,0,-1
EndSplineSet
Ligature2: "'liga' Standard Ligatures in Latin lookup 3 subtable" f l
EndChar

StartChar: endash
Encoding: 8211 8211 111
Width: 550
Flags: W
LayerCount: 2
Fore
SplineSet
85 275 m 1,0,-1
 85 350 l 1,1,-1
 465 350 l 1,2,-1
 465 275 l 1,3,-1
 85 275 l 1,0,-1
EndSplineSet
EndChar

StartChar: dagger
Encoding: 8224 8224 112
Width: 470
Flags: W
LayerCount: 2
Fore
SplineSet
196 0 m 1,0,-1
 196 425 l 1,1,-1
 55 425 l 1,2,-1
 55 500 l 1,3,-1
 196 500 l 1,4,-1
 196 700 l 1,5,-1
 276 700 l 1,6,-1
 276 500 l 1,7,-1
 416 500 l 1,8,-1
 416 425 l 1,9,-1
 276 425 l 1,10,-1
 276 0 l 1,11,-1
 196 0 l 1,0,-1
EndSplineSet
EndChar

StartChar: daggerdbl
Encoding: 8225 8225 113
Width: 470
Flags: W
LayerCount: 2
Fore
SplineSet
196 0 m 1,0,-1
 196 210 l 1,1,-1
 55 210 l 1,2,-1
 55 285 l 1,3,-1
 196 285 l 1,4,-1
 196 425 l 1,5,-1
 55 425 l 1,6,-1
 55 500 l 1,7,-1
 196 500 l 1,8,-1
 196 700 l 1,9,-1
 276 700 l 1,10,-1
 276 500 l 1,11,-1
 416 500 l 1,12,-1
 416 425 l 1,13,-1
 276 425 l 1,14,-1
 276 285 l 1,15,-1
 416 285 l 1,16,-1
 416 210 l 1,17,-1
 276 210 l 1,18,-1
 276 0 l 1,19,-1
 196 0 l 1,0,-1
EndSplineSet
EndChar

StartChar: periodcentered
Encoding: 183 183 114
Width: 230
Flags: W
LayerCount: 2
Fore
SplineSet
65 260 m 1,0,-1
 65 360 l 1,1,-1
 165 360 l 1,2,-1
 165 260 l 1,3,-1
 65 260 l 1,0,-1
EndSplineSet
EndChar

StartChar: paragraph
Encoding: 182 182 115
Width: 510
Flags: W
LayerCount: 2
Fore
SplineSet
360 0 m 1,0,-1
 360 700 l 1,1,-1
 440 700 l 1,2,-1
 440 0 l 1,3,-1
 360 0 l 1,0,-1
305 0 m 1,4,-1
 222 0 l 1,5,-1
 222 374 l 1,6,-1
 198 374 l 2,7,8
 171 374 171 374 145.5 380.5 c 128,-1,9
 120 387 120 387 100 405.5 c 128,-1,10
 80 424 80 424 67.5 457 c 128,-1,11
 55 490 55 490 55 543 c 0,12,13
 55 588 55 588 68 619.5 c 128,-1,14
 81 651 81 651 102 670.5 c 128,-1,15
 123 690 123 690 150 698.5 c 128,-1,16
 177 707 177 707 205 707 c 0,17,18
 248 707 248 707 275 704 c 0,19,20
 291 702 291 702 305 700 c 1,21,-1
 305 633 l 1,22,23
 285 637 285 637 267 638.5 c 128,-1,24
 249 640 249 640 234 640 c 0,25,26
 178 640 178 640 154.5 617.5 c 128,-1,27
 131 595 131 595 131 541 c 0,28,29
 131 495 131 495 145 468.5 c 128,-1,30
 159 442 159 442 203 442 c 2,31,-1
 305 442 l 1,32,-1
 305 0 l 1,4,-1
EndSplineSet
EndChar

StartChar: bullet
Encoding: 8226 8226 116
Width: 290
Flags: W
LayerCount: 2
Fore
SplineSet
70 235 m 1,0,-1
 70 390 l 1,1,-1
 220 390 l 1,2,-1
 220 235 l 1,3,-1
 70 235 l 1,0,-1
EndSplineSet
EndChar

StartChar: quotesinglbase
Encoding: 8218 8218 117
Width: 220
Flags: W
LayerCount: 2
Fore
SplineSet
115 -157 m 1,0,-1
 50 -157 l 1,1,-1
 80 0 l 1,2,-1
 80 90 l 1,3,-1
 175 90 l 1,4,-1
 175 0 l 1,5,-1
 115 -157 l 1,0,-1
EndSplineSet
EndChar

StartChar: quotedblbase
Encoding: 8222 8222 118
Width: 375
Flags: W
LayerCount: 2
Fore
SplineSet
270 -157 m 1,0,-1
 205 -157 l 1,1,-1
 235 0 l 1,2,-1
 235 90 l 1,3,-1
 330 90 l 1,4,-1
 330 0 l 1,5,-1
 270 -157 l 1,0,-1
115 -157 m 1,6,-1
 50 -157 l 1,7,-1
 80 0 l 1,8,-1
 80 90 l 1,9,-1
 175 90 l 1,10,-1
 175 0 l 1,11,-1
 115 -157 l 1,6,-1
EndSplineSet
EndChar

StartChar: quotedblright
Encoding: 8221 8221 119
Width: 380
Flags: W
LayerCount: 2
Fore
SplineSet
265 453 m 1,0,-1
 200 453 l 1,1,-1
 230 610 l 1,2,-1
 230 700 l 1,3,-1
 325 700 l 1,4,-1
 325 610 l 1,5,-1
 265 453 l 1,0,-1
110 453 m 1,6,-1
 45 453 l 1,7,-1
 75 610 l 1,8,-1
 75 700 l 1,9,-1
 170 700 l 1,10,-1
 170 610 l 1,11,-1
 110 453 l 1,6,-1
EndSplineSet
EndChar

StartChar: guillemotright
Encoding: 187 187 120
Width: 465
Flags: W
LayerCount: 2
Fore
SplineSet
235 92 m 1,0,-1
 298 299 l 1,1,-1
 235 506 l 1,2,-1
 301 506 l 1,3,-1
 390 299 l 1,4,-1
 301 92 l 1,5,-1
 235 92 l 1,0,-1
75 92 m 1,6,-1
 138 299 l 1,7,-1
 75 506 l 1,8,-1
 141 506 l 1,9,-1
 230 299 l 1,10,-1
 141 92 l 1,11,-1
 75 92 l 1,6,-1
EndSplineSet
EndChar

StartChar: ellipsis
Encoding: 8230 8230 121
Width: 670
Flags: W
LayerCount: 2
Fore
SplineSet
65 0 m 1,0,-1
 65 100 l 1,1,-1
 165 100 l 1,2,-1
 165 0 l 1,3,-1
 65 0 l 1,0,-1
285 0 m 1,4,-1
 285 100 l 1,5,-1
 385 100 l 1,6,-1
 385 0 l 1,7,-1
 285 0 l 1,4,-1
505 0 m 1,8,-1
 505 100 l 1,9,-1
 605 100 l 1,10,-1
 605 0 l 1,11,-1
 505 0 l 1,8,-1
EndSplineSet
EndChar

StartChar: perthousand
Encoding: 8240 8240 122
Width: 1178
Flags: W
LayerCount: 2
Fore
SplineSet
290 496 m 256,0,1
 290 577 290 577 275 612.5 c 128,-1,2
 260 648 260 648 222 648 c 256,3,4
 184 648 184 648 169 612.5 c 128,-1,5
 154 577 154 577 154 496 c 256,6,7
 154 415 154 415 169 379.5 c 128,-1,8
 184 344 184 344 222 344 c 256,9,10
 260 344 260 344 275 379.5 c 128,-1,11
 290 415 290 415 290 496 c 256,0,1
359 500 m 256,12,13
 359 453 359 453 354 413.5 c 128,-1,14
 349 374 349 374 334 345.5 c 128,-1,15
 319 317 319 317 292.5 301 c 128,-1,16
 266 285 266 285 222 285 c 0,17,18
 179 285 179 285 152 301 c 128,-1,19
 125 317 125 317 110 345.5 c 128,-1,20
 95 374 95 374 90 413.5 c 128,-1,21
 85 453 85 453 85 500 c 256,22,23
 85 547 85 547 90 585 c 128,-1,24
 95 623 95 623 110 650 c 128,-1,25
 125 677 125 677 152 692 c 128,-1,26
 179 707 179 707 222 707 c 0,27,28
 266 707 266 707 293 692 c 128,-1,29
 320 677 320 677 334.5 650 c 128,-1,30
 349 623 349 623 354 585 c 128,-1,31
 359 547 359 547 359 500 c 256,12,13
345 0 m 1,32,-1
 267 0 l 1,33,-1
 512 700 l 1,34,-1
 590 700 l 1,35,-1
 345 0 l 1,32,-1
702 204 m 256,36,37
 702 285 702 285 687 320.5 c 128,-1,38
 672 356 672 356 634 356 c 256,39,40
 596 356 596 356 581 320.5 c 128,-1,41
 566 285 566 285 566 204 c 256,42,43
 566 123 566 123 581 87.5 c 128,-1,44
 596 52 596 52 634 52 c 256,45,46
 672 52 672 52 687 87.5 c 128,-1,47
 702 123 702 123 702 204 c 256,36,37
771 208 m 256,48,49
 771 161 771 161 766 121.5 c 128,-1,50
 761 82 761 82 746 53.5 c 128,-1,51
 731 25 731 25 704.5 9 c 128,-1,52
 678 -7 678 -7 634 -7 c 0,53,54
 591 -7 591 -7 564 9 c 128,-1,55
 537 25 537 25 522 53.5 c 128,-1,56
 507 82 507 82 502 121.5 c 128,-1,57
 497 161 497 161 497 208 c 256,58,59
 497 255 497 255 502 293 c 128,-1,60
 507 331 507 331 522 358 c 128,-1,61
 537 385 537 385 564 400 c 128,-1,62
 591 415 591 415 634 415 c 0,63,64
 678 415 678 415 705 400 c 128,-1,65
 732 385 732 385 746.5 358 c 128,-1,66
 761 331 761 331 766 293 c 128,-1,67
 771 255 771 255 771 208 c 256,48,49
1024 204 m 256,68,69
 1024 285 1024 285 1009 320.5 c 128,-1,70
 994 356 994 356 956 356 c 256,71,72
 918 356 918 356 903 320.5 c 128,-1,73
 888 285 888 285 888 204 c 256,74,75
 888 123 888 123 903 87.5 c 128,-1,76
 918 52 918 52 956 52 c 256,77,78
 994 52 994 52 1009 87.5 c 128,-1,79
 1024 123 1024 123 1024 204 c 256,68,69
1093 208 m 256,80,81
 1093 161 1093 161 1088 121.5 c 128,-1,82
 1083 82 1083 82 1068 53.5 c 128,-1,83
 1053 25 1053 25 1026.5 9 c 128,-1,84
 1000 -7 1000 -7 956 -7 c 0,85,86
 913 -7 913 -7 886 9 c 128,-1,87
 859 25 859 25 844 53.5 c 128,-1,88
 829 82 829 82 824 121.5 c 128,-1,89
 819 161 819 161 819 208 c 256,90,91
 819 255 819 255 824 293 c 128,-1,92
 829 331 829 331 844 358 c 128,-1,93
 859 385 859 385 886 400 c 128,-1,94
 913 415 913 415 956 415 c 0,95,96
 1000 415 1000 415 1027 400 c 128,-1,97
 1054 385 1054 385 1068.5 358 c 128,-1,98
 1083 331 1083 331 1088 293 c 128,-1,99
 1093 255 1093 255 1093 208 c 256,80,81
EndSplineSet
Ligature2: "'frac' Diagonal Fractions in Latin lookup 1 subtable" zero fraction zero zero
Ligature2: "'frac' Diagonal Fractions in Latin lookup 1 subtable" zero slash zero zero
EndChar

StartChar: questiondown
Encoding: 191 191 123
Width: 360
Flags: W
LayerCount: 2
Fore
SplineSet
256 500 m 1,0,-1
 256 400 l 1,1,-1
 156 400 l 1,2,-1
 156 500 l 1,3,-1
 256 500 l 1,0,-1
35 -40 m 0,4,5
 35 -11 35 -11 37.5 8.5 c 128,-1,6
 40 28 40 28 47.5 45.5 c 128,-1,7
 55 63 55 63 70 82.5 c 128,-1,8
 85 102 85 102 110 132 c 2,9,-1
 164 196 l 1,10,-1
 164 292 l 1,11,-1
 249 292 l 1,12,-1
 249 171 l 1,13,-1
 189 100 l 2,14,15
 165 71 165 71 151 53.5 c 128,-1,16
 137 36 137 36 130 21 c 128,-1,17
 123 6 123 6 121.5 -9.5 c 128,-1,18
 120 -25 120 -25 120 -49 c 0,19,20
 120 -98 120 -98 142.5 -116 c 128,-1,21
 165 -134 165 -134 203 -134 c 0,22,23
 234 -134 234 -134 268 -128.5 c 128,-1,24
 302 -123 302 -123 325 -118 c 1,25,-1
 325 -191 l 1,26,27
 315 -193 315 -193 301.5 -196 c 128,-1,28
 288 -199 288 -199 273 -201.5 c 128,-1,29
 258 -204 258 -204 242.5 -205.5 c 128,-1,30
 227 -207 227 -207 213 -207 c 0,31,32
 172 -207 172 -207 139 -200.5 c 128,-1,33
 106 -194 106 -194 83 -176 c 128,-1,34
 60 -158 60 -158 47.5 -125.5 c 128,-1,35
 35 -93 35 -93 35 -40 c 0,4,5
EndSplineSet
EndChar

StartChar: grave
Encoding: 96 96 124
Width: 303
Flags: W
LayerCount: 2
Fore
SplineSet
179 580 m 1,0,-1
 47 715 l 1,1,-1
 156 715 l 1,2,-1
 260 580 l 1,3,-1
 179 580 l 1,0,-1
EndSplineSet
EndChar

StartChar: acute
Encoding: 180 180 125
Width: 303
Flags: W
LayerCount: 2
Fore
SplineSet
45 580 m 1,0,-1
 149 715 l 1,1,-1
 258 715 l 1,2,-1
 126 580 l 1,3,-1
 45 580 l 1,0,-1
EndSplineSet
EndChar

StartChar: circumflex
Encoding: 710 710 126
Width: 383
Flags: W
LayerCount: 2
Fore
SplineSet
251 580 m 1,0,-1
 191 664 l 1,1,-1
 131 580 l 1,2,-1
 35 580 l 1,3,-1
 147 715 l 1,4,-1
 235 715 l 1,5,-1
 348 580 l 1,6,-1
 251 580 l 1,0,-1
EndSplineSet
EndChar

StartChar: tilde
Encoding: 732 732 127
Width: 350
Flags: W
LayerCount: 2
Fore
SplineSet
35 667 m 1,0,1
 58 686 58 686 79.5 693 c 128,-1,2
 101 700 101 700 121 700 c 0,3,4
 139 700 139 700 153.5 694 c 128,-1,5
 168 688 168 688 181 680.5 c 128,-1,6
 194 673 194 673 207 667 c 128,-1,7
 220 661 220 661 235 661 c 0,8,9
 261 661 261 661 278 670.5 c 128,-1,10
 295 680 295 680 315 697 c 1,11,-1
 315 624 l 1,12,13
 295 605 295 605 275 598 c 128,-1,14
 255 591 255 591 229 591 c 0,15,16
 210 591 210 591 196 597 c 128,-1,17
 182 603 182 603 169.5 610.5 c 128,-1,18
 157 618 157 618 144 624 c 128,-1,19
 131 630 131 630 115 630 c 0,20,21
 89 630 89 630 70 619 c 128,-1,22
 51 608 51 608 35 594 c 1,23,-1
 35 667 l 1,0,1
EndSplineSet
EndChar

StartChar: macron
Encoding: 175 175 128
Width: 325
Flags: W
LayerCount: 2
Fore
SplineSet
35 605 m 1,0,-1
 35 675 l 1,1,-1
 290 675 l 1,2,-1
 290 605 l 1,3,-1
 35 605 l 1,0,-1
EndSplineSet
EndChar

StartChar: breve
Encoding: 728 728 129
Width: 354
Flags: W
LayerCount: 2
Fore
SplineSet
319 715 m 1,0,1
 316 694 316 694 308 671.5 c 128,-1,2
 300 649 300 649 284 629.5 c 128,-1,3
 268 610 268 610 242 597.5 c 128,-1,4
 216 585 216 585 177 585 c 256,5,6
 138 585 138 585 112 597.5 c 128,-1,7
 86 610 86 610 70 629.5 c 128,-1,8
 54 649 54 649 46 671.5 c 128,-1,9
 38 694 38 694 35 715 c 1,10,-1
 117 715 l 1,11,12
 119 688 119 688 131.5 667 c 128,-1,13
 144 646 144 646 177 646 c 256,14,15
 210 646 210 646 222.5 667 c 128,-1,16
 235 688 235 688 238 715 c 1,17,-1
 319 715 l 1,0,1
EndSplineSet
EndChar

StartChar: dotaccent
Encoding: 729 729 130
Width: 164
Flags: W
LayerCount: 2
Fore
SplineSet
35 615 m 1,0,-1
 35 700 l 1,1,-1
 120 700 l 1,2,-1
 120 615 l 1,3,-1
 35 615 l 1,0,-1
EndSplineSet
EndChar

StartChar: dieresis
Encoding: 168 168 131
Width: 355
Flags: W
LayerCount: 2
Fore
SplineSet
235 595 m 1,0,-1
 235 675 l 1,1,-1
 320 675 l 1,2,-1
 320 595 l 1,3,-1
 235 595 l 1,0,-1
35 595 m 1,4,-1
 35 675 l 1,5,-1
 120 675 l 1,6,-1
 120 595 l 1,7,-1
 35 595 l 1,4,-1
EndSplineSet
EndChar

StartChar: ring
Encoding: 730 730 132
Width: 260
Flags: W
LayerCount: 2
Fore
SplineSet
167 646 m 0,0,1
 167 666 167 666 159.5 680.5 c 128,-1,2
 152 695 152 695 129 695 c 0,3,4
 107 695 107 695 99.5 679.5 c 128,-1,5
 92 664 92 664 92 646 c 0,6,7
 92 629 92 629 99.5 613 c 128,-1,8
 107 597 107 597 129 597 c 0,9,10
 154 597 154 597 160.5 612 c 128,-1,11
 167 627 167 627 167 646 c 0,0,1
225 645 m 0,12,13
 225 601 225 601 199 572 c 128,-1,14
 173 543 173 543 129 543 c 256,15,16
 85 543 85 543 60 572.5 c 128,-1,17
 35 602 35 602 35 645 c 0,18,19
 35 689 35 689 60 718 c 128,-1,20
 85 747 85 747 129 747 c 0,21,22
 174 747 174 747 199.5 718.5 c 128,-1,23
 225 690 225 690 225 645 c 0,12,13
EndSplineSet
EndChar

StartChar: cedilla
Encoding: 184 184 133
Width: 302
Flags: W
LayerCount: 2
Fore
SplineSet
66 -131 m 1,0,1
 80 -134 80 -134 94.5 -135.5 c 128,-1,2
 109 -137 109 -137 120 -137 c 0,3,4
 140 -137 140 -137 150.5 -131 c 128,-1,5
 161 -125 161 -125 161 -106 c 0,6,7
 161 -99 161 -99 157.5 -93 c 128,-1,8
 154 -87 154 -87 145 -83.5 c 128,-1,9
 136 -80 136 -80 120.5 -78 c 128,-1,10
 105 -76 105 -76 80 -76 c 1,11,-1
 100 50 l 1,12,-1
 165 50 l 1,13,-1
 154 -27 l 1,14,15
 199 -32 199 -32 218 -51.5 c 128,-1,16
 237 -71 237 -71 237 -109 c 0,17,18
 237 -157 237 -157 207.5 -178.5 c 128,-1,19
 178 -200 178 -200 129 -200 c 0,20,21
 111 -200 111 -200 96.5 -198 c 128,-1,22
 82 -196 82 -196 66 -193 c 1,23,-1
 66 -131 l 1,0,1
EndSplineSet
EndChar

StartChar: hungarumlaut
Encoding: 733 733 134
Width: 463
Flags: W
LayerCount: 2
Fore
SplineSet
111 598 m 1,0,-1
 35 598 l 1,1,-1
 138 745 l 1,2,-1
 258 745 l 1,3,-1
 111 598 l 1,0,-1
281 598 m 1,4,-1
 205 598 l 1,5,-1
 308 745 l 1,6,-1
 428 745 l 1,7,-1
 281 598 l 1,4,-1
EndSplineSet
EndChar

StartChar: ogonek
Encoding: 731 731 135
Width: 318
Flags: W
LayerCount: 2
Fore
SplineSet
254 -170 m 1,0,1
 240 -174 240 -174 218.5 -177 c 128,-1,2
 197 -180 197 -180 179 -180 c 0,3,4
 147 -180 147 -180 125.5 -174.5 c 128,-1,5
 104 -169 104 -169 90.5 -156 c 128,-1,6
 77 -143 77 -143 71 -122 c 128,-1,7
 65 -101 65 -101 65 -70 c 0,8,9
 65 -33 65 -33 82.5 3 c 128,-1,10
 100 39 100 39 119 60 c 1,11,-1
 188 60 l 1,12,13
 168 30 168 30 156 -7.5 c 128,-1,14
 144 -45 144 -45 144 -69 c 0,15,16
 144 -95 144 -95 154.5 -103.5 c 128,-1,17
 165 -112 165 -112 188 -112 c 0,18,19
 199 -112 199 -112 219.5 -109.5 c 128,-1,20
 240 -107 240 -107 254 -105 c 1,21,-1
 254 -170 l 1,0,1
EndSplineSet
EndChar

StartChar: caron
Encoding: 711 711 136
Width: 383
Flags: W
LayerCount: 2
Fore
SplineSet
132 714 m 1,0,-1
 192 630 l 1,1,-1
 252 714 l 1,2,-1
 348 714 l 1,3,-1
 236 579 l 1,4,-1
 148 579 l 1,5,-1
 35 714 l 1,6,-1
 132 714 l 1,0,-1
EndSplineSet
EndChar

StartChar: emdash
Encoding: 8212 8212 137
Width: 605
Flags: W
LayerCount: 2
Fore
SplineSet
65 275 m 1,0,-1
 65 350 l 1,1,-1
 540 350 l 1,2,-1
 540 275 l 1,3,-1
 65 275 l 1,0,-1
EndSplineSet
EndChar

StartChar: AE
Encoding: 198 198 138
Width: 748
Flags: W
LayerCount: 2
Fore
SplineSet
390 0 m 1,0,-1
 370 177 l 1,1,-1
 171 177 l 1,2,-1
 114 0 l 1,3,-1
 25 0 l 1,4,-1
 264 700 l 1,5,-1
 668 700 l 1,6,-1
 668 627 l 1,7,-1
 401 627 l 1,8,-1
 428 398 l 1,9,-1
 663 398 l 1,10,-1
 663 325 l 1,11,-1
 437 325 l 1,12,-1
 467 73 l 1,13,-1
 688 73 l 1,14,-1
 688 0 l 1,15,-1
 390 0 l 1,0,-1
195 252 m 1,16,-1
 361 252 l 1,17,-1
 320 627 l 1,18,-1
 195 252 l 1,16,-1
EndSplineSet
Position2: "'cpsp' Capital Spacing in Latin lookup 0 subtable" dx=5 dy=0 dh=10 dv=0
EndChar

StartChar: ordfeminine
Encoding: 170 170 139
Width: 395
Flags: W
LayerCount: 2
Fore
SplineSet
327 326 m 2,0,1
 317 326 317 326 298 332 c 128,-1,2
 279 338 279 338 268 359 c 1,3,4
 240 323 240 323 172 323 c 0,5,6
 151 323 151 323 131 327 c 128,-1,7
 111 331 111 331 95.5 343 c 128,-1,8
 80 355 80 355 70 376.5 c 128,-1,9
 60 398 60 398 60 432 c 0,10,11
 60 493 60 493 95.5 526.5 c 128,-1,12
 131 560 131 560 194 560 c 2,13,-1
 247 560 l 1,14,-1
 247 598 l 2,15,16
 247 618 247 618 236 632 c 128,-1,17
 225 646 225 646 197 646 c 0,18,19
 165 646 165 646 140.5 642.5 c 128,-1,20
 116 639 116 639 88 631 c 1,21,-1
 88 690 l 1,22,23
 109 697 109 697 135 701 c 128,-1,24
 161 705 161 705 189 705 c 0,25,26
 226 705 226 705 250.5 698 c 128,-1,27
 275 691 275 691 290 676 c 128,-1,28
 305 661 305 661 311 638 c 128,-1,29
 317 615 317 615 317 583 c 2,30,-1
 317 399 l 2,31,32
 317 388 317 388 324.5 381.5 c 128,-1,33
 332 375 332 375 350 375 c 1,34,-1
 350 326 l 1,35,-1
 327 326 l 2,0,1
67 0 m 1,36,-1
 67 75 l 1,37,-1
 318 75 l 1,38,-1
 318 0 l 1,39,-1
 67 0 l 1,36,-1
187 383 m 0,40,41
 207 383 207 383 218.5 389 c 128,-1,42
 230 395 230 395 236.5 403 c 128,-1,43
 243 411 243 411 245 419.5 c 128,-1,44
 247 428 247 428 247 434 c 2,45,-1
 247 504 l 1,46,-1
 190 504 l 2,47,48
 166 504 166 504 148.5 489 c 128,-1,49
 131 474 131 474 131 437 c 0,50,51
 131 408 131 408 144 395.5 c 128,-1,52
 157 383 157 383 187 383 c 0,40,41
EndSplineSet
EndChar

StartChar: Lslash
Encoding: 321 321 140
Width: 420
Flags: W
LayerCount: 2
Fore
SplineSet
85 0 m 1,0,-1
 85 329 l 1,1,-1
 25 300 l 1,2,-1
 25 380 l 1,3,-1
 85 409 l 1,4,-1
 85 700 l 1,5,-1
 172 700 l 1,6,-1
 172 451 l 1,7,-1
 295 510 l 1,8,-1
 295 430 l 1,9,-1
 172 371 l 1,10,-1
 172 76 l 1,11,-1
 395 76 l 1,12,-1
 395 0 l 1,13,-1
 85 0 l 1,0,-1
EndSplineSet
Position2: "'cpsp' Capital Spacing in Latin lookup 0 subtable" dx=5 dy=0 dh=10 dv=0
EndChar

StartChar: Oslash
Encoding: 216 216 141
Width: 548
Flags: W
LayerCount: 2
Fore
SplineSet
483 358 m 0,0,1
 483 266 483 266 473.5 197.5 c 128,-1,2
 464 129 464 129 440.5 83.5 c 128,-1,3
 417 38 417 38 376.5 15.5 c 128,-1,4
 336 -7 336 -7 274 -7 c 0,5,6
 255 -7 255 -7 239 -5 c 128,-1,7
 223 -3 223 -3 208 0 c 1,8,-1
 181 -91 l 1,9,-1
 105 -91 l 1,10,-1
 143 36 l 1,11,12
 98 78 98 78 81.5 157.5 c 128,-1,13
 65 237 65 237 65 358 c 0,14,15
 65 446 65 446 74.5 511.5 c 128,-1,16
 84 577 84 577 107.5 620.5 c 128,-1,17
 131 664 131 664 171.5 685.5 c 128,-1,18
 212 707 212 707 274 707 c 0,19,20
 293 707 293 707 309.5 705.5 c 128,-1,21
 326 704 326 704 341 699 c 1,22,-1
 369 791 l 1,23,-1
 445 791 l 1,24,-1
 407 664 l 1,25,26
 450 624 450 624 466.5 548.5 c 128,-1,27
 483 473 483 473 483 358 c 0,0,1
154 353 m 0,28,29
 154 280 154 280 159 228.5 c 128,-1,30
 164 177 164 177 175 143 c 1,31,-1
 319 626 l 1,32,33
 298 634 298 634 274 634 c 0,34,35
 240 634 240 634 217 621 c 128,-1,36
 194 608 194 608 180 576 c 128,-1,37
 166 544 166 544 160 490 c 128,-1,38
 154 436 154 436 154 353 c 0,28,29
394 353 m 0,39,40
 394 493 394 493 375 556 c 1,41,-1
 230 73 l 1,42,43
 248 66 248 66 274 66 c 0,44,45
 308 66 308 66 331 80.5 c 128,-1,46
 354 95 354 95 368 129 c 128,-1,47
 382 163 382 163 388 217.5 c 128,-1,48
 394 272 394 272 394 353 c 0,39,40
EndSplineSet
Position2: "'cpsp' Capital Spacing in Latin lookup 0 subtable" dx=5 dy=0 dh=10 dv=0
EndChar

StartChar: OE
Encoding: 338 338 142
Width: 766
Flags: W
LayerCount: 2
Fore
SplineSet
327 0 m 1,0,1
 315 -2 315 -2 301.5 -4.5 c 128,-1,2
 288 -7 288 -7 274 -7 c 0,3,4
 212 -7 212 -7 171.5 15.5 c 128,-1,5
 131 38 131 38 107.5 83.5 c 128,-1,6
 84 129 84 129 74.5 197.5 c 128,-1,7
 65 266 65 266 65 358 c 0,8,9
 65 446 65 446 74.5 511.5 c 128,-1,10
 84 577 84 577 107.5 620.5 c 128,-1,11
 131 664 131 664 171.5 685.5 c 128,-1,12
 212 707 212 707 274 707 c 0,13,14
 288 707 288 707 301.5 704.5 c 128,-1,15
 315 702 315 702 327 700 c 1,16,-1
 706 700 l 1,17,-1
 706 627 l 1,18,-1
 432 627 l 1,19,20
 455 589 455 589 464 532 c 128,-1,21
 473 475 473 475 475 398 c 1,22,-1
 681 398 l 1,23,-1
 681 325 l 1,24,-1
 476 325 l 1,25,26
 474 239 474 239 464 176.5 c 128,-1,27
 454 114 454 114 430 73 c 1,28,-1
 706 73 l 1,29,-1
 706 0 l 1,30,-1
 327 0 l 1,0,1
389 353 m 0,31,32
 389 436 389 436 383.5 490 c 128,-1,33
 378 544 378 544 365 576 c 128,-1,34
 352 608 352 608 330 621 c 128,-1,35
 308 634 308 634 274 634 c 256,36,37
 240 634 240 634 217 621 c 128,-1,38
 194 608 194 608 180 576 c 128,-1,39
 166 544 166 544 160 490 c 128,-1,40
 154 436 154 436 154 353 c 0,41,42
 154 272 154 272 160 217.5 c 128,-1,43
 166 163 166 163 180 129 c 128,-1,44
 194 95 194 95 217 80.5 c 128,-1,45
 240 66 240 66 274 66 c 256,46,47
 308 66 308 66 330 80.5 c 128,-1,48
 352 95 352 95 365 129 c 128,-1,49
 378 163 378 163 383.5 217.5 c 128,-1,50
 389 272 389 272 389 353 c 0,31,32
EndSplineSet
Position2: "'cpsp' Capital Spacing in Latin lookup 0 subtable" dx=5 dy=0 dh=10 dv=0
EndChar

StartChar: ordmasculine
Encoding: 186 186 143
Width: 416
Flags: W
LayerCount: 2
Fore
SplineSet
279 508 m 256,0,1
 279 541 279 541 276.5 567 c 128,-1,2
 274 593 274 593 266.5 611.5 c 128,-1,3
 259 630 259 630 245 639.5 c 128,-1,4
 231 649 231 649 208 649 c 256,5,6
 185 649 185 649 171 639.5 c 128,-1,7
 157 630 157 630 149.5 611.5 c 128,-1,8
 142 593 142 593 139.5 567 c 128,-1,9
 137 541 137 541 137 508 c 256,10,11
 137 475 137 475 139.5 450.5 c 128,-1,12
 142 426 142 426 149.5 410.5 c 128,-1,13
 157 395 157 395 171 387 c 128,-1,14
 185 379 185 379 208 379 c 256,15,16
 231 379 231 379 245 387 c 128,-1,17
 259 395 259 395 266.5 410.5 c 128,-1,18
 274 426 274 426 276.5 450.5 c 128,-1,19
 279 475 279 475 279 508 c 256,0,1
351 522 m 0,20,21
 351 463 351 463 341.5 424 c 128,-1,22
 332 385 332 385 314 362 c 128,-1,23
 296 339 296 339 269.5 330 c 128,-1,24
 243 321 243 321 208 321 c 256,25,26
 173 321 173 321 146.5 330 c 128,-1,27
 120 339 120 339 102 362 c 128,-1,28
 84 385 84 385 74.5 424 c 128,-1,29
 65 463 65 463 65 522 c 0,30,31
 65 618 65 618 99.5 662.5 c 128,-1,32
 134 707 134 707 208 707 c 256,33,34
 282 707 282 707 316.5 662.5 c 128,-1,35
 351 618 351 618 351 522 c 0,20,21
68 0 m 1,36,-1
 68 75 l 1,37,-1
 344 75 l 1,38,-1
 344 0 l 1,39,-1
 68 0 l 1,36,-1
EndSplineSet
EndChar

StartChar: ae
Encoding: 230 230 144
Width: 710
Flags: W
LayerCount: 2
Fore
SplineSet
389 230 m 1,0,1
 389 177 389 177 396 144.5 c 128,-1,2
 403 112 403 112 414.5 94.5 c 128,-1,3
 426 77 426 77 442 71 c 128,-1,4
 458 65 458 65 477 65 c 0,5,6
 519 65 519 65 554 71.5 c 128,-1,7
 589 78 589 78 611 83 c 1,8,-1
 611 10 l 1,9,10
 587 3 587 3 550.5 -2 c 128,-1,11
 514 -7 514 -7 487 -7 c 0,12,13
 435 -7 435 -7 398 7.5 c 128,-1,14
 361 22 361 22 339 65 c 1,15,16
 321 31 321 31 288.5 12 c 128,-1,17
 256 -7 256 -7 199 -7 c 0,18,19
 172 -7 172 -7 145 -1.5 c 128,-1,20
 118 4 118 4 97 20.5 c 128,-1,21
 76 37 76 37 63 66 c 128,-1,22
 50 95 50 95 50 141 c 0,23,24
 50 219 50 219 97 258.5 c 128,-1,25
 144 298 144 298 228 298 c 2,26,-1
 307 298 l 1,27,-1
 307 362 l 2,28,29
 307 392 307 392 288.5 413.5 c 128,-1,30
 270 435 270 435 232 435 c 0,31,32
 189 435 189 435 157 429 c 128,-1,33
 125 423 125 423 87 412 c 1,34,-1
 87 485 l 1,35,36
 115 493 115 493 150 500 c 128,-1,37
 185 507 185 507 222 507 c 0,38,39
 276 507 276 507 310 493.5 c 128,-1,40
 344 480 344 480 361 454 c 1,41,42
 406 507 406 507 489 507 c 0,43,44
 575 507 575 507 612.5 450.5 c 128,-1,45
 650 394 650 394 650 295 c 2,46,-1
 650 230 l 1,47,-1
 389 230 l 1,0,1
219 65 m 0,48,49
 243 65 243 65 259.5 72.5 c 128,-1,50
 276 80 276 80 286.5 90.5 c 128,-1,51
 297 101 297 101 301.5 112.5 c 128,-1,52
 306 124 306 124 307 132 c 1,53,-1
 307 230 l 1,54,-1
 223 230 l 2,55,56
 207 230 207 230 191.5 226 c 128,-1,57
 176 222 176 222 164 212 c 128,-1,58
 152 202 152 202 144.5 186.5 c 128,-1,59
 137 171 137 171 137 147 c 0,60,61
 137 100 137 100 158 82.5 c 128,-1,62
 179 65 179 65 219 65 c 0,48,49
487 436 m 0,63,64
 464 436 464 436 447 429.5 c 128,-1,65
 430 423 430 423 418 407 c 128,-1,66
 406 391 406 391 399.5 364.5 c 128,-1,67
 393 338 393 338 391 298 c 1,68,-1
 567 298 l 1,69,-1
 567 315 l 2,70,71
 567 372 567 372 549.5 404 c 128,-1,72
 532 436 532 436 487 436 c 0,63,64
EndSplineSet
EndChar

StartChar: dotlessi
Encoding: 305 305 145
Width: 245
Flags: W
LayerCount: 2
Fore
SplineSet
80 0 m 1,0,-1
 80 500 l 1,1,-1
 165 500 l 1,2,-1
 165 0 l 1,3,-1
 80 0 l 1,0,-1
EndSplineSet
EndChar

StartChar: lslash
Encoding: 322 322 146
Width: 280
Flags: W
LayerCount: 2
Fore
SplineSet
235 5 m 1,0,1
 224 3 224 3 209.5 0 c 128,-1,2
 195 -3 195 -3 175 -3 c 0,3,4
 160 -3 160 -3 145 2 c 128,-1,5
 130 7 130 7 118 20 c 128,-1,6
 106 33 106 33 98 55.5 c 128,-1,7
 90 78 90 78 90 112 c 2,8,-1
 90 335 l 1,9,-1
 35 300 l 1,10,-1
 35 378 l 1,11,-1
 90 414 l 1,12,-1
 90 700 l 1,13,-1
 175 700 l 1,14,-1
 175 469 l 1,15,-1
 235 509 l 1,16,-1
 235 429 l 1,17,-1
 175 390 l 1,18,-1
 175 117 l 2,19,20
 175 91 175 91 181.5 80.5 c 128,-1,21
 188 70 188 70 208 70 c 0,22,23
 216 70 216 70 223.5 72 c 128,-1,24
 231 74 231 74 235 75 c 1,25,-1
 235 5 l 1,0,1
EndSplineSet
EndChar

StartChar: oslash
Encoding: 248 248 147
Width: 510
Flags: W
LayerCount: 2
Fore
SplineSet
445 260 m 0,0,1
 445 181 445 181 433 129.5 c 128,-1,2
 421 78 421 78 397 47.5 c 128,-1,3
 373 17 373 17 337.5 5 c 128,-1,4
 302 -7 302 -7 255 -7 c 0,5,6
 231 -7 231 -7 210 -4 c 1,7,-1
 182 -89 l 1,8,-1
 104 -89 l 1,9,-1
 141 22 l 1,10,11
 104 48 104 48 84.5 104.5 c 128,-1,12
 65 161 65 161 65 260 c 0,13,14
 65 388 65 388 111 447.5 c 128,-1,15
 157 507 157 507 255 507 c 0,16,17
 267 507 267 507 278.5 506 c 128,-1,18
 290 505 290 505 301 503 c 1,19,-1
 330 589 l 1,20,-1
 407 589 l 1,21,-1
 369 475 l 1,22,23
 445 420 445 420 445 260 c 0,0,1
152 245 m 0,24,25
 152 155 152 155 171 113 c 1,26,-1
 278 435 l 1,27,28
 273 436 273 436 267 436.5 c 128,-1,29
 261 437 261 437 255 437 c 0,30,31
 225 437 225 437 205 427 c 128,-1,32
 185 417 185 417 173.5 394.5 c 128,-1,33
 162 372 162 372 157 335 c 128,-1,34
 152 298 152 298 152 245 c 0,24,25
358 245 m 0,35,36
 358 294 358 294 354 329 c 128,-1,37
 350 364 350 364 340 387 c 1,38,-1
 233 64 l 1,39,40
 238 63 238 63 243.5 63 c 128,-1,41
 249 63 249 63 255 63 c 0,42,43
 312 63 312 63 335 105 c 128,-1,44
 358 147 358 147 358 245 c 0,35,36
EndSplineSet
EndChar

StartChar: oe
Encoding: 339 339 148
Width: 761
Flags: W
LayerCount: 2
Fore
SplineSet
443 220 m 1,0,1
 444 171 444 171 450.5 140.5 c 128,-1,2
 457 110 457 110 468 93 c 128,-1,3
 479 76 479 76 494 70.5 c 128,-1,4
 509 65 509 65 528 65 c 0,5,6
 570 65 570 65 605 71.5 c 128,-1,7
 640 78 640 78 662 83 c 1,8,-1
 662 10 l 1,9,10
 638 3 638 3 601.5 -2 c 128,-1,11
 565 -7 565 -7 538 -7 c 0,12,13
 490 -7 490 -7 454.5 5 c 128,-1,14
 419 17 419 17 397 52 c 1,15,16
 374 20 374 20 338.5 6.5 c 128,-1,17
 303 -7 303 -7 255 -7 c 0,18,19
 209 -7 209 -7 173.5 5 c 128,-1,20
 138 17 138 17 114 47.5 c 128,-1,21
 90 78 90 78 77.5 129.5 c 128,-1,22
 65 181 65 181 65 260 c 0,23,24
 65 388 65 388 111 447.5 c 128,-1,25
 157 507 157 507 255 507 c 0,26,27
 355 507 355 507 401 440 c 1,28,29
 444 507 444 507 540 507 c 0,30,31
 626 507 626 507 663.5 450.5 c 128,-1,32
 701 394 701 394 701 295 c 2,33,-1
 701 220 l 1,34,-1
 443 220 l 1,0,1
538 436 m 0,35,36
 514 436 514 436 497 429 c 128,-1,37
 480 422 480 422 469 405 c 128,-1,38
 458 388 458 388 452 359.5 c 128,-1,39
 446 331 446 331 444 288 c 1,40,-1
 618 288 l 1,41,-1
 618 315 l 2,42,43
 618 372 618 372 600.5 404 c 128,-1,44
 583 436 583 436 538 436 c 0,35,36
358 245 m 0,45,46
 358 298 358 298 353 335 c 128,-1,47
 348 372 348 372 336.5 394.5 c 128,-1,48
 325 417 325 417 305 427 c 128,-1,49
 285 437 285 437 255 437 c 256,50,51
 225 437 225 437 205 427 c 128,-1,52
 185 417 185 417 173.5 394.5 c 128,-1,53
 162 372 162 372 157 335 c 128,-1,54
 152 298 152 298 152 245 c 0,55,56
 152 147 152 147 175 105 c 128,-1,57
 198 63 198 63 255 63 c 256,58,59
 312 63 312 63 335 105 c 128,-1,60
 358 147 358 147 358 245 c 0,45,46
EndSplineSet
EndChar

StartChar: germandbls
Encoding: 223 223 149
Width: 519
Flags: W
LayerCount: 2
Fore
SplineSet
459 156 m 0,0,1
 459 66 459 66 414.5 29.5 c 128,-1,2
 370 -7 370 -7 290 -7 c 0,3,4
 285 -7 285 -7 276 -6.5 c 128,-1,5
 267 -6 267 -6 256.5 -4.5 c 128,-1,6
 246 -3 246 -3 235.5 -1.5 c 128,-1,7
 225 0 225 0 218 2 c 1,8,-1
 218 76 l 1,9,10
 235 71 235 71 255.5 68 c 128,-1,11
 276 65 276 65 293 65 c 0,12,13
 334 65 334 65 352 91 c 128,-1,14
 370 117 370 117 370 151 c 0,15,16
 370 171 370 171 366.5 186.5 c 128,-1,17
 363 202 363 202 354 214 c 128,-1,18
 345 226 345 226 330.5 236 c 128,-1,19
 316 246 316 246 295 256 c 0,20,21
 252 276 252 276 233 302.5 c 128,-1,22
 214 329 214 329 214 377 c 0,23,24
 214 429 214 429 246 458 c 128,-1,25
 278 487 278 487 332 496 c 1,26,27
 337 510 337 510 339 526 c 128,-1,28
 341 542 341 542 341 562 c 0,29,30
 341 589 341 589 319.5 612 c 128,-1,31
 298 635 298 635 249 635 c 0,32,33
 211 635 211 635 188 612 c 128,-1,34
 165 589 165 589 165 540 c 2,35,-1
 165 0 l 1,36,-1
 80 0 l 1,37,-1
 80 533 l 2,38,39
 80 617 80 617 126 662 c 128,-1,40
 172 707 172 707 251 707 c 0,41,42
 293 707 293 707 323.5 695.5 c 128,-1,43
 354 684 354 684 374.5 664 c 128,-1,44
 395 644 395 644 405 616.5 c 128,-1,45
 415 589 415 589 415 557 c 0,46,47
 415 539 415 539 414 524.5 c 128,-1,48
 413 510 413 510 411 496 c 128,-1,49
 409 482 409 482 406 467 c 128,-1,50
 403 452 403 452 399 433 c 1,51,52
 339 433 339 433 316.5 417 c 128,-1,53
 294 401 294 401 294 372 c 0,54,55
 294 358 294 358 301.5 346 c 128,-1,56
 309 334 309 334 328 326 c 0,57,58
 353 316 353 316 376.5 302 c 128,-1,59
 400 288 400 288 418.5 268 c 128,-1,60
 437 248 437 248 448 221 c 128,-1,61
 459 194 459 194 459 156 c 0,0,1
EndSplineSet
EndChar

StartChar: onesuperior
Encoding: 185 185 150
Width: 410
Flags: W
LayerCount: 2
Fore
SplineSet
94 205 m 1,0,-1
 94 271 l 1,1,-1
 182 271 l 1,2,-1
 182 630 l 1,3,-1
 86 591 l 1,4,-1
 86 662 l 1,5,-1
 174 700 l 1,6,-1
 257 700 l 1,7,-1
 257 271 l 1,8,-1
 329 271 l 1,9,-1
 329 205 l 1,10,-1
 94 205 l 1,0,-1
EndSplineSet
EndChar

StartChar: logicalnot
Encoding: 172 172 151
Width: 575
Flags: W
LayerCount: 2
Fore
SplineSet
420 106 m 1,0,-1
 420 275 l 1,1,-1
 70 275 l 1,2,-1
 70 350 l 1,3,-1
 505 350 l 1,4,-1
 505 106 l 1,5,-1
 420 106 l 1,0,-1
EndSplineSet
EndChar

StartChar: mu
Encoding: 181 181 152
Width: 496
Flags: W
LayerCount: 2
Fore
SplineSet
80 -170 m 1,0,-1
 80 500 l 1,1,-1
 165 500 l 1,2,-1
 165 150 l 1,3,4
 166 109 166 109 180 87 c 128,-1,5
 194 65 194 65 237 65 c 0,6,7
 258 65 258 65 275 73 c 128,-1,8
 292 81 292 81 304 93 c 128,-1,9
 316 105 316 105 323 119.5 c 128,-1,10
 330 134 330 134 331 147 c 1,11,-1
 331 500 l 1,12,-1
 416 500 l 1,13,-1
 416 0 l 1,14,-1
 346 0 l 1,15,-1
 339 41 l 1,16,17
 318 18 318 18 290 5.5 c 128,-1,18
 262 -7 262 -7 224 -7 c 0,19,20
 192 -7 192 -7 165 4 c 1,21,-1
 165 -170 l 1,22,-1
 80 -170 l 1,0,-1
EndSplineSet
EndChar

StartChar: trademark
Encoding: 8482 8482 153
Width: 740
Flags: W
LayerCount: 2
Fore
SplineSet
609 194 m 1,0,-1
 609 644 l 1,1,-1
 531 361 l 1,2,-1
 468 361 l 1,3,-1
 389 644 l 1,4,-1
 389 194 l 1,5,-1
 324 194 l 1,6,-1
 324 641 l 1,7,-1
 224 641 l 1,8,-1
 224 194 l 1,9,-1
 156 194 l 1,10,-1
 156 641 l 1,11,-1
 40 641 l 1,12,-1
 40 700 l 1,13,-1
 440 700 l 1,14,-1
 502 463 l 1,15,-1
 562 700 l 1,16,-1
 675 700 l 1,17,-1
 675 194 l 1,18,-1
 609 194 l 1,0,-1
EndSplineSet
EndChar

StartChar: Eth
Encoding: 208 208 154
Width: 536
Flags: W
LayerCount: 2
Fore
SplineSet
471 361 m 0,0,1
 471 249 471 249 458.5 177.5 c 128,-1,2
 446 106 446 106 420.5 65 c 128,-1,3
 395 24 395 24 357 8.5 c 128,-1,4
 319 -7 319 -7 269 -7 c 0,5,6
 240 -7 240 -7 209.5 -6.5 c 128,-1,7
 179 -6 179 -6 153 -4 c 0,8,9
 123 -2 123 -2 95 0 c 1,10,-1
 95 325 l 1,11,-1
 25 325 l 1,12,-1
 25 400 l 1,13,-1
 95 400 l 1,14,-1
 95 700 l 1,15,16
 122 702 122 702 150 704 c 0,17,18
 174 706 174 706 202.5 706.5 c 128,-1,19
 231 707 231 707 257 707 c 0,20,21
 310 707 310 707 350 694.5 c 128,-1,22
 390 682 390 682 417 644.5 c 128,-1,23
 444 607 444 607 457.5 539.5 c 128,-1,24
 471 472 471 472 471 361 c 0,0,1
382 354 m 0,25,26
 382 444 382 444 374.5 499 c 128,-1,27
 367 554 367 554 353 584 c 128,-1,28
 339 614 339 614 320.5 624 c 128,-1,29
 302 634 302 634 279 634 c 0,30,31
 265 634 265 634 248.5 633.5 c 128,-1,32
 232 633 232 633 217 632 c 0,33,34
 199 631 199 631 182 630 c 1,35,-1
 182 400 l 1,36,-1
 295 400 l 1,37,-1
 295 325 l 1,38,-1
 182 325 l 1,39,-1
 182 70 l 1,40,41
 197 69 197 69 214 68 c 0,42,43
 228 67 228 67 245 66.5 c 128,-1,44
 262 66 262 66 278 66 c 0,45,46
 301 66 301 66 320.5 80 c 128,-1,47
 340 94 340 94 353.5 127.5 c 128,-1,48
 367 161 367 161 374.5 216.5 c 128,-1,49
 382 272 382 272 382 354 c 0,25,26
EndSplineSet
Position2: "'cpsp' Capital Spacing in Latin lookup 0 subtable" dx=5 dy=0 dh=10 dv=0
EndChar

StartChar: onehalf
Encoding: 189 189 155
Width: 875
Flags: W
LayerCount: 2
Fore
SplineSet
84 205 m 1,0,-1
 84 271 l 1,1,-1
 172 271 l 1,2,-1
 172 630 l 1,3,-1
 76 591 l 1,4,-1
 76 662 l 1,5,-1
 164 700 l 1,6,-1
 247 700 l 1,7,-1
 247 271 l 1,8,-1
 319 271 l 1,9,-1
 319 205 l 1,10,-1
 84 205 l 1,0,-1
568 0 m 1,11,-1
 568 71 l 1,12,-1
 680 228 l 1,13,14
 697 254 697 254 707.5 271.5 c 128,-1,15
 718 289 718 289 723.5 304.5 c 128,-1,16
 729 320 729 320 731 336 c 128,-1,17
 733 352 733 352 733 374 c 0,18,19
 733 403 733 403 720.5 419.5 c 128,-1,20
 708 436 708 436 673 436 c 0,21,22
 649 436 649 436 624 432.5 c 128,-1,23
 599 429 599 429 581 425 c 1,24,-1
 581 489 l 1,25,26
 588 490 588 490 615.5 495 c 128,-1,27
 643 500 643 500 673 500 c 0,28,29
 807 500 807 500 807 367 c 0,30,31
 807 343 807 343 804.5 325 c 128,-1,32
 802 307 802 307 795 289 c 128,-1,33
 788 271 788 271 776.5 251 c 128,-1,34
 765 231 765 231 748 205 c 2,35,-1
 650 65 l 1,36,-1
 814 65 l 1,37,-1
 814 0 l 1,38,-1
 568 0 l 1,11,-1
331 -100 m 1,39,-1
 251 -100 l 1,40,-1
 568 810 l 1,41,-1
 651 810 l 1,42,-1
 331 -100 l 1,39,-1
EndSplineSet
Ligature2: "'frac' Diagonal Fractions in Latin lookup 1 subtable" onesuperior fraction twosuperior
Ligature2: "'frac' Diagonal Fractions in Latin lookup 1 subtable" onesuperior fraction two
Ligature2: "'frac' Diagonal Fractions in Latin lookup 1 subtable" onesuperior slash twosuperior
Ligature2: "'frac' Diagonal Fractions in Latin lookup 1 subtable" onesuperior slash two
Ligature2: "'frac' Diagonal Fractions in Latin lookup 1 subtable" one fraction twosuperior
Ligature2: "'frac' Diagonal Fractions in Latin lookup 1 subtable" one fraction two
Ligature2: "'frac' Diagonal Fractions in Latin lookup 1 subtable" one slash twosuperior
Ligature2: "'frac' Diagonal Fractions in Latin lookup 1 subtable" one slash two
EndChar

StartChar: plusminus
Encoding: 177 177 156
Width: 550
Flags: W
LayerCount: 2
Fore
SplineSet
315 275 m 1,0,-1
 315 143 l 1,1,-1
 235 143 l 1,2,-1
 235 275 l 1,3,-1
 85 275 l 1,4,-1
 85 350 l 1,5,-1
 235 350 l 1,6,-1
 235 508 l 1,7,-1
 315 508 l 1,8,-1
 315 350 l 1,9,-1
 465 350 l 1,10,-1
 465 275 l 1,11,-1
 315 275 l 1,0,-1
85 0 m 1,12,-1
 85 75 l 1,13,-1
 465 75 l 1,14,-1
 465 0 l 1,15,-1
 85 0 l 1,12,-1
EndSplineSet
EndChar

StartChar: Thorn
Encoding: 222 222 157
Width: 510
Flags: W
LayerCount: 2
Fore
SplineSet
450 362 m 0,0,1
 450 305 450 305 439.5 263.5 c 128,-1,2
 429 222 429 222 406 194.5 c 128,-1,3
 383 167 383 167 346 154 c 128,-1,4
 309 141 309 141 256 141 c 2,5,-1
 172 141 l 1,6,-1
 172 0 l 1,7,-1
 85 0 l 1,8,-1
 85 700 l 1,9,-1
 172 700 l 1,10,-1
 172 570 l 1,11,12
 191 571 191 571 211 572.5 c 128,-1,13
 231 574 231 574 254 574 c 0,14,15
 311 574 311 574 349 558 c 128,-1,16
 387 542 387 542 409.5 514 c 128,-1,17
 432 486 432 486 441 447 c 128,-1,18
 450 408 450 408 450 362 c 0,0,1
361 355 m 0,19,20
 361 430 361 430 340.5 466 c 128,-1,21
 320 502 320 502 266 502 c 0,22,23
 224 502 224 502 198 499 c 0,24,25
 183 497 183 497 172 496 c 1,26,-1
 172 214 l 1,27,-1
 266 214 l 2,28,29
 287 214 287 214 304.5 220.5 c 128,-1,30
 322 227 322 227 334.5 243.5 c 128,-1,31
 347 260 347 260 354 287 c 128,-1,32
 361 314 361 314 361 355 c 0,19,20
EndSplineSet
Position2: "'cpsp' Capital Spacing in Latin lookup 0 subtable" dx=5 dy=0 dh=10 dv=0
EndChar

StartChar: onequarter
Encoding: 188 188 158
Width: 875
Flags: W
LayerCount: 2
Fore
SplineSet
84 205 m 1,0,-1
 84 271 l 1,1,-1
 172 271 l 1,2,-1
 172 630 l 1,3,-1
 76 591 l 1,4,-1
 76 662 l 1,5,-1
 164 700 l 1,6,-1
 247 700 l 1,7,-1
 247 271 l 1,8,-1
 319 271 l 1,9,-1
 319 205 l 1,10,-1
 84 205 l 1,0,-1
745 117 m 1,11,-1
 745 0 l 1,12,-1
 671 0 l 1,13,-1
 671 117 l 1,14,-1
 524 117 l 1,15,-1
 524 191 l 1,16,-1
 598 495 l 1,17,-1
 667 495 l 1,18,-1
 594 181 l 1,19,-1
 671 181 l 1,20,-1
 678 324 l 1,21,-1
 745 324 l 1,22,-1
 745 181 l 1,23,-1
 795 181 l 1,24,-1
 795 117 l 1,25,-1
 745 117 l 1,11,-1
326 -100 m 1,26,-1
 246 -100 l 1,27,-1
 566 810 l 1,28,-1
 646 810 l 1,29,-1
 326 -100 l 1,26,-1
EndSplineSet
Ligature2: "'frac' Diagonal Fractions in Latin lookup 1 subtable" onesuperior fraction four
Ligature2: "'frac' Diagonal Fractions in Latin lookup 1 subtable" onesuperior slash four
Ligature2: "'frac' Diagonal Fractions in Latin lookup 1 subtable" one fraction four
Ligature2: "'frac' Diagonal Fractions in Latin lookup 1 subtable" one slash four
EndChar

StartChar: divide
Encoding: 247 247 159
Width: 550
Flags: W
LayerCount: 2
Fore
SplineSet
85 275 m 1,0,-1
 85 350 l 1,1,-1
 465 350 l 1,2,-1
 465 275 l 1,3,-1
 85 275 l 1,0,-1
225 65 m 1,4,-1
 225 165 l 1,5,-1
 325 165 l 1,6,-1
 325 65 l 1,7,-1
 225 65 l 1,4,-1
225 460 m 1,8,-1
 225 560 l 1,9,-1
 325 560 l 1,10,-1
 325 460 l 1,11,-1
 225 460 l 1,8,-1
EndSplineSet
EndChar

StartChar: brokenbar
Encoding: 166 166 160
Width: 290
Flags: W
LayerCount: 2
Fore
SplineSet
105 -110 m 1,0,-1
 105 250 l 1,1,-1
 185 250 l 1,2,-1
 185 -110 l 1,3,-1
 105 -110 l 1,0,-1
105 450 m 1,4,-1
 105 810 l 1,5,-1
 185 810 l 1,6,-1
 185 450 l 1,7,-1
 105 450 l 1,4,-1
EndSplineSet
EndChar

StartChar: degree
Encoding: 176 176 161
Width: 363
Flags: W
LayerCount: 2
Fore
SplineSet
259 552 m 256,0,1
 259 569 259 569 255.5 585.5 c 128,-1,2
 252 602 252 602 243 614.5 c 128,-1,3
 234 627 234 627 219 635 c 128,-1,4
 204 643 204 643 181 643 c 256,5,6
 158 643 158 643 143 635 c 128,-1,7
 128 627 128 627 119 614.5 c 128,-1,8
 110 602 110 602 106.5 585.5 c 128,-1,9
 103 569 103 569 103 552 c 256,10,11
 103 535 103 535 106.5 518 c 128,-1,12
 110 501 110 501 119 487 c 128,-1,13
 128 473 128 473 143 464.5 c 128,-1,14
 158 456 158 456 181 456 c 256,15,16
 204 456 204 456 219 464.5 c 128,-1,17
 234 473 234 473 243 487 c 128,-1,18
 252 501 252 501 255.5 518 c 128,-1,19
 259 535 259 535 259 552 c 256,0,1
333 551 m 256,20,21
 333 518 333 518 324.5 489.5 c 128,-1,22
 316 461 316 461 298 439 c 128,-1,23
 280 417 280 417 251 404.5 c 128,-1,24
 222 392 222 392 181 392 c 256,25,26
 140 392 140 392 111.5 405 c 128,-1,27
 83 418 83 418 65 439.5 c 128,-1,28
 47 461 47 461 38.5 490 c 128,-1,29
 30 519 30 519 30 551 c 256,30,31
 30 583 30 583 38.5 611 c 128,-1,32
 47 639 47 639 65 660 c 128,-1,33
 83 681 83 681 111.5 693 c 128,-1,34
 140 705 140 705 181 705 c 256,35,36
 222 705 222 705 251 693 c 128,-1,37
 280 681 280 681 298 660.5 c 128,-1,38
 316 640 316 640 324.5 612 c 128,-1,39
 333 584 333 584 333 551 c 256,20,21
EndSplineSet
EndChar

StartChar: thorn
Encoding: 254 254 162
Width: 499
Flags: W
LayerCount: 2
Fore
SplineSet
80 -170 m 1,0,-1
 80 700 l 1,1,-1
 165 700 l 1,2,-1
 165 463 l 1,3,4
 212 507 212 507 276 507 c 0,5,6
 364 507 364 507 399 450.5 c 128,-1,7
 434 394 434 394 434 282 c 0,8,9
 434 200 434 200 423 144.5 c 128,-1,10
 412 89 412 89 387 55.5 c 128,-1,11
 362 22 362 22 321.5 7.5 c 128,-1,12
 281 -7 281 -7 221 -7 c 0,13,14
 204 -7 204 -7 190 -6 c 128,-1,15
 176 -5 176 -5 165 -3 c 1,16,-1
 165 -170 l 1,17,-1
 80 -170 l 1,0,-1
260 435 m 0,18,19
 239 435 239 435 221.5 427 c 128,-1,20
 204 419 204 419 191.5 406 c 128,-1,21
 179 393 179 393 172 378.5 c 128,-1,22
 165 364 165 364 165 350 c 2,23,-1
 165 69 l 1,24,25
 176 67 176 67 192 66 c 128,-1,26
 208 65 208 65 231 65 c 0,27,28
 267 65 267 65 289.5 78 c 128,-1,29
 312 91 312 91 324.5 117 c 128,-1,30
 337 143 337 143 342 181.5 c 128,-1,31
 347 220 347 220 347 272 c 0,32,33
 347 320 347 320 342.5 351 c 128,-1,34
 338 382 338 382 327.5 401 c 128,-1,35
 317 420 317 420 300.5 427.5 c 128,-1,36
 284 435 284 435 260 435 c 0,18,19
EndSplineSet
EndChar

StartChar: threequarters
Encoding: 190 190 163
Width: 875
Flags: W
LayerCount: 2
Fore
SplineSet
319 351 m 0,0,1
 319 267 319 267 283.5 233.5 c 128,-1,2
 248 200 248 200 186 200 c 0,3,4
 172 200 172 200 156 201.5 c 128,-1,5
 140 203 140 203 125.5 205 c 128,-1,6
 111 207 111 207 100.5 208.5 c 128,-1,7
 90 210 90 210 87 211 c 1,8,-1
 87 275 l 1,9,10
 101 272 101 272 128.5 267.5 c 128,-1,11
 156 263 156 263 181 263 c 0,12,13
 210 263 210 263 227 283 c 128,-1,14
 244 303 244 303 244 343 c 0,15,16
 244 391 244 391 232 414.5 c 128,-1,17
 220 438 220 438 179 438 c 2,18,-1
 122 438 l 1,19,-1
 122 501 l 1,20,-1
 172 501 l 2,21,22
 195 501 195 501 208 509 c 128,-1,23
 221 517 221 517 227 529 c 128,-1,24
 233 541 233 541 234.5 554.5 c 128,-1,25
 236 568 236 568 236 579 c 0,26,27
 236 618 236 618 222 630 c 128,-1,28
 208 642 208 642 179 642 c 0,29,30
 154 642 154 642 131 638 c 128,-1,31
 108 634 108 634 91 630 c 1,32,-1
 91 694 l 1,33,34
 94 695 94 695 103.5 696.5 c 128,-1,35
 113 698 113 698 125.5 700 c 128,-1,36
 138 702 138 702 153 703.5 c 128,-1,37
 168 705 168 705 182 705 c 0,38,39
 211 705 211 705 234.5 699.5 c 128,-1,40
 258 694 258 694 275 679 c 128,-1,41
 292 664 292 664 301 638.5 c 128,-1,42
 310 613 310 613 310 572 c 0,43,44
 310 537 310 537 296 510 c 128,-1,45
 282 483 282 483 252 472 c 1,46,47
 284 465 284 465 301.5 435 c 128,-1,48
 319 405 319 405 319 351 c 0,0,1
738 117 m 1,49,-1
 738 0 l 1,50,-1
 664 0 l 1,51,-1
 664 117 l 1,52,-1
 517 117 l 1,53,-1
 517 191 l 1,54,-1
 591 495 l 1,55,-1
 660 495 l 1,56,-1
 587 181 l 1,57,-1
 664 181 l 1,58,-1
 671 324 l 1,59,-1
 738 324 l 1,60,-1
 738 181 l 1,61,-1
 788 181 l 1,62,-1
 788 117 l 1,63,-1
 738 117 l 1,49,-1
315 -100 m 1,64,-1
 235 -100 l 1,65,-1
 555 810 l 1,66,-1
 635 810 l 1,67,-1
 315 -100 l 1,64,-1
EndSplineSet
Ligature2: "'frac' Diagonal Fractions in Latin lookup 1 subtable" threesuperior fraction four
Ligature2: "'frac' Diagonal Fractions in Latin lookup 1 subtable" threesuperior slash four
Ligature2: "'frac' Diagonal Fractions in Latin lookup 1 subtable" three fraction four
Ligature2: "'frac' Diagonal Fractions in Latin lookup 1 subtable" three slash four
EndChar

StartChar: twosuperior
Encoding: 178 178 164
Width: 410
Flags: W
LayerCount: 2
Fore
SplineSet
66 205 m 1,0,-1
 66 276 l 1,1,-1
 178 433 l 1,2,3
 195 459 195 459 205.5 476.5 c 128,-1,4
 216 494 216 494 221.5 509.5 c 128,-1,5
 227 525 227 525 229 541 c 128,-1,6
 231 557 231 557 231 579 c 0,7,8
 231 608 231 608 218.5 624.5 c 128,-1,9
 206 641 206 641 171 641 c 0,10,11
 147 641 147 641 122 637.5 c 128,-1,12
 97 634 97 634 79 630 c 1,13,-1
 79 694 l 1,14,15
 86 695 86 695 113.5 700 c 128,-1,16
 141 705 141 705 171 705 c 0,17,18
 305 705 305 705 305 572 c 0,19,20
 305 548 305 548 302.5 530 c 128,-1,21
 300 512 300 512 293 494 c 128,-1,22
 286 476 286 476 274.5 456 c 128,-1,23
 263 436 263 436 246 410 c 2,24,-1
 148 270 l 1,25,-1
 312 270 l 1,26,-1
 312 205 l 1,27,-1
 66 205 l 1,0,-1
EndSplineSet
EndChar

StartChar: registered
Encoding: 174 174 165
Width: 800
Flags: W
LayerCount: 2
Fore
SplineSet
715 350 m 256,0,1
 715 267 715 267 698.5 200.5 c 128,-1,2
 682 134 682 134 645.5 88 c 128,-1,3
 609 42 609 42 550 17.5 c 128,-1,4
 491 -7 491 -7 405 -7 c 0,5,6
 320 -7 320 -7 259 17 c 128,-1,7
 198 41 198 41 159.5 87 c 128,-1,8
 121 133 121 133 103 199 c 128,-1,9
 85 265 85 265 85 350 c 0,10,11
 85 433 85 433 103 499 c 128,-1,12
 121 565 121 565 159.5 611.5 c 128,-1,13
 198 658 198 658 258.5 682.5 c 128,-1,14
 319 707 319 707 405 707 c 256,15,16
 491 707 491 707 550 682 c 128,-1,17
 609 657 609 657 646 611 c 128,-1,18
 683 565 683 565 699 499 c 128,-1,19
 715 433 715 433 715 350 c 256,0,1
638 350 m 256,20,21
 638 416 638 416 628.5 469.5 c 128,-1,22
 619 523 619 523 593 560.5 c 128,-1,23
 567 598 567 598 521.5 618.5 c 128,-1,24
 476 639 476 639 405 639 c 256,25,26
 334 639 334 639 287 619 c 128,-1,27
 240 599 240 599 212.5 561.5 c 128,-1,28
 185 524 185 524 173.5 470.5 c 128,-1,29
 162 417 162 417 162 350 c 0,30,31
 162 284 162 284 173.5 230.5 c 128,-1,32
 185 177 185 177 212.5 139.5 c 128,-1,33
 240 102 240 102 287 81.5 c 128,-1,34
 334 61 334 61 405 61 c 256,35,36
 476 61 476 61 521.5 81.5 c 128,-1,37
 567 102 567 102 593 139.5 c 128,-1,38
 619 177 619 177 628.5 230.5 c 128,-1,39
 638 284 638 284 638 350 c 256,20,21
510 435 m 0,40,41
 510 393 510 393 497 364.5 c 128,-1,42
 484 336 484 336 455 324 c 1,43,-1
 530 159 l 1,44,-1
 469 159 l 1,45,-1
 402 316 l 1,46,-1
 364 316 l 1,47,-1
 364 159 l 1,48,-1
 310 159 l 1,49,-1
 310 544 l 1,50,51
 323 545 323 545 338 546 c 0,52,53
 351 547 351 547 367 547 c 128,-1,54
 383 547 383 547 400 547 c 0,55,56
 463 547 463 547 486.5 516.5 c 128,-1,57
 510 486 510 486 510 435 c 0,40,41
455 431 m 0,58,59
 455 471 455 471 445.5 486 c 128,-1,60
 436 501 436 501 407 501 c 0,61,62
 396 501 396 501 387.5 501 c 128,-1,63
 379 501 379 501 374 500 c 0,64,65
 368 499 368 499 364 499 c 1,66,-1
 364 364 l 1,67,-1
 407 364 l 2,68,69
 418 364 418 364 427 366 c 128,-1,70
 436 368 436 368 442 375 c 128,-1,71
 448 382 448 382 451.5 395.5 c 128,-1,72
 455 409 455 409 455 431 c 0,58,59
EndSplineSet
EndChar

StartChar: minus
Encoding: 8722 8722 166
Width: 550
Flags: W
LayerCount: 2
Fore
SplineSet
85 275 m 1,0,-1
 85 350 l 1,1,-1
 465 350 l 1,2,-1
 465 275 l 1,3,-1
 85 275 l 1,0,-1
EndSplineSet
EndChar

StartChar: eth
Encoding: 240 240 167
Width: 503
Flags: W
LayerCount: 2
Fore
SplineSet
239 556 m 1,0,-1
 157 556 l 1,1,-1
 201 632 l 1,2,3
 182 634 182 634 160.5 634.5 c 128,-1,4
 139 635 139 635 114 637 c 1,5,-1
 114 707 l 1,6,7
 149 705 149 705 180 703.5 c 128,-1,8
 211 702 211 702 239 697 c 1,9,-1
 270 750 l 1,10,-1
 352 750 l 1,11,-1
 310 678 l 1,12,13
 339 666 339 666 361 644.5 c 128,-1,14
 383 623 383 623 398 588.5 c 128,-1,15
 413 554 413 554 420.5 505.5 c 128,-1,16
 428 457 428 457 428 389 c 0,17,18
 428 265 428 265 419 188 c 128,-1,19
 410 111 410 111 389 67.5 c 128,-1,20
 368 24 368 24 333 8.5 c 128,-1,21
 298 -7 298 -7 246 -7 c 0,22,23
 209 -7 209 -7 176.5 4.5 c 128,-1,24
 144 16 144 16 120.5 42.5 c 128,-1,25
 97 69 97 69 83.5 112.5 c 128,-1,26
 70 156 70 156 70 220 c 0,27,28
 70 274 70 274 75.5 319 c 128,-1,29
 81 364 81 364 98.5 396 c 128,-1,30
 116 428 116 428 148 446 c 128,-1,31
 180 464 180 464 232 464 c 0,32,33
 269 464 269 464 296.5 454 c 128,-1,34
 324 444 324 444 341 433 c 1,35,36
 337 515 337 515 321 556 c 128,-1,37
 305 597 305 597 272 614 c 1,38,-1
 239 556 l 1,0,-1
239 392 m 0,39,40
 212 392 212 392 195.5 379.5 c 128,-1,41
 179 367 179 367 170 343.5 c 128,-1,42
 161 320 161 320 158 286.5 c 128,-1,43
 155 253 155 253 155 211 c 0,44,45
 155 140 155 140 174.5 102.5 c 128,-1,46
 194 65 194 65 252 65 c 0,47,48
 275 65 275 65 291.5 75 c 128,-1,49
 308 85 308 85 319.5 116.5 c 128,-1,50
 331 148 331 148 337 207 c 128,-1,51
 343 266 343 266 343 364 c 1,52,53
 332 369 332 369 304.5 380.5 c 128,-1,54
 277 392 277 392 239 392 c 0,39,40
EndSplineSet
EndChar

StartChar: multiply
Encoding: 215 215 168
Width: 550
Flags: W
LayerCount: 2
Fore
SplineSet
275 253 m 1,0,-1
 158 137 l 1,1,-1
 102 193 l 1,2,-1
 218 310 l 1,3,-1
 102 427 l 1,4,-1
 158 483 l 1,5,-1
 275 367 l 1,6,-1
 392 483 l 1,7,-1
 448 427 l 1,8,-1
 332 310 l 1,9,-1
 448 193 l 1,10,-1
 392 137 l 1,11,-1
 275 253 l 1,0,-1
EndSplineSet
EndChar

StartChar: threesuperior
Encoding: 179 179 169
Width: 410
Flags: W
LayerCount: 2
Fore
SplineSet
312 351 m 0,0,1
 312 267 312 267 276.5 233.5 c 128,-1,2
 241 200 241 200 179 200 c 0,3,4
 165 200 165 200 149 201.5 c 128,-1,5
 133 203 133 203 118.5 205 c 128,-1,6
 104 207 104 207 93.5 208.5 c 128,-1,7
 83 210 83 210 80 211 c 1,8,-1
 80 275 l 1,9,10
 94 272 94 272 121.5 267.5 c 128,-1,11
 149 263 149 263 174 263 c 0,12,13
 203 263 203 263 220 283 c 128,-1,14
 237 303 237 303 237 343 c 0,15,16
 237 391 237 391 225 414.5 c 128,-1,17
 213 438 213 438 172 438 c 2,18,-1
 115 438 l 1,19,-1
 115 501 l 1,20,-1
 165 501 l 2,21,22
 188 501 188 501 201 509 c 128,-1,23
 214 517 214 517 220 529 c 128,-1,24
 226 541 226 541 227.5 554.5 c 128,-1,25
 229 568 229 568 229 579 c 0,26,27
 229 618 229 618 215 630 c 128,-1,28
 201 642 201 642 172 642 c 0,29,30
 147 642 147 642 124 638 c 128,-1,31
 101 634 101 634 84 630 c 1,32,-1
 84 694 l 1,33,34
 87 695 87 695 96.5 696.5 c 128,-1,35
 106 698 106 698 118.5 700 c 128,-1,36
 131 702 131 702 146 703.5 c 128,-1,37
 161 705 161 705 175 705 c 0,38,39
 204 705 204 705 227.5 699.5 c 128,-1,40
 251 694 251 694 268 679 c 128,-1,41
 285 664 285 664 294 638.5 c 128,-1,42
 303 613 303 613 303 572 c 0,43,44
 303 537 303 537 289 510 c 128,-1,45
 275 483 275 483 245 472 c 1,46,47
 277 465 277 465 294.5 435 c 128,-1,48
 312 405 312 405 312 351 c 0,0,1
EndSplineSet
EndChar

StartChar: copyright
Encoding: 169 169 170
Width: 800
Flags: W
LayerCount: 2
Fore
SplineSet
471 163 m 1,0,1
 462 161 462 161 443 158 c 128,-1,2
 424 155 424 155 410 155 c 0,3,4
 380 155 380 155 358 163.5 c 128,-1,5
 336 172 336 172 321.5 194 c 128,-1,6
 307 216 307 216 299.5 255.5 c 128,-1,7
 292 295 292 295 292 356 c 256,8,9
 292 417 292 417 300 454 c 128,-1,10
 308 491 308 491 324 511.5 c 128,-1,11
 340 532 340 532 363 538.5 c 128,-1,12
 386 545 386 545 416 545 c 0,13,14
 422 545 422 545 430 544 c 128,-1,15
 438 543 438 543 446 542 c 128,-1,16
 454 541 454 541 461 539.5 c 128,-1,17
 468 538 468 538 471 537 c 1,18,-1
 471 489 l 1,19,20
 457 492 457 492 440 493.5 c 128,-1,21
 423 495 423 495 408 495 c 256,22,23
 393 495 393 495 382 491.5 c 128,-1,24
 371 488 371 488 363.5 473.5 c 128,-1,25
 356 459 356 459 352.5 430.5 c 128,-1,26
 349 402 349 402 349 352 c 0,27,28
 349 300 349 300 353 270.5 c 128,-1,29
 357 241 357 241 364.5 226.5 c 128,-1,30
 372 212 372 212 383 208.5 c 128,-1,31
 394 205 394 205 409 205 c 0,32,33
 426 205 426 205 443 207 c 128,-1,34
 460 209 460 209 471 211 c 1,35,-1
 471 163 l 1,0,1
715 350 m 256,36,37
 715 267 715 267 698.5 200.5 c 128,-1,38
 682 134 682 134 645.5 88 c 128,-1,39
 609 42 609 42 550 17.5 c 128,-1,40
 491 -7 491 -7 405 -7 c 0,41,42
 320 -7 320 -7 259 17 c 128,-1,43
 198 41 198 41 159.5 87 c 128,-1,44
 121 133 121 133 103 199 c 128,-1,45
 85 265 85 265 85 350 c 0,46,47
 85 433 85 433 103 499 c 128,-1,48
 121 565 121 565 159.5 611.5 c 128,-1,49
 198 658 198 658 258.5 682.5 c 128,-1,50
 319 707 319 707 405 707 c 256,51,52
 491 707 491 707 550 682 c 128,-1,53
 609 657 609 657 646 611 c 128,-1,54
 683 565 683 565 699 499 c 128,-1,55
 715 433 715 433 715 350 c 256,36,37
638 350 m 256,56,57
 638 416 638 416 628.5 469.5 c 128,-1,58
 619 523 619 523 593 560.5 c 128,-1,59
 567 598 567 598 521.5 618.5 c 128,-1,60
 476 639 476 639 405 639 c 256,61,62
 334 639 334 639 287 619 c 128,-1,63
 240 599 240 599 212.5 561.5 c 128,-1,64
 185 524 185 524 173.5 470.5 c 128,-1,65
 162 417 162 417 162 350 c 0,66,67
 162 284 162 284 173.5 230.5 c 128,-1,68
 185 177 185 177 212.5 139.5 c 128,-1,69
 240 102 240 102 287 81.5 c 128,-1,70
 334 61 334 61 405 61 c 256,71,72
 476 61 476 61 521.5 81.5 c 128,-1,73
 567 102 567 102 593 139.5 c 128,-1,74
 619 177 619 177 628.5 230.5 c 128,-1,75
 638 284 638 284 638 350 c 256,56,57
EndSplineSet
EndChar

StartChar: Aacute
Encoding: 193 193 171
Width: 500
Flags: W
LayerCount: 2
Fore
SplineSet
161 726 m 1,0,-1
 265 841 l 1,1,-1
 376 841 l 1,2,-1
 244 726 l 1,3,-1
 161 726 l 1,0,-1
250 634 m 1,4,-1
 161 252 l 1,5,-1
 332 252 l 1,6,-1
 250 634 l 1,4,-1
386 0 m 1,7,-1
 348 177 l 1,8,-1
 153 177 l 1,9,-1
 114 0 l 1,10,-1
 25 0 l 1,11,-1
 194 700 l 1,12,-1
 309 700 l 1,13,-1
 475 0 l 1,14,-1
 386 0 l 1,7,-1
EndSplineSet
Position2: "'cpsp' Capital Spacing in Latin lookup 0 subtable" dx=5 dy=0 dh=10 dv=0
EndChar

StartChar: Acircumflex
Encoding: 194 194 172
Width: 500
Flags: W
LayerCount: 2
Fore
SplineSet
309 730 m 1,0,-1
 249 794 l 1,1,-1
 189 730 l 1,2,-1
 93 730 l 1,3,-1
 203 845 l 1,4,-1
 295 845 l 1,5,-1
 406 730 l 1,6,-1
 309 730 l 1,0,-1
250 634 m 1,7,-1
 169 252 l 1,8,-1
 332 252 l 1,9,-1
 250 634 l 1,7,-1
386 0 m 1,10,-1
 348 177 l 1,11,-1
 153 177 l 1,12,-1
 114 0 l 1,13,-1
 25 0 l 1,14,-1
 194 700 l 1,15,-1
 309 700 l 1,16,-1
 475 0 l 1,17,-1
 386 0 l 1,10,-1
EndSplineSet
Position2: "'cpsp' Capital Spacing in Latin lookup 0 subtable" dx=5 dy=0 dh=10 dv=0
EndChar

StartChar: Adieresis
Encoding: 196 196 173
Width: 500
Flags: W
LayerCount: 2
Fore
SplineSet
250 634 m 1,0,-1
 169 252 l 1,1,-1
 332 252 l 1,2,-1
 250 634 l 1,0,-1
386 0 m 1,3,-1
 348 177 l 1,4,-1
 153 177 l 1,5,-1
 114 0 l 1,6,-1
 25 0 l 1,7,-1
 194 700 l 1,8,-1
 309 700 l 1,9,-1
 475 0 l 1,10,-1
 386 0 l 1,3,-1
307 735 m 1,11,-1
 307 815 l 1,12,-1
 386 815 l 1,13,-1
 392 735 l 1,14,-1
 307 735 l 1,11,-1
107 735 m 1,15,-1
 107 815 l 1,16,-1
 192 815 l 1,17,-1
 192 735 l 1,18,-1
 107 735 l 1,15,-1
EndSplineSet
Position2: "'cpsp' Capital Spacing in Latin lookup 0 subtable" dx=5 dy=0 dh=10 dv=0
EndChar

StartChar: Agrave
Encoding: 192 192 174
Width: 500
Flags: W
LayerCount: 2
Fore
SplineSet
254 726 m 1,0,-1
 122 841 l 1,1,-1
 233 841 l 1,2,-1
 337 726 l 1,3,-1
 254 726 l 1,0,-1
250 634 m 1,4,-1
 169 252 l 1,5,-1
 332 252 l 1,6,-1
 250 634 l 1,4,-1
386 0 m 1,7,-1
 348 177 l 1,8,-1
 153 177 l 1,9,-1
 114 0 l 1,10,-1
 25 0 l 1,11,-1
 194 700 l 1,12,-1
 309 700 l 1,13,-1
 475 0 l 1,14,-1
 386 0 l 1,7,-1
EndSplineSet
Position2: "'cpsp' Capital Spacing in Latin lookup 0 subtable" dx=5 dy=0 dh=10 dv=0
EndChar

StartChar: Aring
Encoding: 197 197 175
Width: 500
Flags: W
LayerCount: 2
Fore
SplineSet
346 753 m 0,0,1
 346 729 346 729 337.5 709 c 128,-1,2
 329 689 329 689 315 675 c 1,3,-1
 475 0 l 1,4,-1
 386 0 l 1,5,-1
 348 177 l 1,6,-1
 153 177 l 1,7,-1
 114 0 l 1,8,-1
 25 0 l 1,9,-1
 188 674 l 1,10,11
 172 688 172 688 164 708.5 c 128,-1,12
 156 729 156 729 156 753 c 0,13,14
 156 797 156 797 181 826 c 128,-1,15
 206 855 206 855 250 855 c 0,16,17
 295 855 295 855 320.5 826.5 c 128,-1,18
 346 798 346 798 346 753 c 0,0,1
250 634 m 1,19,-1
 169 252 l 1,20,-1
 332 252 l 1,21,-1
 250 634 l 1,19,-1
288 754 m 0,22,23
 288 774 288 774 280.5 788.5 c 128,-1,24
 273 803 273 803 250 803 c 0,25,26
 228 803 228 803 220.5 787.5 c 128,-1,27
 213 772 213 772 213 754 c 0,28,29
 213 737 213 737 220.5 721 c 128,-1,30
 228 705 228 705 250 705 c 0,31,32
 275 705 275 705 281.5 720 c 128,-1,33
 288 735 288 735 288 754 c 0,22,23
EndSplineSet
Position2: "'cpsp' Capital Spacing in Latin lookup 0 subtable" dx=5 dy=0 dh=10 dv=0
EndChar

StartChar: Atilde
Encoding: 195 195 176
Width: 500
Flags: W
LayerCount: 2
Fore
SplineSet
250 634 m 1,0,-1
 169 252 l 1,1,-1
 332 252 l 1,2,-1
 250 634 l 1,0,-1
386 0 m 1,3,-1
 348 177 l 1,4,-1
 153 177 l 1,5,-1
 114 0 l 1,6,-1
 25 0 l 1,7,-1
 194 700 l 1,8,-1
 309 700 l 1,9,-1
 475 0 l 1,10,-1
 386 0 l 1,3,-1
122 807 m 1,11,12
 145 826 145 826 166.5 833 c 128,-1,13
 188 840 188 840 208 840 c 0,14,15
 226 840 226 840 240.5 834 c 128,-1,16
 255 828 255 828 268 820.5 c 128,-1,17
 281 813 281 813 294 807 c 128,-1,18
 307 801 307 801 322 801 c 0,19,20
 348 801 348 801 365 810.5 c 128,-1,21
 382 820 382 820 402 837 c 1,22,-1
 402 764 l 1,23,24
 382 745 382 745 362 738 c 128,-1,25
 342 731 342 731 316 731 c 0,26,27
 297 731 297 731 283 737 c 128,-1,28
 269 743 269 743 256.5 750.5 c 128,-1,29
 244 758 244 758 231 764 c 128,-1,30
 218 770 218 770 202 770 c 0,31,32
 176 770 176 770 157 759 c 128,-1,33
 138 748 138 748 122 734 c 1,34,-1
 122 807 l 1,11,12
EndSplineSet
Position2: "'cpsp' Capital Spacing in Latin lookup 0 subtable" dx=5 dy=0 dh=10 dv=0
EndChar

StartChar: Ccedilla
Encoding: 199 199 177
Width: 423
Flags: W
LayerCount: 2
Fore
SplineSet
180 -131 m 1,0,1
 194 -134 194 -134 208.5 -135.5 c 128,-1,2
 223 -137 223 -137 234 -137 c 0,3,4
 254 -137 254 -137 264.5 -131 c 128,-1,5
 275 -125 275 -125 275 -106 c 0,6,7
 275 -99 275 -99 271.5 -93 c 128,-1,8
 268 -87 268 -87 259 -83.5 c 128,-1,9
 250 -80 250 -80 234.5 -78 c 128,-1,10
 219 -76 219 -76 194 -76 c 1,11,-1
 206 -1 l 1,12,13
 169 7 169 7 142.5 29 c 128,-1,14
 116 51 116 51 98.5 93.5 c 128,-1,15
 81 136 81 136 73 201.5 c 128,-1,16
 65 267 65 267 65 361 c 0,17,18
 65 472 65 472 78 539.5 c 128,-1,19
 91 607 91 607 117.5 644.5 c 128,-1,20
 144 682 144 682 184 694.5 c 128,-1,21
 224 707 224 707 279 707 c 0,22,23
 303 707 303 707 330.5 702.5 c 128,-1,24
 358 698 358 698 378 693 c 1,25,-1
 378 619 l 1,26,27
 353 625 353 625 321.5 628.5 c 128,-1,28
 290 632 290 632 261 632 c 0,29,30
 234 632 234 632 213.5 622.5 c 128,-1,31
 193 613 193 613 180 583.5 c 128,-1,32
 167 554 167 554 160.5 499.5 c 128,-1,33
 154 445 154 445 154 354 c 0,34,35
 154 260 154 260 161 203.5 c 128,-1,36
 168 147 168 147 181.5 117 c 128,-1,37
 195 87 195 87 215 77.5 c 128,-1,38
 235 68 235 68 262 68 c 0,39,40
 293 68 293 68 326 73 c 128,-1,41
 359 78 359 78 378 83 c 1,42,-1
 378 10 l 1,43,44
 370 8 370 8 357 5 c 128,-1,45
 344 2 344 2 329 -0.5 c 128,-1,46
 314 -3 314 -3 298.5 -5 c 128,-1,47
 283 -7 283 -7 271 -7 c 1,48,-1
 268 -27 l 1,49,50
 313 -32 313 -32 332 -51.5 c 128,-1,51
 351 -71 351 -71 351 -109 c 0,52,53
 351 -157 351 -157 321.5 -178.5 c 128,-1,54
 292 -200 292 -200 243 -200 c 0,55,56
 225 -200 225 -200 210.5 -198 c 128,-1,57
 196 -196 196 -196 180 -193 c 1,58,-1
 180 -131 l 1,0,1
EndSplineSet
Position2: "'cpsp' Capital Spacing in Latin lookup 0 subtable" dx=5 dy=0 dh=10 dv=0
EndChar

StartChar: Eacute
Encoding: 201 201 178
Width: 473
Flags: W
LayerCount: 2
Fore
SplineSet
182 726 m 1,0,-1
 286 841 l 1,1,-1
 397 841 l 1,2,-1
 265 726 l 1,3,-1
 182 726 l 1,0,-1
85 0 m 1,4,-1
 85 700 l 1,5,-1
 413 700 l 1,6,-1
 413 627 l 1,7,-1
 172 627 l 1,8,-1
 172 398 l 1,9,-1
 388 398 l 1,10,-1
 388 325 l 1,11,-1
 172 325 l 1,12,-1
 172 73 l 1,13,-1
 413 73 l 1,14,-1
 413 0 l 1,15,-1
 85 0 l 1,4,-1
EndSplineSet
Position2: "'cpsp' Capital Spacing in Latin lookup 0 subtable" dx=5 dy=0 dh=10 dv=0
EndChar

StartChar: Ecircumflex
Encoding: 202 202 179
Width: 473
Flags: W
LayerCount: 2
Fore
SplineSet
309 730 m 1,0,-1
 249 794 l 1,1,-1
 189 730 l 1,2,-1
 93 730 l 1,3,-1
 203 845 l 1,4,-1
 295 845 l 1,5,-1
 406 730 l 1,6,-1
 309 730 l 1,0,-1
85 0 m 1,7,-1
 85 700 l 1,8,-1
 413 700 l 1,9,-1
 413 627 l 1,10,-1
 172 627 l 1,11,-1
 172 398 l 1,12,-1
 388 398 l 1,13,-1
 388 325 l 1,14,-1
 172 325 l 1,15,-1
 172 73 l 1,16,-1
 413 73 l 1,17,-1
 413 0 l 1,18,-1
 85 0 l 1,7,-1
EndSplineSet
Position2: "'cpsp' Capital Spacing in Latin lookup 0 subtable" dx=5 dy=0 dh=10 dv=0
EndChar

StartChar: Edieresis
Encoding: 203 203 180
Width: 473
Flags: W
LayerCount: 2
Fore
SplineSet
85 0 m 1,0,-1
 85 700 l 1,1,-1
 413 700 l 1,2,-1
 413 627 l 1,3,-1
 172 627 l 1,4,-1
 172 398 l 1,5,-1
 388 398 l 1,6,-1
 388 325 l 1,7,-1
 172 325 l 1,8,-1
 172 73 l 1,9,-1
 413 73 l 1,10,-1
 413 0 l 1,11,-1
 85 0 l 1,0,-1
308 735 m 1,12,-1
 308 815 l 1,13,-1
 393 815 l 1,14,-1
 393 735 l 1,15,-1
 308 735 l 1,12,-1
108 735 m 1,16,-1
 108 815 l 1,17,-1
 193 815 l 1,18,-1
 193 735 l 1,19,-1
 108 735 l 1,16,-1
EndSplineSet
Position2: "'cpsp' Capital Spacing in Latin lookup 0 subtable" dx=5 dy=0 dh=10 dv=0
EndChar

StartChar: Egrave
Encoding: 200 200 181
Width: 473
Flags: W
LayerCount: 2
Fore
SplineSet
244 726 m 1,0,-1
 112 841 l 1,1,-1
 223 841 l 1,2,-1
 327 726 l 1,3,-1
 244 726 l 1,0,-1
85 0 m 1,4,-1
 85 700 l 1,5,-1
 413 700 l 1,6,-1
 413 627 l 1,7,-1
 172 627 l 1,8,-1
 172 398 l 1,9,-1
 388 398 l 1,10,-1
 388 325 l 1,11,-1
 172 325 l 1,12,-1
 172 73 l 1,13,-1
 413 73 l 1,14,-1
 413 0 l 1,15,-1
 85 0 l 1,4,-1
EndSplineSet
Position2: "'cpsp' Capital Spacing in Latin lookup 0 subtable" dx=5 dy=0 dh=10 dv=0
EndChar

StartChar: Iacute
Encoding: 205 205 182
Width: 317
Flags: W
LayerCount: 2
Fore
SplineSet
61 726 m 1,0,-1
 165 841 l 1,1,-1
 276 841 l 1,2,-1
 144 726 l 1,3,-1
 61 726 l 1,0,-1
45 0 m 1,4,-1
 45 73 l 1,5,-1
 115 73 l 1,6,-1
 115 627 l 1,7,-1
 45 627 l 1,8,-1
 45 700 l 1,9,-1
 272 700 l 1,10,-1
 272 627 l 1,11,-1
 202 627 l 1,12,-1
 202 73 l 1,13,-1
 272 73 l 1,14,-1
 272 0 l 1,15,-1
 45 0 l 1,4,-1
EndSplineSet
Position2: "'cpsp' Capital Spacing in Latin lookup 0 subtable" dx=5 dy=0 dh=10 dv=0
EndChar

StartChar: Icircumflex
Encoding: 206 206 183
Width: 317
Flags: W
LayerCount: 2
Fore
SplineSet
218 730 m 1,0,-1
 158 794 l 1,1,-1
 98 730 l 1,2,-1
 2 730 l 1,3,-1
 112 845 l 1,4,-1
 204 845 l 1,5,-1
 315 730 l 1,6,-1
 218 730 l 1,0,-1
45 0 m 1,7,-1
 45 73 l 1,8,-1
 115 73 l 1,9,-1
 115 627 l 1,10,-1
 45 627 l 1,11,-1
 45 700 l 1,12,-1
 272 700 l 1,13,-1
 272 627 l 1,14,-1
 202 627 l 1,15,-1
 202 73 l 1,16,-1
 272 73 l 1,17,-1
 272 0 l 1,18,-1
 45 0 l 1,7,-1
EndSplineSet
Position2: "'cpsp' Capital Spacing in Latin lookup 0 subtable" dx=5 dy=0 dh=10 dv=0
EndChar

StartChar: Idieresis
Encoding: 207 207 184
Width: 317
Flags: W
LayerCount: 2
Fore
SplineSet
45 0 m 1,0,-1
 45 73 l 1,1,-1
 115 73 l 1,2,-1
 115 627 l 1,3,-1
 45 627 l 1,4,-1
 45 700 l 1,5,-1
 272 700 l 1,6,-1
 272 627 l 1,7,-1
 202 627 l 1,8,-1
 202 73 l 1,9,-1
 272 73 l 1,10,-1
 272 0 l 1,11,-1
 45 0 l 1,0,-1
216 735 m 1,12,-1
 216 815 l 1,13,-1
 301 815 l 1,14,-1
 301 735 l 1,15,-1
 216 735 l 1,12,-1
16 735 m 1,16,-1
 16 815 l 1,17,-1
 101 815 l 1,18,-1
 101 735 l 1,19,-1
 16 735 l 1,16,-1
EndSplineSet
Position2: "'cpsp' Capital Spacing in Latin lookup 0 subtable" dx=5 dy=0 dh=10 dv=0
EndChar

StartChar: Igrave
Encoding: 204 204 185
Width: 317
Flags: W
LayerCount: 2
Fore
SplineSet
170 726 m 1,0,-1
 38 841 l 1,1,-1
 149 841 l 1,2,-1
 253 726 l 1,3,-1
 170 726 l 1,0,-1
45 0 m 1,4,-1
 45 73 l 1,5,-1
 115 73 l 1,6,-1
 115 627 l 1,7,-1
 45 627 l 1,8,-1
 45 700 l 1,9,-1
 272 700 l 1,10,-1
 272 627 l 1,11,-1
 202 627 l 1,12,-1
 202 73 l 1,13,-1
 272 73 l 1,14,-1
 272 0 l 1,15,-1
 45 0 l 1,4,-1
EndSplineSet
Position2: "'cpsp' Capital Spacing in Latin lookup 0 subtable" dx=5 dy=0 dh=10 dv=0
EndChar

StartChar: Ntilde
Encoding: 209 209 186
Width: 547
Flags: W
LayerCount: 2
Fore
SplineSet
319 0 m 1,0,-1
 166 626 l 1,1,-1
 166 0 l 1,2,-1
 85 0 l 1,3,-1
 85 700 l 1,4,-1
 227 700 l 1,5,-1
 381 74 l 1,6,-1
 381 700 l 1,7,-1
 462 700 l 1,8,-1
 462 0 l 1,9,-1
 319 0 l 1,0,-1
132 807 m 1,10,11
 155 826 155 826 176.5 833 c 128,-1,12
 198 840 198 840 218 840 c 0,13,14
 236 840 236 840 250.5 834 c 128,-1,15
 265 828 265 828 278 820.5 c 128,-1,16
 291 813 291 813 304 807 c 128,-1,17
 317 801 317 801 332 801 c 0,18,19
 358 801 358 801 375 810.5 c 128,-1,20
 392 820 392 820 412 837 c 1,21,-1
 412 764 l 1,22,23
 392 745 392 745 372 738 c 128,-1,24
 352 731 352 731 326 731 c 0,25,26
 307 731 307 731 293 737 c 128,-1,27
 279 743 279 743 266.5 750.5 c 128,-1,28
 254 758 254 758 241 764 c 128,-1,29
 228 770 228 770 212 770 c 0,30,31
 186 770 186 770 167 759 c 128,-1,32
 148 748 148 748 132 734 c 1,33,-1
 132 807 l 1,10,11
EndSplineSet
Position2: "'cpsp' Capital Spacing in Latin lookup 0 subtable" dx=5 dy=0 dh=10 dv=0
EndChar

StartChar: Oacute
Encoding: 211 211 187
Width: 548
Flags: W
LayerCount: 2
Fore
SplineSet
206 726 m 1,0,-1
 310 841 l 1,1,-1
 421 841 l 1,2,-1
 289 726 l 1,3,-1
 206 726 l 1,0,-1
394 353 m 0,4,5
 394 436 394 436 388 490 c 128,-1,6
 382 544 382 544 368 576 c 128,-1,7
 354 608 354 608 331 621 c 128,-1,8
 308 634 308 634 274 634 c 256,9,10
 240 634 240 634 217 621 c 128,-1,11
 194 608 194 608 180 576 c 128,-1,12
 166 544 166 544 160 490 c 128,-1,13
 154 436 154 436 154 353 c 0,14,15
 154 272 154 272 160 217.5 c 128,-1,16
 166 163 166 163 180 129 c 128,-1,17
 194 95 194 95 217 80.5 c 128,-1,18
 240 66 240 66 274 66 c 256,19,20
 308 66 308 66 331 80.5 c 128,-1,21
 354 95 354 95 368 129 c 128,-1,22
 382 163 382 163 388 217.5 c 128,-1,23
 394 272 394 272 394 353 c 0,4,5
483 358 m 0,24,25
 483 266 483 266 473.5 197.5 c 128,-1,26
 464 129 464 129 440.5 83.5 c 128,-1,27
 417 38 417 38 376.5 15.5 c 128,-1,28
 336 -7 336 -7 274 -7 c 256,29,30
 212 -7 212 -7 171.5 15.5 c 128,-1,31
 131 38 131 38 107.5 83.5 c 128,-1,32
 84 129 84 129 74.5 197.5 c 128,-1,33
 65 266 65 266 65 358 c 0,34,35
 65 446 65 446 74.5 511.5 c 128,-1,36
 84 577 84 577 107.5 620.5 c 128,-1,37
 131 664 131 664 171.5 685.5 c 128,-1,38
 212 707 212 707 274 707 c 256,39,40
 336 707 336 707 376.5 685.5 c 128,-1,41
 417 664 417 664 440.5 620.5 c 128,-1,42
 464 577 464 577 473.5 511.5 c 128,-1,43
 483 446 483 446 483 358 c 0,24,25
EndSplineSet
Position2: "'cpsp' Capital Spacing in Latin lookup 0 subtable" dx=5 dy=0 dh=10 dv=0
EndChar

StartChar: Ocircumflex
Encoding: 212 212 188
Width: 548
Flags: W
LayerCount: 2
Fore
SplineSet
334 730 m 1,0,-1
 274 794 l 1,1,-1
 214 730 l 1,2,-1
 118 730 l 1,3,-1
 228 845 l 1,4,-1
 320 845 l 1,5,-1
 431 730 l 1,6,-1
 334 730 l 1,0,-1
394 353 m 0,7,8
 394 436 394 436 388 490 c 128,-1,9
 382 544 382 544 368 576 c 128,-1,10
 354 608 354 608 331 621 c 128,-1,11
 308 634 308 634 274 634 c 256,12,13
 240 634 240 634 217 621 c 128,-1,14
 194 608 194 608 180 576 c 128,-1,15
 166 544 166 544 160 490 c 128,-1,16
 154 436 154 436 154 353 c 0,17,18
 154 272 154 272 160 217.5 c 128,-1,19
 166 163 166 163 180 129 c 128,-1,20
 194 95 194 95 217 80.5 c 128,-1,21
 240 66 240 66 274 66 c 256,22,23
 308 66 308 66 331 80.5 c 128,-1,24
 354 95 354 95 368 129 c 128,-1,25
 382 163 382 163 388 217.5 c 128,-1,26
 394 272 394 272 394 353 c 0,7,8
483 358 m 0,27,28
 483 266 483 266 473.5 197.5 c 128,-1,29
 464 129 464 129 440.5 83.5 c 128,-1,30
 417 38 417 38 376.5 15.5 c 128,-1,31
 336 -7 336 -7 274 -7 c 256,32,33
 212 -7 212 -7 171.5 15.5 c 128,-1,34
 131 38 131 38 107.5 83.5 c 128,-1,35
 84 129 84 129 74.5 197.5 c 128,-1,36
 65 266 65 266 65 358 c 0,37,38
 65 446 65 446 74.5 511.5 c 128,-1,39
 84 577 84 577 107.5 620.5 c 128,-1,40
 131 664 131 664 171.5 685.5 c 128,-1,41
 212 707 212 707 274 707 c 256,42,43
 336 707 336 707 376.5 685.5 c 128,-1,44
 417 664 417 664 440.5 620.5 c 128,-1,45
 464 577 464 577 473.5 511.5 c 128,-1,46
 483 446 483 446 483 358 c 0,27,28
EndSplineSet
Position2: "'cpsp' Capital Spacing in Latin lookup 0 subtable" dx=5 dy=0 dh=10 dv=0
EndChar

StartChar: Odieresis
Encoding: 214 214 189
Width: 548
Flags: W
LayerCount: 2
Fore
SplineSet
332 735 m 1,0,-1
 332 815 l 1,1,-1
 417 815 l 1,2,-1
 417 735 l 1,3,-1
 332 735 l 1,0,-1
132 735 m 1,4,-1
 132 815 l 1,5,-1
 217 815 l 1,6,-1
 217 735 l 1,7,-1
 132 735 l 1,4,-1
394 353 m 0,8,9
 394 436 394 436 388 490 c 128,-1,10
 382 544 382 544 368 576 c 128,-1,11
 354 608 354 608 331 621 c 128,-1,12
 308 634 308 634 274 634 c 256,13,14
 240 634 240 634 217 621 c 128,-1,15
 194 608 194 608 180 576 c 128,-1,16
 166 544 166 544 160 490 c 128,-1,17
 154 436 154 436 154 353 c 0,18,19
 154 272 154 272 160 217.5 c 128,-1,20
 166 163 166 163 180 129 c 128,-1,21
 194 95 194 95 217 80.5 c 128,-1,22
 240 66 240 66 274 66 c 256,23,24
 308 66 308 66 331 80.5 c 128,-1,25
 354 95 354 95 368 129 c 128,-1,26
 382 163 382 163 388 217.5 c 128,-1,27
 394 272 394 272 394 353 c 0,8,9
483 358 m 0,28,29
 483 266 483 266 473.5 197.5 c 128,-1,30
 464 129 464 129 440.5 83.5 c 128,-1,31
 417 38 417 38 376.5 15.5 c 128,-1,32
 336 -7 336 -7 274 -7 c 256,33,34
 212 -7 212 -7 171.5 15.5 c 128,-1,35
 131 38 131 38 107.5 83.5 c 128,-1,36
 84 129 84 129 74.5 197.5 c 128,-1,37
 65 266 65 266 65 358 c 0,38,39
 65 446 65 446 74.5 511.5 c 128,-1,40
 84 577 84 577 107.5 620.5 c 128,-1,41
 131 664 131 664 171.5 685.5 c 128,-1,42
 212 707 212 707 274 707 c 256,43,44
 336 707 336 707 376.5 685.5 c 128,-1,45
 417 664 417 664 440.5 620.5 c 128,-1,46
 464 577 464 577 473.5 511.5 c 128,-1,47
 483 446 483 446 483 358 c 0,28,29
EndSplineSet
Position2: "'cpsp' Capital Spacing in Latin lookup 0 subtable" dx=5 dy=0 dh=10 dv=0
EndChar

StartChar: Ograve
Encoding: 210 210 190
Width: 548
Flags: W
LayerCount: 2
Fore
SplineSet
263 726 m 1,0,-1
 131 841 l 1,1,-1
 242 841 l 1,2,-1
 346 726 l 1,3,-1
 263 726 l 1,0,-1
394 353 m 0,4,5
 394 436 394 436 388 490 c 128,-1,6
 382 544 382 544 368 576 c 128,-1,7
 354 608 354 608 331 621 c 128,-1,8
 308 634 308 634 274 634 c 256,9,10
 240 634 240 634 217 621 c 128,-1,11
 194 608 194 608 180 576 c 128,-1,12
 166 544 166 544 160 490 c 128,-1,13
 154 436 154 436 154 353 c 0,14,15
 154 272 154 272 160 217.5 c 128,-1,16
 166 163 166 163 180 129 c 128,-1,17
 194 95 194 95 217 80.5 c 128,-1,18
 240 66 240 66 274 66 c 256,19,20
 308 66 308 66 331 80.5 c 128,-1,21
 354 95 354 95 368 129 c 128,-1,22
 382 163 382 163 388 217.5 c 128,-1,23
 394 272 394 272 394 353 c 0,4,5
483 358 m 0,24,25
 483 266 483 266 473.5 197.5 c 128,-1,26
 464 129 464 129 440.5 83.5 c 128,-1,27
 417 38 417 38 376.5 15.5 c 128,-1,28
 336 -7 336 -7 274 -7 c 256,29,30
 212 -7 212 -7 171.5 15.5 c 128,-1,31
 131 38 131 38 107.5 83.5 c 128,-1,32
 84 129 84 129 74.5 197.5 c 128,-1,33
 65 266 65 266 65 358 c 0,34,35
 65 446 65 446 74.5 511.5 c 128,-1,36
 84 577 84 577 107.5 620.5 c 128,-1,37
 131 664 131 664 171.5 685.5 c 128,-1,38
 212 707 212 707 274 707 c 256,39,40
 336 707 336 707 376.5 685.5 c 128,-1,41
 417 664 417 664 440.5 620.5 c 128,-1,42
 464 577 464 577 473.5 511.5 c 128,-1,43
 483 446 483 446 483 358 c 0,24,25
EndSplineSet
Position2: "'cpsp' Capital Spacing in Latin lookup 0 subtable" dx=5 dy=0 dh=10 dv=0
EndChar

StartChar: Otilde
Encoding: 213 213 191
Width: 548
Flags: W
LayerCount: 2
Fore
SplineSet
394 353 m 0,0,1
 394 436 394 436 388 490 c 128,-1,2
 382 544 382 544 368 576 c 128,-1,3
 354 608 354 608 331 621 c 128,-1,4
 308 634 308 634 274 634 c 256,5,6
 240 634 240 634 217 621 c 128,-1,7
 194 608 194 608 180 576 c 128,-1,8
 166 544 166 544 160 490 c 128,-1,9
 154 436 154 436 154 353 c 0,10,11
 154 272 154 272 160 217.5 c 128,-1,12
 166 163 166 163 180 129 c 128,-1,13
 194 95 194 95 217 80.5 c 128,-1,14
 240 66 240 66 274 66 c 256,15,16
 308 66 308 66 331 80.5 c 128,-1,17
 354 95 354 95 368 129 c 128,-1,18
 382 163 382 163 388 217.5 c 128,-1,19
 394 272 394 272 394 353 c 0,0,1
483 358 m 0,20,21
 483 266 483 266 473.5 197.5 c 128,-1,22
 464 129 464 129 440.5 83.5 c 128,-1,23
 417 38 417 38 376.5 15.5 c 128,-1,24
 336 -7 336 -7 274 -7 c 256,25,26
 212 -7 212 -7 171.5 15.5 c 128,-1,27
 131 38 131 38 107.5 83.5 c 128,-1,28
 84 129 84 129 74.5 197.5 c 128,-1,29
 65 266 65 266 65 358 c 0,30,31
 65 446 65 446 74.5 511.5 c 128,-1,32
 84 577 84 577 107.5 620.5 c 128,-1,33
 131 664 131 664 171.5 685.5 c 128,-1,34
 212 707 212 707 274 707 c 256,35,36
 336 707 336 707 376.5 685.5 c 128,-1,37
 417 664 417 664 440.5 620.5 c 128,-1,38
 464 577 464 577 473.5 511.5 c 128,-1,39
 483 446 483 446 483 358 c 0,20,21
138 807 m 1,40,41
 161 826 161 826 182.5 833 c 128,-1,42
 204 840 204 840 224 840 c 0,43,44
 242 840 242 840 256.5 834 c 128,-1,45
 271 828 271 828 284 820.5 c 128,-1,46
 297 813 297 813 310 807 c 128,-1,47
 323 801 323 801 338 801 c 0,48,49
 364 801 364 801 381 810.5 c 128,-1,50
 398 820 398 820 418 837 c 1,51,-1
 418 764 l 1,52,53
 398 745 398 745 378 738 c 128,-1,54
 358 731 358 731 332 731 c 0,55,56
 313 731 313 731 299 737 c 128,-1,57
 285 743 285 743 272.5 750.5 c 128,-1,58
 260 758 260 758 247 764 c 128,-1,59
 234 770 234 770 218 770 c 0,60,61
 192 770 192 770 173 759 c 128,-1,62
 154 748 154 748 138 734 c 1,63,-1
 138 807 l 1,40,41
EndSplineSet
Position2: "'cpsp' Capital Spacing in Latin lookup 0 subtable" dx=5 dy=0 dh=10 dv=0
EndChar

StartChar: Scaron
Encoding: 352 352 192
Width: 434
Flags: W
LayerCount: 2
Fore
SplineSet
176 845 m 1,0,-1
 236 778 l 1,1,-1
 296 845 l 1,2,-1
 392 845 l 1,3,-1
 280 730 l 1,4,-1
 192 730 l 1,5,-1
 79 845 l 1,6,-1
 176 845 l 1,0,-1
381 199 m 0,7,8
 381 137 381 137 367 97 c 128,-1,9
 353 57 353 57 327 34 c 128,-1,10
 301 11 301 11 264.5 2 c 128,-1,11
 228 -7 228 -7 183 -7 c 0,12,13
 159 -7 159 -7 126 -3 c 128,-1,14
 93 1 93 1 67 8 c 1,15,-1
 67 81 l 1,16,17
 90 75 90 75 121 70.5 c 128,-1,18
 152 66 152 66 193 66 c 0,19,20
 245 66 245 66 268.5 96 c 128,-1,21
 292 126 292 126 292 189 c 0,22,23
 292 225 292 225 287 249.5 c 128,-1,24
 282 274 282 274 272 289.5 c 128,-1,25
 262 305 262 305 246.5 313 c 128,-1,26
 231 321 231 321 211 325 c 0,27,28
 169 334 169 334 140 348 c 128,-1,29
 111 362 111 362 93 384 c 128,-1,30
 75 406 75 406 66.5 438 c 128,-1,31
 58 470 58 470 58 514 c 0,32,33
 58 568 58 568 72.5 604.5 c 128,-1,34
 87 641 87 641 113.5 664 c 128,-1,35
 140 687 140 687 176 697 c 128,-1,36
 212 707 212 707 255 707 c 0,37,38
 280 707 280 707 309.5 702.5 c 128,-1,39
 339 698 339 698 361 692 c 1,40,-1
 361 619 l 1,41,42
 335 625 335 625 303 629.5 c 128,-1,43
 271 634 271 634 245 634 c 0,44,45
 226 634 226 634 208.5 628 c 128,-1,46
 191 622 191 622 177.5 609 c 128,-1,47
 164 596 164 596 155.5 575.5 c 128,-1,48
 147 555 147 555 147 525 c 256,49,50
 147 495 147 495 150 474.5 c 128,-1,51
 153 454 153 454 161.5 441 c 128,-1,52
 170 428 170 428 185 420.5 c 128,-1,53
 200 413 200 413 224 408 c 0,54,55
 260 401 260 401 289 388 c 128,-1,56
 318 375 318 375 338.5 351.5 c 128,-1,57
 359 328 359 328 370 291 c 128,-1,58
 381 254 381 254 381 199 c 0,7,8
EndSplineSet
Position2: "'cpsp' Capital Spacing in Latin lookup 0 subtable" dx=5 dy=0 dh=10 dv=0
EndChar

StartChar: Uacute
Encoding: 218 218 193
Width: 535
Flags: W
LayerCount: 2
Fore
SplineSet
206 726 m 1,0,-1
 310 841 l 1,1,-1
 421 841 l 1,2,-1
 289 726 l 1,3,-1
 206 726 l 1,0,-1
455 185 m 2,4,5
 455 84 455 84 404.5 38.5 c 128,-1,6
 354 -7 354 -7 268 -7 c 256,7,8
 182 -7 182 -7 131 38.5 c 128,-1,9
 80 84 80 84 80 185 c 2,10,-1
 80 700 l 1,11,-1
 167 700 l 1,12,-1
 167 166 l 2,13,14
 167 113 167 113 195 89.5 c 128,-1,15
 223 66 223 66 268 66 c 256,16,17
 313 66 313 66 340.5 89.5 c 128,-1,18
 368 113 368 113 368 166 c 2,19,-1
 368 700 l 1,20,-1
 455 700 l 1,21,-1
 455 185 l 2,4,5
EndSplineSet
Position2: "'cpsp' Capital Spacing in Latin lookup 0 subtable" dx=5 dy=0 dh=10 dv=0
EndChar

StartChar: Ucircumflex
Encoding: 219 219 194
Width: 535
Flags: W
LayerCount: 2
Fore
SplineSet
329 730 m 1,0,-1
 269 794 l 1,1,-1
 209 730 l 1,2,-1
 113 730 l 1,3,-1
 223 845 l 1,4,-1
 315 845 l 1,5,-1
 426 730 l 1,6,-1
 329 730 l 1,0,-1
455 185 m 2,7,8
 455 84 455 84 404.5 38.5 c 128,-1,9
 354 -7 354 -7 268 -7 c 256,10,11
 182 -7 182 -7 131 38.5 c 128,-1,12
 80 84 80 84 80 185 c 2,13,-1
 80 700 l 1,14,-1
 167 700 l 1,15,-1
 167 166 l 2,16,17
 167 113 167 113 195 89.5 c 128,-1,18
 223 66 223 66 268 66 c 256,19,20
 313 66 313 66 340.5 89.5 c 128,-1,21
 368 113 368 113 368 166 c 2,22,-1
 368 700 l 1,23,-1
 455 700 l 1,24,-1
 455 185 l 2,7,8
EndSplineSet
Position2: "'cpsp' Capital Spacing in Latin lookup 0 subtable" dx=5 dy=0 dh=10 dv=0
EndChar

StartChar: Udieresis
Encoding: 220 220 195
Width: 535
Flags: W
LayerCount: 2
Fore
SplineSet
327 735 m 1,0,-1
 327 815 l 1,1,-1
 412 815 l 1,2,-1
 412 735 l 1,3,-1
 327 735 l 1,0,-1
127 735 m 1,4,-1
 127 815 l 1,5,-1
 212 815 l 1,6,-1
 212 735 l 1,7,-1
 127 735 l 1,4,-1
455 185 m 2,8,9
 455 84 455 84 404.5 38.5 c 128,-1,10
 354 -7 354 -7 268 -7 c 256,11,12
 182 -7 182 -7 131 38.5 c 128,-1,13
 80 84 80 84 80 185 c 2,14,-1
 80 700 l 1,15,-1
 167 700 l 1,16,-1
 167 166 l 2,17,18
 167 113 167 113 195 89.5 c 128,-1,19
 223 66 223 66 268 66 c 256,20,21
 313 66 313 66 340.5 89.5 c 128,-1,22
 368 113 368 113 368 166 c 2,23,-1
 368 700 l 1,24,-1
 455 700 l 1,25,-1
 455 185 l 2,8,9
EndSplineSet
Position2: "'cpsp' Capital Spacing in Latin lookup 0 subtable" dx=5 dy=0 dh=10 dv=0
EndChar

StartChar: Ugrave
Encoding: 217 217 196
Width: 535
Flags: W
LayerCount: 2
Fore
SplineSet
253 726 m 1,0,-1
 121 841 l 1,1,-1
 232 841 l 1,2,-1
 336 726 l 1,3,-1
 253 726 l 1,0,-1
455 185 m 2,4,5
 455 84 455 84 404.5 38.5 c 128,-1,6
 354 -7 354 -7 268 -7 c 256,7,8
 182 -7 182 -7 131 38.5 c 128,-1,9
 80 84 80 84 80 185 c 2,10,-1
 80 700 l 1,11,-1
 167 700 l 1,12,-1
 167 166 l 2,13,14
 167 113 167 113 195 89.5 c 128,-1,15
 223 66 223 66 268 66 c 256,16,17
 313 66 313 66 340.5 89.5 c 128,-1,18
 368 113 368 113 368 166 c 2,19,-1
 368 700 l 1,20,-1
 455 700 l 1,21,-1
 455 185 l 2,4,5
EndSplineSet
Position2: "'cpsp' Capital Spacing in Latin lookup 0 subtable" dx=5 dy=0 dh=10 dv=0
EndChar

StartChar: Yacute
Encoding: 221 221 197
Width: 491
Flags: W
LayerCount: 2
Fore
SplineSet
186 726 m 1,0,-1
 290 841 l 1,1,-1
 401 841 l 1,2,-1
 269 726 l 1,3,-1
 186 726 l 1,0,-1
289 325 m 1,4,-1
 289 0 l 1,5,-1
 199 0 l 1,6,-1
 199 325 l 1,7,-1
 20 700 l 1,8,-1
 116 700 l 1,9,-1
 248 409 l 1,10,-1
 380 700 l 1,11,-1
 471 700 l 1,12,-1
 289 325 l 1,4,-1
EndSplineSet
Position2: "'cpsp' Capital Spacing in Latin lookup 0 subtable" dx=5 dy=0 dh=10 dv=0
EndChar

StartChar: Ydieresis
Encoding: 376 376 198
Width: 491
Flags: W
LayerCount: 2
Fore
SplineSet
289 325 m 1,0,-1
 289 0 l 1,1,-1
 199 0 l 1,2,-1
 199 325 l 1,3,-1
 20 700 l 1,4,-1
 116 700 l 1,5,-1
 248 409 l 1,6,-1
 380 700 l 1,7,-1
 471 700 l 1,8,-1
 289 325 l 1,0,-1
307 735 m 1,9,-1
 307 815 l 1,10,-1
 392 815 l 1,11,-1
 392 735 l 1,12,-1
 307 735 l 1,9,-1
107 735 m 1,13,-1
 107 815 l 1,14,-1
 192 815 l 1,15,-1
 192 735 l 1,16,-1
 107 735 l 1,13,-1
EndSplineSet
Position2: "'cpsp' Capital Spacing in Latin lookup 0 subtable" dx=5 dy=0 dh=10 dv=0
EndChar

StartChar: Zcaron
Encoding: 381 381 199
Width: 436
Flags: W
LayerCount: 2
Fore
SplineSet
169 845 m 1,0,-1
 229 778 l 1,1,-1
 289 845 l 1,2,-1
 385 845 l 1,3,-1
 273 730 l 1,4,-1
 185 730 l 1,5,-1
 72 845 l 1,6,-1
 169 845 l 1,0,-1
134 74 m 1,7,-1
 381 74 l 1,8,-1
 381 0 l 1,9,-1
 45 0 l 1,10,-1
 45 88 l 1,11,-1
 303 626 l 1,12,-1
 68 626 l 1,13,-1
 68 700 l 1,14,-1
 391 700 l 1,15,-1
 391 612 l 1,16,-1
 134 74 l 1,7,-1
EndSplineSet
Position2: "'cpsp' Capital Spacing in Latin lookup 0 subtable" dx=5 dy=0 dh=10 dv=0
EndChar

StartChar: aacute
Encoding: 225 225 200
Width: 481
Flags: W
LayerCount: 2
Fore
SplineSet
406 0 m 2,0,1
 399 0 399 0 388.5 2 c 128,-1,2
 378 4 378 4 367 9 c 128,-1,3
 356 14 356 14 346.5 24 c 128,-1,4
 337 34 337 34 331 49 c 1,5,6
 312 22 312 22 281 7.5 c 128,-1,7
 250 -7 250 -7 199 -7 c 0,8,9
 172 -7 172 -7 145 -1.5 c 128,-1,10
 118 4 118 4 97 20.5 c 128,-1,11
 76 37 76 37 63 66 c 128,-1,12
 50 95 50 95 50 141 c 0,13,14
 50 222 50 222 97 265 c 128,-1,15
 144 308 144 308 228 308 c 2,16,-1
 307 308 l 1,17,-1
 307 362 l 2,18,19
 307 394 307 394 288.5 414.5 c 128,-1,20
 270 435 270 435 232 435 c 0,21,22
 189 435 189 435 157 430 c 128,-1,23
 125 425 125 425 87 414 c 1,24,-1
 87 487 l 1,25,26
 115 495 115 495 150 501 c 128,-1,27
 185 507 185 507 222 507 c 0,28,29
 271 507 271 507 303.5 497.5 c 128,-1,30
 336 488 336 488 355.5 467.5 c 128,-1,31
 375 447 375 447 383.5 416 c 128,-1,32
 392 385 392 385 392 342 c 2,33,-1
 392 102 l 2,34,35
 392 87 392 87 402 78.5 c 128,-1,36
 412 70 412 70 436 70 c 1,37,-1
 436 0 l 1,38,-1
 406 0 l 2,0,1
219 65 m 0,39,40
 245 65 245 65 262 73 c 128,-1,41
 279 81 279 81 289 92.5 c 128,-1,42
 299 104 299 104 303 116 c 128,-1,43
 307 128 307 128 307 135 c 2,44,-1
 307 240 l 1,45,-1
 223 240 l 2,46,47
 207 240 207 240 191.5 235 c 128,-1,48
 176 230 176 230 164 218.5 c 128,-1,49
 152 207 152 207 144.5 189.5 c 128,-1,50
 137 172 137 172 137 147 c 0,51,52
 137 100 137 100 158 82.5 c 128,-1,53
 179 65 179 65 219 65 c 0,39,40
182 580 m 1,54,-1
 286 715 l 1,55,-1
 395 715 l 1,56,-1
 263 580 l 1,57,-1
 182 580 l 1,54,-1
EndSplineSet
EndChar

StartChar: acircumflex
Encoding: 226 226 201
Width: 481
Flags: W
LayerCount: 2
Fore
SplineSet
406 0 m 2,0,1
 399 0 399 0 388.5 2 c 128,-1,2
 378 4 378 4 367 9 c 128,-1,3
 356 14 356 14 346.5 24 c 128,-1,4
 337 34 337 34 331 49 c 1,5,6
 312 22 312 22 281 7.5 c 128,-1,7
 250 -7 250 -7 199 -7 c 0,8,9
 172 -7 172 -7 145 -1.5 c 128,-1,10
 118 4 118 4 97 20.5 c 128,-1,11
 76 37 76 37 63 66 c 128,-1,12
 50 95 50 95 50 141 c 0,13,14
 50 222 50 222 97 265 c 128,-1,15
 144 308 144 308 228 308 c 2,16,-1
 307 308 l 1,17,-1
 307 362 l 2,18,19
 307 394 307 394 288.5 414.5 c 128,-1,20
 270 435 270 435 232 435 c 0,21,22
 189 435 189 435 157 430 c 128,-1,23
 125 425 125 425 87 414 c 1,24,-1
 87 487 l 1,25,26
 115 495 115 495 150 501 c 128,-1,27
 185 507 185 507 222 507 c 0,28,29
 271 507 271 507 303.5 497.5 c 128,-1,30
 336 488 336 488 355.5 467.5 c 128,-1,31
 375 447 375 447 383.5 416 c 128,-1,32
 392 385 392 385 392 342 c 2,33,-1
 392 102 l 2,34,35
 392 87 392 87 402 78.5 c 128,-1,36
 412 70 412 70 436 70 c 1,37,-1
 436 0 l 1,38,-1
 406 0 l 2,0,1
219 65 m 0,39,40
 245 65 245 65 262 73 c 128,-1,41
 279 81 279 81 289 92.5 c 128,-1,42
 299 104 299 104 303 116 c 128,-1,43
 307 128 307 128 307 135 c 2,44,-1
 307 240 l 1,45,-1
 223 240 l 2,46,47
 207 240 207 240 191.5 235 c 128,-1,48
 176 230 176 230 164 218.5 c 128,-1,49
 152 207 152 207 144.5 189.5 c 128,-1,50
 137 172 137 172 137 147 c 0,51,52
 137 100 137 100 158 82.5 c 128,-1,53
 179 65 179 65 219 65 c 0,39,40
305 580 m 1,54,-1
 245 664 l 1,55,-1
 185 580 l 1,56,-1
 89 580 l 1,57,-1
 201 715 l 1,58,-1
 289 715 l 1,59,-1
 402 580 l 1,60,-1
 305 580 l 1,54,-1
EndSplineSet
EndChar

StartChar: adieresis
Encoding: 228 228 202
Width: 481
Flags: W
LayerCount: 2
Fore
SplineSet
406 0 m 2,0,1
 399 0 399 0 388.5 2 c 128,-1,2
 378 4 378 4 367 9 c 128,-1,3
 356 14 356 14 346.5 24 c 128,-1,4
 337 34 337 34 331 49 c 1,5,6
 312 22 312 22 281 7.5 c 128,-1,7
 250 -7 250 -7 199 -7 c 0,8,9
 172 -7 172 -7 145 -1.5 c 128,-1,10
 118 4 118 4 97 20.5 c 128,-1,11
 76 37 76 37 63 66 c 128,-1,12
 50 95 50 95 50 141 c 0,13,14
 50 222 50 222 97 265 c 128,-1,15
 144 308 144 308 228 308 c 2,16,-1
 307 308 l 1,17,-1
 307 362 l 2,18,19
 307 394 307 394 288.5 414.5 c 128,-1,20
 270 435 270 435 232 435 c 0,21,22
 189 435 189 435 157 430 c 128,-1,23
 125 425 125 425 87 414 c 1,24,-1
 87 487 l 1,25,26
 115 495 115 495 150 501 c 128,-1,27
 185 507 185 507 222 507 c 0,28,29
 271 507 271 507 303.5 497.5 c 128,-1,30
 336 488 336 488 355.5 467.5 c 128,-1,31
 375 447 375 447 383.5 416 c 128,-1,32
 392 385 392 385 392 342 c 2,33,-1
 392 102 l 2,34,35
 392 87 392 87 402 78.5 c 128,-1,36
 412 70 412 70 436 70 c 1,37,-1
 436 0 l 1,38,-1
 406 0 l 2,0,1
219 65 m 0,39,40
 245 65 245 65 262 73 c 128,-1,41
 279 81 279 81 289 92.5 c 128,-1,42
 299 104 299 104 303 116 c 128,-1,43
 307 128 307 128 307 135 c 2,44,-1
 307 240 l 1,45,-1
 223 240 l 2,46,47
 207 240 207 240 191.5 235 c 128,-1,48
 176 230 176 230 164 218.5 c 128,-1,49
 152 207 152 207 144.5 189.5 c 128,-1,50
 137 172 137 172 137 147 c 0,51,52
 137 100 137 100 158 82.5 c 128,-1,53
 179 65 179 65 219 65 c 0,39,40
297 595 m 1,54,-1
 297 675 l 1,55,-1
 382 675 l 1,56,-1
 382 595 l 1,57,-1
 297 595 l 1,54,-1
97 595 m 1,58,-1
 97 675 l 1,59,-1
 182 675 l 1,60,-1
 182 595 l 1,61,-1
 97 595 l 1,58,-1
EndSplineSet
EndChar

StartChar: agrave
Encoding: 224 224 203
Width: 481
Flags: W
LayerCount: 2
Fore
SplineSet
406 0 m 2,0,1
 399 0 399 0 388.5 2 c 128,-1,2
 378 4 378 4 367 9 c 128,-1,3
 356 14 356 14 346.5 24 c 128,-1,4
 337 34 337 34 331 49 c 1,5,6
 312 22 312 22 281 7.5 c 128,-1,7
 250 -7 250 -7 199 -7 c 0,8,9
 172 -7 172 -7 145 -1.5 c 128,-1,10
 118 4 118 4 97 20.5 c 128,-1,11
 76 37 76 37 63 66 c 128,-1,12
 50 95 50 95 50 141 c 0,13,14
 50 222 50 222 97 265 c 128,-1,15
 144 308 144 308 228 308 c 2,16,-1
 307 308 l 1,17,-1
 307 362 l 2,18,19
 307 394 307 394 288.5 414.5 c 128,-1,20
 270 435 270 435 232 435 c 0,21,22
 189 435 189 435 157 430 c 128,-1,23
 125 425 125 425 87 414 c 1,24,-1
 87 487 l 1,25,26
 115 495 115 495 150 501 c 128,-1,27
 185 507 185 507 222 507 c 0,28,29
 271 507 271 507 303.5 497.5 c 128,-1,30
 336 488 336 488 355.5 467.5 c 128,-1,31
 375 447 375 447 383.5 416 c 128,-1,32
 392 385 392 385 392 342 c 2,33,-1
 392 102 l 2,34,35
 392 87 392 87 402 78.5 c 128,-1,36
 412 70 412 70 436 70 c 1,37,-1
 436 0 l 1,38,-1
 406 0 l 2,0,1
219 65 m 0,39,40
 245 65 245 65 262 73 c 128,-1,41
 279 81 279 81 289 92.5 c 128,-1,42
 299 104 299 104 303 116 c 128,-1,43
 307 128 307 128 307 135 c 2,44,-1
 307 240 l 1,45,-1
 223 240 l 2,46,47
 207 240 207 240 191.5 235 c 128,-1,48
 176 230 176 230 164 218.5 c 128,-1,49
 152 207 152 207 144.5 189.5 c 128,-1,50
 137 172 137 172 137 147 c 0,51,52
 137 100 137 100 158 82.5 c 128,-1,53
 179 65 179 65 219 65 c 0,39,40
240 580 m 1,54,-1
 108 715 l 1,55,-1
 217 715 l 1,56,-1
 321 580 l 1,57,-1
 240 580 l 1,54,-1
EndSplineSet
EndChar

StartChar: aring
Encoding: 229 229 204
Width: 481
Flags: W
LayerCount: 2
Fore
SplineSet
267 646 m 0,0,1
 267 666 267 666 259.5 680.5 c 128,-1,2
 252 695 252 695 229 695 c 0,3,4
 207 695 207 695 199.5 679.5 c 128,-1,5
 192 664 192 664 192 646 c 0,6,7
 192 629 192 629 199.5 613 c 128,-1,8
 207 597 207 597 229 597 c 0,9,10
 254 597 254 597 260.5 612 c 128,-1,11
 267 627 267 627 267 646 c 0,0,1
325 645 m 0,12,13
 325 601 325 601 299 572 c 128,-1,14
 273 543 273 543 229 543 c 256,15,16
 185 543 185 543 160 572.5 c 128,-1,17
 135 602 135 602 135 645 c 0,18,19
 135 689 135 689 160 718 c 128,-1,20
 185 747 185 747 229 747 c 0,21,22
 274 747 274 747 299.5 718.5 c 128,-1,23
 325 690 325 690 325 645 c 0,12,13
406 0 m 2,24,25
 399 0 399 0 388.5 2 c 128,-1,26
 378 4 378 4 367 9 c 128,-1,27
 356 14 356 14 346.5 24 c 128,-1,28
 337 34 337 34 331 49 c 1,29,30
 312 22 312 22 281 7.5 c 128,-1,31
 250 -7 250 -7 199 -7 c 0,32,33
 172 -7 172 -7 145 -1.5 c 128,-1,34
 118 4 118 4 97 20.5 c 128,-1,35
 76 37 76 37 63 66 c 128,-1,36
 50 95 50 95 50 141 c 0,37,38
 50 222 50 222 97 265 c 128,-1,39
 144 308 144 308 228 308 c 2,40,-1
 307 308 l 1,41,-1
 307 362 l 2,42,43
 307 394 307 394 288.5 414.5 c 128,-1,44
 270 435 270 435 232 435 c 0,45,46
 189 435 189 435 157 430 c 128,-1,47
 125 425 125 425 87 414 c 1,48,-1
 87 487 l 1,49,50
 115 495 115 495 150 501 c 128,-1,51
 185 507 185 507 222 507 c 0,52,53
 271 507 271 507 303.5 497.5 c 128,-1,54
 336 488 336 488 355.5 467.5 c 128,-1,55
 375 447 375 447 383.5 416 c 128,-1,56
 392 385 392 385 392 342 c 2,57,-1
 392 102 l 2,58,59
 392 87 392 87 402 78.5 c 128,-1,60
 412 70 412 70 436 70 c 1,61,-1
 436 0 l 1,62,-1
 406 0 l 2,24,25
219 65 m 0,63,64
 245 65 245 65 262 73 c 128,-1,65
 279 81 279 81 289 92.5 c 128,-1,66
 299 104 299 104 303 116 c 128,-1,67
 307 128 307 128 307 135 c 2,68,-1
 307 240 l 1,69,-1
 223 240 l 2,70,71
 207 240 207 240 191.5 235 c 128,-1,72
 176 230 176 230 164 218.5 c 128,-1,73
 152 207 152 207 144.5 189.5 c 128,-1,74
 137 172 137 172 137 147 c 0,75,76
 137 100 137 100 158 82.5 c 128,-1,77
 179 65 179 65 219 65 c 0,63,64
EndSplineSet
EndChar

StartChar: atilde
Encoding: 227 227 205
Width: 481
Flags: W
LayerCount: 2
Fore
SplineSet
406 0 m 2,0,1
 399 0 399 0 388.5 2 c 128,-1,2
 378 4 378 4 367 9 c 128,-1,3
 356 14 356 14 346.5 24 c 128,-1,4
 337 34 337 34 331 49 c 1,5,6
 312 22 312 22 281 7.5 c 128,-1,7
 250 -7 250 -7 199 -7 c 0,8,9
 172 -7 172 -7 145 -1.5 c 128,-1,10
 118 4 118 4 97 20.5 c 128,-1,11
 76 37 76 37 63 66 c 128,-1,12
 50 95 50 95 50 141 c 0,13,14
 50 222 50 222 97 265 c 128,-1,15
 144 308 144 308 228 308 c 2,16,-1
 307 308 l 1,17,-1
 307 362 l 2,18,19
 307 394 307 394 288.5 414.5 c 128,-1,20
 270 435 270 435 232 435 c 0,21,22
 189 435 189 435 157 430 c 128,-1,23
 125 425 125 425 87 414 c 1,24,-1
 87 487 l 1,25,26
 115 495 115 495 150 501 c 128,-1,27
 185 507 185 507 222 507 c 0,28,29
 271 507 271 507 303.5 497.5 c 128,-1,30
 336 488 336 488 355.5 467.5 c 128,-1,31
 375 447 375 447 383.5 416 c 128,-1,32
 392 385 392 385 392 342 c 2,33,-1
 392 102 l 2,34,35
 392 87 392 87 402 78.5 c 128,-1,36
 412 70 412 70 436 70 c 1,37,-1
 436 0 l 1,38,-1
 406 0 l 2,0,1
219 65 m 0,39,40
 245 65 245 65 262 73 c 128,-1,41
 279 81 279 81 289 92.5 c 128,-1,42
 299 104 299 104 303 116 c 128,-1,43
 307 128 307 128 307 135 c 2,44,-1
 307 240 l 1,45,-1
 223 240 l 2,46,47
 207 240 207 240 191.5 235 c 128,-1,48
 176 230 176 230 164 218.5 c 128,-1,49
 152 207 152 207 144.5 189.5 c 128,-1,50
 137 172 137 172 137 147 c 0,51,52
 137 100 137 100 158 82.5 c 128,-1,53
 179 65 179 65 219 65 c 0,39,40
101 667 m 1,54,55
 124 686 124 686 145.5 693 c 128,-1,56
 167 700 167 700 187 700 c 0,57,58
 205 700 205 700 219.5 694 c 128,-1,59
 234 688 234 688 247 680.5 c 128,-1,60
 260 673 260 673 273 667 c 128,-1,61
 286 661 286 661 301 661 c 0,62,63
 327 661 327 661 344 670.5 c 128,-1,64
 361 680 361 680 381 697 c 1,65,-1
 381 624 l 1,66,67
 361 605 361 605 341 598 c 128,-1,68
 321 591 321 591 295 591 c 0,69,70
 276 591 276 591 262 597 c 128,-1,71
 248 603 248 603 235.5 610.5 c 128,-1,72
 223 618 223 618 210 624 c 128,-1,73
 197 630 197 630 181 630 c 0,74,75
 155 630 155 630 136 619 c 128,-1,76
 117 608 117 608 101 594 c 1,77,-1
 101 667 l 1,54,55
EndSplineSet
EndChar

StartChar: ccedilla
Encoding: 231 231 206
Width: 404
Flags: W
LayerCount: 2
Fore
SplineSet
164 -131 m 1,0,1
 178 -134 178 -134 192.5 -135.5 c 128,-1,2
 207 -137 207 -137 218 -137 c 0,3,4
 238 -137 238 -137 248.5 -131 c 128,-1,5
 259 -125 259 -125 259 -106 c 0,6,7
 259 -99 259 -99 255.5 -93 c 128,-1,8
 252 -87 252 -87 243 -83.5 c 128,-1,9
 234 -80 234 -80 218.5 -78 c 128,-1,10
 203 -76 203 -76 178 -76 c 1,11,-1
 189 -3 l 1,12,13
 158 2 158 2 135 16.5 c 128,-1,14
 112 31 112 31 96.5 61 c 128,-1,15
 81 91 81 91 73 139.5 c 128,-1,16
 65 188 65 188 65 260 c 0,17,18
 65 327 65 327 75.5 374 c 128,-1,19
 86 421 86 421 107 450.5 c 128,-1,20
 128 480 128 480 161 493.5 c 128,-1,21
 194 507 194 507 239 507 c 0,22,23
 264 507 264 507 295.5 502 c 128,-1,24
 327 497 327 497 349 492 c 1,25,-1
 349 418 l 1,26,27
 321 424 321 424 296 428 c 128,-1,28
 271 432 271 432 233 432 c 0,29,30
 211 432 211 432 196 423 c 128,-1,31
 181 414 181 414 171 391.5 c 128,-1,32
 161 369 161 369 156.5 332.5 c 128,-1,33
 152 296 152 296 152 240 c 256,34,35
 152 184 152 184 157.5 150 c 128,-1,36
 163 116 163 116 173.5 98 c 128,-1,37
 184 80 184 80 199 74 c 128,-1,38
 214 68 214 68 233 68 c 0,39,40
 274 68 274 68 300.5 73 c 128,-1,41
 327 78 327 78 349 83 c 1,42,-1
 349 9 l 1,43,44
 328 3 328 3 303.5 -1 c 128,-1,45
 279 -5 279 -5 255 -7 c 1,46,-1
 252 -27 l 1,47,48
 297 -32 297 -32 316 -51.5 c 128,-1,49
 335 -71 335 -71 335 -109 c 0,50,51
 335 -157 335 -157 305.5 -178.5 c 128,-1,52
 276 -200 276 -200 227 -200 c 0,53,54
 209 -200 209 -200 194.5 -198 c 128,-1,55
 180 -196 180 -196 164 -193 c 1,56,-1
 164 -131 l 1,0,1
EndSplineSet
EndChar

StartChar: eacute
Encoding: 233 233 207
Width: 468
Flags: W
LayerCount: 2
Fore
SplineSet
150 220 m 1,0,1
 151 171 151 171 157.5 140.5 c 128,-1,2
 164 110 164 110 175 93 c 128,-1,3
 186 76 186 76 201 70.5 c 128,-1,4
 216 65 216 65 235 65 c 0,5,6
 277 65 277 65 311.5 70.5 c 128,-1,7
 346 76 346 76 369 81 c 1,8,-1
 369 9 l 1,9,10
 345 2 345 2 308.5 -2.5 c 128,-1,11
 272 -7 272 -7 245 -7 c 0,12,13
 202 -7 202 -7 168.5 2 c 128,-1,14
 135 11 135 11 112 38 c 128,-1,15
 89 65 89 65 77 115.5 c 128,-1,16
 65 166 65 166 65 250 c 0,17,18
 65 319 65 319 76.5 368 c 128,-1,19
 88 417 88 417 111 448 c 128,-1,20
 134 479 134 479 168 493 c 128,-1,21
 202 507 202 507 247 507 c 0,22,23
 333 507 333 507 370.5 450.5 c 128,-1,24
 408 394 408 394 408 295 c 2,25,-1
 408 220 l 1,26,-1
 150 220 l 1,0,1
245 436 m 0,27,28
 221 436 221 436 204 429 c 128,-1,29
 187 422 187 422 176 405 c 128,-1,30
 165 388 165 388 159 359.5 c 128,-1,31
 153 331 153 331 151 288 c 1,32,-1
 325 288 l 1,33,-1
 325 315 l 2,34,35
 325 372 325 372 307.5 404 c 128,-1,36
 290 436 290 436 245 436 c 0,27,28
182 580 m 1,37,-1
 286 715 l 1,38,-1
 395 715 l 1,39,-1
 263 580 l 1,40,-1
 182 580 l 1,37,-1
EndSplineSet
EndChar

StartChar: ecircumflex
Encoding: 234 234 208
Width: 468
Flags: W
LayerCount: 2
Fore
SplineSet
150 220 m 1,0,1
 151 171 151 171 157.5 140.5 c 128,-1,2
 164 110 164 110 175 93 c 128,-1,3
 186 76 186 76 201 70.5 c 128,-1,4
 216 65 216 65 235 65 c 0,5,6
 277 65 277 65 311.5 70.5 c 128,-1,7
 346 76 346 76 369 81 c 1,8,-1
 369 9 l 1,9,10
 345 2 345 2 308.5 -2.5 c 128,-1,11
 272 -7 272 -7 245 -7 c 0,12,13
 202 -7 202 -7 168.5 2 c 128,-1,14
 135 11 135 11 112 38 c 128,-1,15
 89 65 89 65 77 115.5 c 128,-1,16
 65 166 65 166 65 250 c 0,17,18
 65 319 65 319 76.5 368 c 128,-1,19
 88 417 88 417 111 448 c 128,-1,20
 134 479 134 479 168 493 c 128,-1,21
 202 507 202 507 247 507 c 0,22,23
 333 507 333 507 370.5 450.5 c 128,-1,24
 408 394 408 394 408 295 c 2,25,-1
 408 220 l 1,26,-1
 150 220 l 1,0,1
245 436 m 0,27,28
 221 436 221 436 204 429 c 128,-1,29
 187 422 187 422 176 405 c 128,-1,30
 165 388 165 388 159 359.5 c 128,-1,31
 153 331 153 331 151 288 c 1,32,-1
 325 288 l 1,33,-1
 325 315 l 2,34,35
 325 372 325 372 307.5 404 c 128,-1,36
 290 436 290 436 245 436 c 0,27,28
307 580 m 1,37,-1
 247 664 l 1,38,-1
 187 580 l 1,39,-1
 91 580 l 1,40,-1
 203 715 l 1,41,-1
 291 715 l 1,42,-1
 404 580 l 1,43,-1
 307 580 l 1,37,-1
EndSplineSet
EndChar

StartChar: edieresis
Encoding: 235 235 209
Width: 468
Flags: W
LayerCount: 2
Fore
SplineSet
150 220 m 1,0,1
 151 171 151 171 157.5 140.5 c 128,-1,2
 164 110 164 110 175 93 c 128,-1,3
 186 76 186 76 201 70.5 c 128,-1,4
 216 65 216 65 235 65 c 0,5,6
 277 65 277 65 311.5 70.5 c 128,-1,7
 346 76 346 76 369 81 c 1,8,-1
 369 9 l 1,9,10
 345 2 345 2 308.5 -2.5 c 128,-1,11
 272 -7 272 -7 245 -7 c 0,12,13
 202 -7 202 -7 168.5 2 c 128,-1,14
 135 11 135 11 112 38 c 128,-1,15
 89 65 89 65 77 115.5 c 128,-1,16
 65 166 65 166 65 250 c 0,17,18
 65 319 65 319 76.5 368 c 128,-1,19
 88 417 88 417 111 448 c 128,-1,20
 134 479 134 479 168 493 c 128,-1,21
 202 507 202 507 247 507 c 0,22,23
 333 507 333 507 370.5 450.5 c 128,-1,24
 408 394 408 394 408 295 c 2,25,-1
 408 220 l 1,26,-1
 150 220 l 1,0,1
245 436 m 0,27,28
 221 436 221 436 204 429 c 128,-1,29
 187 422 187 422 176 405 c 128,-1,30
 165 388 165 388 159 359.5 c 128,-1,31
 153 331 153 331 151 288 c 1,32,-1
 325 288 l 1,33,-1
 325 315 l 2,34,35
 325 372 325 372 307.5 404 c 128,-1,36
 290 436 290 436 245 436 c 0,27,28
307 595 m 1,37,-1
 307 675 l 1,38,-1
 392 675 l 1,39,-1
 392 595 l 1,40,-1
 307 595 l 1,37,-1
107 595 m 1,41,-1
 107 675 l 1,42,-1
 192 675 l 1,43,-1
 192 595 l 1,44,-1
 107 595 l 1,41,-1
EndSplineSet
EndChar

StartChar: egrave
Encoding: 232 232 210
Width: 468
Flags: W
LayerCount: 2
Fore
SplineSet
150 220 m 1,0,1
 151 171 151 171 157.5 140.5 c 128,-1,2
 164 110 164 110 175 93 c 128,-1,3
 186 76 186 76 201 70.5 c 128,-1,4
 216 65 216 65 235 65 c 0,5,6
 277 65 277 65 311.5 70.5 c 128,-1,7
 346 76 346 76 369 81 c 1,8,-1
 369 9 l 1,9,10
 345 2 345 2 308.5 -2.5 c 128,-1,11
 272 -7 272 -7 245 -7 c 0,12,13
 202 -7 202 -7 168.5 2 c 128,-1,14
 135 11 135 11 112 38 c 128,-1,15
 89 65 89 65 77 115.5 c 128,-1,16
 65 166 65 166 65 250 c 0,17,18
 65 319 65 319 76.5 368 c 128,-1,19
 88 417 88 417 111 448 c 128,-1,20
 134 479 134 479 168 493 c 128,-1,21
 202 507 202 507 247 507 c 0,22,23
 333 507 333 507 370.5 450.5 c 128,-1,24
 408 394 408 394 408 295 c 2,25,-1
 408 220 l 1,26,-1
 150 220 l 1,0,1
245 436 m 0,27,28
 221 436 221 436 204 429 c 128,-1,29
 187 422 187 422 176 405 c 128,-1,30
 165 388 165 388 159 359.5 c 128,-1,31
 153 331 153 331 151 288 c 1,32,-1
 325 288 l 1,33,-1
 325 315 l 2,34,35
 325 372 325 372 307.5 404 c 128,-1,36
 290 436 290 436 245 436 c 0,27,28
238 580 m 1,37,-1
 106 715 l 1,38,-1
 215 715 l 1,39,-1
 319 580 l 1,40,-1
 238 580 l 1,37,-1
EndSplineSet
EndChar

StartChar: iacute
Encoding: 237 237 211
Width: 245
Flags: W
LayerCount: 2
Fore
SplineSet
80 0 m 1,0,-1
 80 500 l 1,1,-1
 165 500 l 1,2,-1
 165 0 l 1,3,-1
 80 0 l 1,0,-1
55 580 m 1,4,-1
 159 715 l 1,5,-1
 268 715 l 1,6,-1
 136 580 l 1,7,-1
 55 580 l 1,4,-1
EndSplineSet
EndChar

StartChar: icircumflex
Encoding: 238 238 212
Width: 245
Flags: W
LayerCount: 2
Fore
SplineSet
80 0 m 1,0,-1
 80 500 l 1,1,-1
 165 500 l 1,2,-1
 165 0 l 1,3,-1
 80 0 l 1,0,-1
182 580 m 1,4,-1
 122 664 l 1,5,-1
 62 580 l 1,6,-1
 -34 580 l 1,7,-1
 78 715 l 1,8,-1
 166 715 l 1,9,-1
 279 580 l 1,10,-1
 182 580 l 1,4,-1
EndSplineSet
EndChar

StartChar: idieresis
Encoding: 239 239 213
Width: 245
Flags: W
LayerCount: 2
Fore
SplineSet
80 0 m 1,0,-1
 80 500 l 1,1,-1
 165 500 l 1,2,-1
 165 0 l 1,3,-1
 80 0 l 1,0,-1
180 595 m 1,4,-1
 180 675 l 1,5,-1
 265 675 l 1,6,-1
 265 595 l 1,7,-1
 180 595 l 1,4,-1
-20 595 m 1,8,-1
 -20 675 l 1,9,-1
 65 675 l 1,10,-1
 65 595 l 1,11,-1
 -20 595 l 1,8,-1
EndSplineSet
EndChar

StartChar: igrave
Encoding: 236 236 214
Width: 245
Flags: W
LayerCount: 2
Fore
SplineSet
80 0 m 1,0,-1
 80 500 l 1,1,-1
 165 500 l 1,2,-1
 165 0 l 1,3,-1
 80 0 l 1,0,-1
108 580 m 1,4,-1
 -24 715 l 1,5,-1
 80 715 l 1,6,-1
 189 580 l 1,7,-1
 108 580 l 1,4,-1
EndSplineSet
EndChar

StartChar: ntilde
Encoding: 241 241 215
Width: 506
Flags: W
LayerCount: 2
Fore
SplineSet
80 0 m 1,0,-1
 80 500 l 1,1,-1
 150 500 l 1,2,-1
 157 455 l 1,3,4
 206 507 206 507 280 507 c 0,5,6
 323 507 323 507 352 496.5 c 128,-1,7
 381 486 381 486 398.5 464.5 c 128,-1,8
 416 443 416 443 423.5 409.5 c 128,-1,9
 431 376 431 376 431 330 c 2,10,-1
 431 0 l 1,11,-1
 346 0 l 1,12,-1
 346 340 l 2,13,14
 346 387 346 387 330.5 411 c 128,-1,15
 315 435 315 435 265 435 c 0,16,17
 244 435 244 435 225.5 427 c 128,-1,18
 207 419 207 419 193.5 406 c 128,-1,19
 180 393 180 393 172.5 378.5 c 128,-1,20
 165 364 165 364 165 350 c 2,21,-1
 165 0 l 1,22,-1
 80 0 l 1,0,-1
134 667 m 1,23,24
 157 686 157 686 178.5 693 c 128,-1,25
 200 700 200 700 220 700 c 0,26,27
 238 700 238 700 252.5 694 c 128,-1,28
 267 688 267 688 280 680.5 c 128,-1,29
 293 673 293 673 306 667 c 128,-1,30
 319 661 319 661 334 661 c 0,31,32
 360 661 360 661 377 670.5 c 128,-1,33
 394 680 394 680 414 697 c 1,34,-1
 414 624 l 1,35,36
 394 605 394 605 374 598 c 128,-1,37
 354 591 354 591 328 591 c 0,38,39
 309 591 309 591 295 597 c 128,-1,40
 281 603 281 603 268.5 610.5 c 128,-1,41
 256 618 256 618 243 624 c 128,-1,42
 230 630 230 630 214 630 c 0,43,44
 188 630 188 630 169 619 c 128,-1,45
 150 608 150 608 134 594 c 1,46,-1
 134 667 l 1,23,24
EndSplineSet
EndChar

StartChar: oacute
Encoding: 243 243 216
Width: 510
Flags: W
LayerCount: 2
Fore
SplineSet
445 260 m 0,0,1
 445 181 445 181 433 129.5 c 128,-1,2
 421 78 421 78 397 47.5 c 128,-1,3
 373 17 373 17 337.5 5 c 128,-1,4
 302 -7 302 -7 255 -7 c 0,5,6
 209 -7 209 -7 173.5 5 c 128,-1,7
 138 17 138 17 114 47.5 c 128,-1,8
 90 78 90 78 77.5 129.5 c 128,-1,9
 65 181 65 181 65 260 c 0,10,11
 65 388 65 388 111 447.5 c 128,-1,12
 157 507 157 507 255 507 c 256,13,14
 353 507 353 507 399 447.5 c 128,-1,15
 445 388 445 388 445 260 c 0,0,1
358 245 m 0,16,17
 358 298 358 298 353 335 c 128,-1,18
 348 372 348 372 336.5 394.5 c 128,-1,19
 325 417 325 417 305 427 c 128,-1,20
 285 437 285 437 255 437 c 256,21,22
 225 437 225 437 205 427 c 128,-1,23
 185 417 185 417 173.5 394.5 c 128,-1,24
 162 372 162 372 157 335 c 128,-1,25
 152 298 152 298 152 245 c 0,26,27
 152 147 152 147 175 105 c 128,-1,28
 198 63 198 63 255 63 c 256,29,30
 312 63 312 63 335 105 c 128,-1,31
 358 147 358 147 358 245 c 0,16,17
187 580 m 1,32,-1
 291 715 l 1,33,-1
 400 715 l 1,34,-1
 268 580 l 1,35,-1
 187 580 l 1,32,-1
EndSplineSet
EndChar

StartChar: ocircumflex
Encoding: 244 244 217
Width: 510
Flags: W
LayerCount: 2
Fore
SplineSet
445 260 m 0,0,1
 445 181 445 181 433 129.5 c 128,-1,2
 421 78 421 78 397 47.5 c 128,-1,3
 373 17 373 17 337.5 5 c 128,-1,4
 302 -7 302 -7 255 -7 c 0,5,6
 209 -7 209 -7 173.5 5 c 128,-1,7
 138 17 138 17 114 47.5 c 128,-1,8
 90 78 90 78 77.5 129.5 c 128,-1,9
 65 181 65 181 65 260 c 0,10,11
 65 388 65 388 111 447.5 c 128,-1,12
 157 507 157 507 255 507 c 256,13,14
 353 507 353 507 399 447.5 c 128,-1,15
 445 388 445 388 445 260 c 0,0,1
358 245 m 0,16,17
 358 298 358 298 353 335 c 128,-1,18
 348 372 348 372 336.5 394.5 c 128,-1,19
 325 417 325 417 305 427 c 128,-1,20
 285 437 285 437 255 437 c 256,21,22
 225 437 225 437 205 427 c 128,-1,23
 185 417 185 417 173.5 394.5 c 128,-1,24
 162 372 162 372 157 335 c 128,-1,25
 152 298 152 298 152 245 c 0,26,27
 152 147 152 147 175 105 c 128,-1,28
 198 63 198 63 255 63 c 256,29,30
 312 63 312 63 335 105 c 128,-1,31
 358 147 358 147 358 245 c 0,16,17
315 580 m 1,32,-1
 255 664 l 1,33,-1
 195 580 l 1,34,-1
 99 580 l 1,35,-1
 211 715 l 1,36,-1
 299 715 l 1,37,-1
 412 580 l 1,38,-1
 315 580 l 1,32,-1
EndSplineSet
EndChar

StartChar: odieresis
Encoding: 246 246 218
Width: 510
Flags: W
LayerCount: 2
Fore
SplineSet
445 260 m 0,0,1
 445 181 445 181 433 129.5 c 128,-1,2
 421 78 421 78 397 47.5 c 128,-1,3
 373 17 373 17 337.5 5 c 128,-1,4
 302 -7 302 -7 255 -7 c 0,5,6
 209 -7 209 -7 173.5 5 c 128,-1,7
 138 17 138 17 114 47.5 c 128,-1,8
 90 78 90 78 77.5 129.5 c 128,-1,9
 65 181 65 181 65 260 c 0,10,11
 65 388 65 388 111 447.5 c 128,-1,12
 157 507 157 507 255 507 c 256,13,14
 353 507 353 507 399 447.5 c 128,-1,15
 445 388 445 388 445 260 c 0,0,1
358 245 m 0,16,17
 358 298 358 298 353 335 c 128,-1,18
 348 372 348 372 336.5 394.5 c 128,-1,19
 325 417 325 417 305 427 c 128,-1,20
 285 437 285 437 255 437 c 256,21,22
 225 437 225 437 205 427 c 128,-1,23
 185 417 185 417 173.5 394.5 c 128,-1,24
 162 372 162 372 157 335 c 128,-1,25
 152 298 152 298 152 245 c 0,26,27
 152 147 152 147 175 105 c 128,-1,28
 198 63 198 63 255 63 c 256,29,30
 312 63 312 63 335 105 c 128,-1,31
 358 147 358 147 358 245 c 0,16,17
313 595 m 1,32,-1
 313 675 l 1,33,-1
 398 675 l 1,34,-1
 398 595 l 1,35,-1
 313 595 l 1,32,-1
113 595 m 1,36,-1
 113 675 l 1,37,-1
 198 675 l 1,38,-1
 198 595 l 1,39,-1
 113 595 l 1,36,-1
EndSplineSet
EndChar

StartChar: ograve
Encoding: 242 242 219
Width: 510
Flags: W
LayerCount: 2
Fore
SplineSet
445 260 m 0,0,1
 445 181 445 181 433 129.5 c 128,-1,2
 421 78 421 78 397 47.5 c 128,-1,3
 373 17 373 17 337.5 5 c 128,-1,4
 302 -7 302 -7 255 -7 c 0,5,6
 209 -7 209 -7 173.5 5 c 128,-1,7
 138 17 138 17 114 47.5 c 128,-1,8
 90 78 90 78 77.5 129.5 c 128,-1,9
 65 181 65 181 65 260 c 0,10,11
 65 388 65 388 111 447.5 c 128,-1,12
 157 507 157 507 255 507 c 256,13,14
 353 507 353 507 399 447.5 c 128,-1,15
 445 388 445 388 445 260 c 0,0,1
358 245 m 0,16,17
 358 298 358 298 353 335 c 128,-1,18
 348 372 348 372 336.5 394.5 c 128,-1,19
 325 417 325 417 305 427 c 128,-1,20
 285 437 285 437 255 437 c 256,21,22
 225 437 225 437 205 427 c 128,-1,23
 185 417 185 417 173.5 394.5 c 128,-1,24
 162 372 162 372 157 335 c 128,-1,25
 152 298 152 298 152 245 c 0,26,27
 152 147 152 147 175 105 c 128,-1,28
 198 63 198 63 255 63 c 256,29,30
 312 63 312 63 335 105 c 128,-1,31
 358 147 358 147 358 245 c 0,16,17
253 580 m 1,32,-1
 121 715 l 1,33,-1
 230 715 l 1,34,-1
 334 580 l 1,35,-1
 253 580 l 1,32,-1
EndSplineSet
EndChar

StartChar: otilde
Encoding: 245 245 220
Width: 510
Flags: W
LayerCount: 2
Fore
SplineSet
445 260 m 0,0,1
 445 181 445 181 433 129.5 c 128,-1,2
 421 78 421 78 397 47.5 c 128,-1,3
 373 17 373 17 337.5 5 c 128,-1,4
 302 -7 302 -7 255 -7 c 0,5,6
 209 -7 209 -7 173.5 5 c 128,-1,7
 138 17 138 17 114 47.5 c 128,-1,8
 90 78 90 78 77.5 129.5 c 128,-1,9
 65 181 65 181 65 260 c 0,10,11
 65 388 65 388 111 447.5 c 128,-1,12
 157 507 157 507 255 507 c 256,13,14
 353 507 353 507 399 447.5 c 128,-1,15
 445 388 445 388 445 260 c 0,0,1
358 245 m 0,16,17
 358 298 358 298 353 335 c 128,-1,18
 348 372 348 372 336.5 394.5 c 128,-1,19
 325 417 325 417 305 427 c 128,-1,20
 285 437 285 437 255 437 c 256,21,22
 225 437 225 437 205 427 c 128,-1,23
 185 417 185 417 173.5 394.5 c 128,-1,24
 162 372 162 372 157 335 c 128,-1,25
 152 298 152 298 152 245 c 0,26,27
 152 147 152 147 175 105 c 128,-1,28
 198 63 198 63 255 63 c 256,29,30
 312 63 312 63 335 105 c 128,-1,31
 358 147 358 147 358 245 c 0,16,17
120 667 m 1,32,33
 143 686 143 686 164.5 693 c 128,-1,34
 186 700 186 700 206 700 c 0,35,36
 224 700 224 700 238.5 694 c 128,-1,37
 253 688 253 688 266 680.5 c 128,-1,38
 279 673 279 673 292 667 c 128,-1,39
 305 661 305 661 320 661 c 0,40,41
 346 661 346 661 363 670.5 c 128,-1,42
 380 680 380 680 400 697 c 1,43,-1
 400 624 l 1,44,45
 380 605 380 605 360 598 c 128,-1,46
 340 591 340 591 314 591 c 0,47,48
 295 591 295 591 281 597 c 128,-1,49
 267 603 267 603 254.5 610.5 c 128,-1,50
 242 618 242 618 229 624 c 128,-1,51
 216 630 216 630 200 630 c 0,52,53
 174 630 174 630 155 619 c 128,-1,54
 136 608 136 608 120 594 c 1,55,-1
 120 667 l 1,32,33
EndSplineSet
EndChar

StartChar: scaron
Encoding: 353 353 221
Width: 402
Flags: W
LayerCount: 2
Fore
SplineSet
352 145 m 0,0,1
 352 62 352 62 306.5 27.5 c 128,-1,2
 261 -7 261 -7 184 -7 c 0,3,4
 141 -7 141 -7 111 -1.5 c 128,-1,5
 81 4 81 4 64 9 c 1,6,-1
 64 82 l 1,7,8
 73 80 73 80 87.5 77.5 c 128,-1,9
 102 75 102 75 119 72.5 c 128,-1,10
 136 70 136 70 154.5 68 c 128,-1,11
 173 66 173 66 191 66 c 0,12,13
 211 66 211 66 224.5 72.5 c 128,-1,14
 238 79 238 79 246.5 89.5 c 128,-1,15
 255 100 255 100 259 113.5 c 128,-1,16
 263 127 263 127 263 140 c 0,17,18
 263 176 263 176 250.5 193 c 128,-1,19
 238 210 238 210 200 217 c 0,20,21
 123 231 123 231 91.5 265.5 c 128,-1,22
 60 300 60 300 60 356 c 0,23,24
 60 397 60 397 73 425.5 c 128,-1,25
 86 454 86 454 108.5 472 c 128,-1,26
 131 490 131 490 161.5 498.5 c 128,-1,27
 192 507 192 507 228 507 c 0,28,29
 267 507 267 507 293.5 500.5 c 128,-1,30
 320 494 320 494 335 490 c 1,31,-1
 335 417 l 1,32,33
 309 423 309 423 285 429 c 128,-1,34
 261 435 261 435 220 435 c 0,35,36
 197 435 197 435 182.5 428.5 c 128,-1,37
 168 422 168 422 160 411.5 c 128,-1,38
 152 401 152 401 149.5 388 c 128,-1,39
 147 375 147 375 147 361 c 0,40,41
 147 306 147 306 211 296 c 0,42,43
 289 283 289 283 320.5 247 c 128,-1,44
 352 211 352 211 352 145 c 0,0,1
152 714 m 1,45,-1
 212 630 l 1,46,-1
 272 714 l 1,47,-1
 368 714 l 1,48,-1
 256 579 l 1,49,-1
 168 579 l 1,50,-1
 55 714 l 1,51,-1
 152 714 l 1,45,-1
EndSplineSet
EndChar

StartChar: uacute
Encoding: 250 250 222
Width: 491
Flags: W
LayerCount: 2
Fore
SplineSet
341 0 m 1,0,-1
 334 41 l 1,1,2
 313 18 313 18 285 5.5 c 128,-1,3
 257 -7 257 -7 219 -7 c 0,4,5
 177 -7 177 -7 149.5 4 c 128,-1,6
 122 15 122 15 105.5 37.5 c 128,-1,7
 89 60 89 60 82 94 c 128,-1,8
 75 128 75 128 75 174 c 2,9,-1
 75 500 l 1,10,-1
 160 500 l 1,11,-1
 160 164 l 2,12,13
 160 140 160 140 162.5 122 c 128,-1,14
 165 104 165 104 173 91 c 128,-1,15
 181 78 181 78 195 71.5 c 128,-1,16
 209 65 209 65 232 65 c 0,17,18
 253 65 253 65 270 73 c 128,-1,19
 287 81 287 81 299 93 c 128,-1,20
 311 105 311 105 318 119.5 c 128,-1,21
 325 134 325 134 326 147 c 1,22,-1
 326 500 l 1,23,-1
 411 500 l 1,24,-1
 411 0 l 1,25,-1
 341 0 l 1,0,-1
184 580 m 1,26,-1
 288 715 l 1,27,-1
 397 715 l 1,28,-1
 265 580 l 1,29,-1
 184 580 l 1,26,-1
EndSplineSet
EndChar

StartChar: ucircumflex
Encoding: 251 251 223
Width: 491
Flags: W
LayerCount: 2
Fore
SplineSet
341 0 m 1,0,-1
 334 41 l 1,1,2
 313 18 313 18 285 5.5 c 128,-1,3
 257 -7 257 -7 219 -7 c 0,4,5
 177 -7 177 -7 149.5 4 c 128,-1,6
 122 15 122 15 105.5 37.5 c 128,-1,7
 89 60 89 60 82 94 c 128,-1,8
 75 128 75 128 75 174 c 2,9,-1
 75 500 l 1,10,-1
 160 500 l 1,11,-1
 160 164 l 2,12,13
 160 140 160 140 162.5 122 c 128,-1,14
 165 104 165 104 173 91 c 128,-1,15
 181 78 181 78 195 71.5 c 128,-1,16
 209 65 209 65 232 65 c 0,17,18
 253 65 253 65 270 73 c 128,-1,19
 287 81 287 81 299 93 c 128,-1,20
 311 105 311 105 318 119.5 c 128,-1,21
 325 134 325 134 326 147 c 1,22,-1
 326 500 l 1,23,-1
 411 500 l 1,24,-1
 411 0 l 1,25,-1
 341 0 l 1,0,-1
305 580 m 1,26,-1
 245 664 l 1,27,-1
 185 580 l 1,28,-1
 89 580 l 1,29,-1
 201 715 l 1,30,-1
 289 715 l 1,31,-1
 402 580 l 1,32,-1
 305 580 l 1,26,-1
EndSplineSet
EndChar

StartChar: udieresis
Encoding: 252 252 224
Width: 491
Flags: W
LayerCount: 2
Fore
SplineSet
341 0 m 1,0,-1
 334 41 l 1,1,2
 313 18 313 18 285 5.5 c 128,-1,3
 257 -7 257 -7 219 -7 c 0,4,5
 177 -7 177 -7 149.5 4 c 128,-1,6
 122 15 122 15 105.5 37.5 c 128,-1,7
 89 60 89 60 82 94 c 128,-1,8
 75 128 75 128 75 174 c 2,9,-1
 75 500 l 1,10,-1
 160 500 l 1,11,-1
 160 164 l 2,12,13
 160 140 160 140 162.5 122 c 128,-1,14
 165 104 165 104 173 91 c 128,-1,15
 181 78 181 78 195 71.5 c 128,-1,16
 209 65 209 65 232 65 c 0,17,18
 253 65 253 65 270 73 c 128,-1,19
 287 81 287 81 299 93 c 128,-1,20
 311 105 311 105 318 119.5 c 128,-1,21
 325 134 325 134 326 147 c 1,22,-1
 326 500 l 1,23,-1
 411 500 l 1,24,-1
 411 0 l 1,25,-1
 341 0 l 1,0,-1
302 595 m 1,26,-1
 302 675 l 1,27,-1
 387 675 l 1,28,-1
 387 595 l 1,29,-1
 302 595 l 1,26,-1
102 595 m 1,30,-1
 102 675 l 1,31,-1
 187 675 l 1,32,-1
 187 595 l 1,33,-1
 102 595 l 1,30,-1
EndSplineSet
EndChar

StartChar: ugrave
Encoding: 249 249 225
Width: 491
Flags: W
LayerCount: 2
Fore
SplineSet
341 0 m 1,0,-1
 334 41 l 1,1,2
 313 18 313 18 285 5.5 c 128,-1,3
 257 -7 257 -7 219 -7 c 0,4,5
 177 -7 177 -7 149.5 4 c 128,-1,6
 122 15 122 15 105.5 37.5 c 128,-1,7
 89 60 89 60 82 94 c 128,-1,8
 75 128 75 128 75 174 c 2,9,-1
 75 500 l 1,10,-1
 160 500 l 1,11,-1
 160 164 l 2,12,13
 160 140 160 140 162.5 122 c 128,-1,14
 165 104 165 104 173 91 c 128,-1,15
 181 78 181 78 195 71.5 c 128,-1,16
 209 65 209 65 232 65 c 0,17,18
 253 65 253 65 270 73 c 128,-1,19
 287 81 287 81 299 93 c 128,-1,20
 311 105 311 105 318 119.5 c 128,-1,21
 325 134 325 134 326 147 c 1,22,-1
 326 500 l 1,23,-1
 411 500 l 1,24,-1
 411 0 l 1,25,-1
 341 0 l 1,0,-1
241 580 m 1,26,-1
 109 715 l 1,27,-1
 218 715 l 1,28,-1
 322 580 l 1,29,-1
 241 580 l 1,26,-1
EndSplineSet
EndChar

StartChar: yacute
Encoding: 253 253 226
Width: 463
Flags: W
LayerCount: 2
Fore
SplineSet
283 -44 m 2,0,1
 275 -73 275 -73 266 -97.5 c 128,-1,2
 257 -122 257 -122 243.5 -139 c 128,-1,3
 230 -156 230 -156 209.5 -165.5 c 128,-1,4
 189 -175 189 -175 159 -175 c 0,5,6
 143 -175 143 -175 127 -173 c 128,-1,7
 111 -171 111 -171 102 -169 c 1,8,-1
 102 -96 l 1,9,10
 113 -98 113 -98 126 -99 c 128,-1,11
 139 -100 139 -100 154 -100 c 0,12,13
 182 -100 182 -100 194 -55 c 1,14,-1
 210 0 l 1,15,-1
 190 0 l 1,16,-1
 35 500 l 1,17,-1
 127 500 l 1,18,-1
 243 87 l 1,19,-1
 341 500 l 1,20,-1
 428 500 l 1,21,-1
 283 -44 l 2,0,1
193 580 m 1,22,-1
 297 715 l 1,23,-1
 406 715 l 1,24,-1
 274 580 l 1,25,-1
 193 580 l 1,22,-1
EndSplineSet
EndChar

StartChar: ydieresis
Encoding: 255 255 227
Width: 463
Flags: W
LayerCount: 2
Fore
SplineSet
283 -44 m 2,0,1
 275 -73 275 -73 266 -97.5 c 128,-1,2
 257 -122 257 -122 243.5 -139 c 128,-1,3
 230 -156 230 -156 209.5 -165.5 c 128,-1,4
 189 -175 189 -175 159 -175 c 0,5,6
 143 -175 143 -175 127 -173 c 128,-1,7
 111 -171 111 -171 102 -169 c 1,8,-1
 102 -96 l 1,9,10
 113 -98 113 -98 126 -99 c 128,-1,11
 139 -100 139 -100 154 -100 c 0,12,13
 182 -100 182 -100 194 -55 c 1,14,-1
 210 0 l 1,15,-1
 190 0 l 1,16,-1
 35 500 l 1,17,-1
 127 500 l 1,18,-1
 243 87 l 1,19,-1
 341 500 l 1,20,-1
 428 500 l 1,21,-1
 283 -44 l 2,0,1
290 595 m 1,22,-1
 290 675 l 1,23,-1
 375 675 l 1,24,-1
 375 595 l 1,25,-1
 290 595 l 1,22,-1
90 595 m 1,26,-1
 90 675 l 1,27,-1
 175 675 l 1,28,-1
 175 595 l 1,29,-1
 90 595 l 1,26,-1
EndSplineSet
EndChar

StartChar: zcaron
Encoding: 382 382 228
Width: 403
Flags: W
LayerCount: 2
Fore
SplineSet
137 74 m 1,0,-1
 343 74 l 1,1,-1
 343 0 l 1,2,-1
 45 0 l 1,3,-1
 45 80 l 1,4,-1
 262 426 l 1,5,-1
 65 426 l 1,6,-1
 65 500 l 1,7,-1
 353 500 l 1,8,-1
 353 411 l 1,9,-1
 137 74 l 1,0,-1
157 714 m 1,10,-1
 217 630 l 1,11,-1
 277 714 l 1,12,-1
 373 714 l 1,13,-1
 261 579 l 1,14,-1
 173 579 l 1,15,-1
 60 714 l 1,16,-1
 157 714 l 1,10,-1
EndSplineSet
EndChar

StartChar: quotedbl
Encoding: 34 34 229
Width: 360
Flags: W
LayerCount: 2
Fore
SplineSet
130 453 m 1,0,-1
 75 453 l 1,1,-1
 55 610 l 1,2,-1
 55 700 l 1,3,-1
 150 700 l 1,4,-1
 150 610 l 1,5,-1
 130 453 l 1,0,-1
285 453 m 1,6,-1
 230 453 l 1,7,-1
 210 610 l 1,8,-1
 210 700 l 1,9,-1
 305 700 l 1,10,-1
 305 610 l 1,11,-1
 285 453 l 1,6,-1
EndSplineSet
EndChar

StartChar: exclam
Encoding: 33 33 230
Width: 250
Flags: W
LayerCount: 2
Fore
SplineSet
75 0 m 1,0,-1
 75 100 l 1,1,-1
 175 100 l 1,2,-1
 175 0 l 1,3,-1
 75 0 l 1,0,-1
82 208 m 1,4,-1
 82 700 l 1,5,-1
 167 700 l 1,6,-1
 167 208 l 1,7,-1
 82 208 l 1,4,-1
EndSplineSet
EndChar

StartChar: uni00AD
Encoding: 173 173 232
Width: 495
Flags: W
LayerCount: 2
Fore
SplineSet
85 275 m 1,0,-1
 85 350 l 1,1,-1
 410 350 l 1,2,-1
 410 275 l 1,3,-1
 85 275 l 1,0,-1
EndSplineSet
EndChar

StartChar: uni02C9
Encoding: 713 713 233
Width: 325
Flags: W
LayerCount: 2
Fore
SplineSet
35 605 m 1,0,-1
 35 675 l 1,1,-1
 290 675 l 1,2,-1
 290 605 l 1,3,-1
 35 605 l 1,0,-1
EndSplineSet
EndChar

StartChar: uni03BC
Encoding: 956 956 234
Width: 496
Flags: W
LayerCount: 2
Fore
SplineSet
80 -170 m 1,0,-1
 80 500 l 1,1,-1
 165 500 l 1,2,-1
 165 150 l 1,3,4
 166 109 166 109 180 87 c 128,-1,5
 194 65 194 65 237 65 c 0,6,7
 258 65 258 65 275 73 c 128,-1,8
 292 81 292 81 304 93 c 128,-1,9
 316 105 316 105 323 119.5 c 128,-1,10
 330 134 330 134 331 147 c 1,11,-1
 331 500 l 1,12,-1
 416 500 l 1,13,-1
 416 0 l 1,14,-1
 346 0 l 1,15,-1
 339 41 l 1,16,17
 318 18 318 18 290 5.5 c 128,-1,18
 262 -7 262 -7 224 -7 c 0,19,20
 192 -7 192 -7 165 4 c 1,21,-1
 165 -170 l 1,22,-1
 80 -170 l 1,0,-1
EndSplineSet
EndChar

StartChar: pi
Encoding: 960 960 235
Width: 554
Flags: W
LayerCount: 2
Fore
SplineSet
419 427 m 1,0,-1
 419 117 l 2,1,2
 419 91 419 91 425.5 80.5 c 128,-1,3
 432 70 432 70 452 70 c 0,4,5
 460 70 460 70 467.5 72 c 128,-1,6
 475 74 475 74 479 75 c 1,7,-1
 479 5 l 1,8,9
 468 3 468 3 453.5 0.5 c 128,-1,10
 439 -2 439 -2 419 -2 c 0,11,12
 404 -2 404 -2 389 3 c 128,-1,13
 374 8 374 8 362 21 c 128,-1,14
 350 34 350 34 342 56 c 128,-1,15
 334 78 334 78 334 112 c 2,16,-1
 334 427 l 1,17,-1
 209 427 l 1,18,-1
 209 0 l 1,19,-1
 124 0 l 1,20,-1
 124 427 l 1,21,-1
 45 427 l 1,22,-1
 45 500 l 1,23,-1
 509 500 l 1,24,-1
 509 427 l 1,25,-1
 419 427 l 1,0,-1
EndSplineSet
EndChar

StartChar: Euro
Encoding: 8364 8364 236
Width: 470
Flags: W
LayerCount: 2
Fore
SplineSet
406 621 m 1,0,1
 378 627 378 627 356 630.5 c 128,-1,2
 334 634 334 634 309 634 c 0,3,4
 287 634 287 634 270 628 c 128,-1,5
 253 622 253 622 240.5 605.5 c 128,-1,6
 228 589 228 589 220 559 c 128,-1,7
 212 529 212 529 208 480 c 1,8,-1
 371 480 l 1,9,-1
 351 407 l 1,10,-1
 204 407 l 1,11,-1
 204 310 l 1,12,-1
 341 310 l 1,13,-1
 321 237 l 1,14,-1
 207 237 l 1,15,16
 211 182 211 182 219 148.5 c 128,-1,17
 227 115 227 115 240 96.5 c 128,-1,18
 253 78 253 78 270.5 72 c 128,-1,19
 288 66 288 66 310 66 c 0,20,21
 341 66 341 66 364 70.5 c 128,-1,22
 387 75 387 75 406 80 c 1,23,-1
 406 9 l 1,24,25
 389 4 389 4 364.5 -1.5 c 128,-1,26
 340 -7 340 -7 315 -7 c 0,27,28
 270 -7 270 -7 236 4 c 128,-1,29
 202 15 202 15 178 42.5 c 128,-1,30
 154 70 154 70 139.5 117 c 128,-1,31
 125 164 125 164 119 237 c 1,32,-1
 55 237 l 1,33,-1
 75 310 l 1,34,-1
 115 310 l 1,35,-1
 115 407 l 1,36,-1
 55 407 l 1,37,-1
 75 480 l 1,38,-1
 119 480 l 1,39,40
 126 551 126 551 142 595.5 c 128,-1,41
 158 640 158 640 183.5 665 c 128,-1,42
 209 690 209 690 245 698.5 c 128,-1,43
 281 707 281 707 327 707 c 0,44,45
 337 707 337 707 351.5 705 c 128,-1,46
 366 703 366 703 381 700.5 c 128,-1,47
 396 698 396 698 408 695 c 128,-1,48
 420 692 420 692 426 690 c 1,49,-1
 406 621 l 1,0,1
EndSplineSet
EndChar

StartChar: Omega
Encoding: 8486 8486 237
Width: 548
Flags: W
LayerCount: 2
Fore
SplineSet
70 0 m 1,0,-1
 70 72 l 1,1,-1
 127 72 l 1,2,3
 92 110 92 110 78.5 179 c 128,-1,4
 65 248 65 248 65 358 c 0,5,6
 65 446 65 446 74.5 511.5 c 128,-1,7
 84 577 84 577 107.5 620.5 c 128,-1,8
 131 664 131 664 171.5 685.5 c 128,-1,9
 212 707 212 707 274 707 c 256,10,11
 336 707 336 707 376.5 685.5 c 128,-1,12
 417 664 417 664 440.5 620.5 c 128,-1,13
 464 577 464 577 473.5 511.5 c 128,-1,14
 483 446 483 446 483 358 c 0,15,16
 483 248 483 248 469 179 c 128,-1,17
 455 110 455 110 420 72 c 1,18,-1
 480 72 l 1,19,-1
 480 0 l 1,20,-1
 317 0 l 1,21,-1
 317 75 l 1,22,23
 338 84 338 84 353 103.5 c 128,-1,24
 368 123 368 123 377 156.5 c 128,-1,25
 386 190 386 190 390 238.5 c 128,-1,26
 394 287 394 287 394 353 c 0,27,28
 394 436 394 436 388 490 c 128,-1,29
 382 544 382 544 368 576 c 128,-1,30
 354 608 354 608 331 621 c 128,-1,31
 308 634 308 634 274 634 c 256,32,33
 240 634 240 634 217 621 c 128,-1,34
 194 608 194 608 180 576 c 128,-1,35
 166 544 166 544 160 490 c 128,-1,36
 154 436 154 436 154 353 c 0,37,38
 154 286 154 286 158 237 c 128,-1,39
 162 188 162 188 171.5 154.5 c 128,-1,40
 181 121 181 121 196 101.5 c 128,-1,41
 211 82 211 82 233 74 c 1,42,-1
 233 0 l 1,43,-1
 70 0 l 1,0,-1
EndSplineSet
Position2: "'cpsp' Capital Spacing in Latin lookup 0 subtable" dx=5 dy=0 dh=10 dv=0
EndChar

